ISO-10303-21;
HEADER;
FILE_DESCRIPTION (( 'STEP AP203' ),
    '1' );
FILE_NAME ('12121212.STEP',
    '2025-07-11T16:09:48',
    ( '' ),
    ( '' ),
    'SwSTEP 2.0',
    'SolidWorks 2024',
    '' );
FILE_SCHEMA (( 'CONFIG_CONTROL_DESIGN' ));
ENDSEC;

DATA;
#1 = AXIS2_PLACEMENT_3D ( 'NONE', #586, #370, #433 ) ;
#2 = ORIENTED_EDGE ( 'NONE', *, *, #190, .T. ) ;
#3 = CYLINDRICAL_SURFACE ( 'NONE', #242, 5.349999999998930278 ) ;
#4 = DIRECTION ( 'NONE',  ( 0.5000000000000013323, -0.8660254037844379305, -0.000000000000000000 ) ) ;
#5 = ORIENTED_EDGE ( 'NONE', *, *, #202, .T. ) ;
#6 = EDGE_LOOP ( 'NONE', ( #100, #364 ) ) ;
#7 = DIRECTION ( 'NONE',  ( -0.5000000000000013323, 0.8660254037844379305, 0.000000000000000000 ) ) ;
#8 = CARTESIAN_POINT ( 'NONE',  ( -12.47927586857744053, 30.27500203870378925, 4.077215301490078048E-06 ) ) ;
#9 = AXIS2_PLACEMENT_3D ( 'NONE', #233, #385, #595 ) ;
#10 = ORIENTED_EDGE ( 'NONE', *, *, #461, .T. ) ;
#11 = ORIENTED_EDGE ( 'NONE', *, *, #98, .F. ) ;
#12 = DIRECTION ( 'NONE',  ( -1.000000000000000000, 0.000000000000000000, -0.000000000000000000 ) ) ;
#13 = CARTESIAN_POINT ( 'NONE',  ( -15.00000000000000000, 0.000000000000000000, -15.00000000000000000 ) ) ;
#14 = DIRECTION ( 'NONE',  ( 0.5000000000000013323, -0.8660254037844379305, 0.000000000000000000 ) ) ;
#15 = AXIS2_PLACEMENT_3D ( 'NONE', #437, #338, #417 ) ;
#16 = ADVANCED_FACE ( 'NONE', ( #207 ), #3, .F. ) ;
#17 = ORIENTED_EDGE ( 'NONE', *, *, #250, .T. ) ;
#18 = DIRECTION ( 'NONE',  ( -1.000000000000000000, -0.000000000000000000, -0.000000000000000000 ) ) ;
#19 = EDGE_CURVE ( 'NONE', #517, #375, #453, .T. ) ;
#20 = DIRECTION ( 'NONE',  ( 0.8660254037844378194, 0.5000000000000014433, 0.000000000000000000 ) ) ;
#21 = CARTESIAN_POINT ( 'NONE',  ( -21.69614889156815707, 34.23909440143463456, 4.077215302224865577E-06 ) ) ;
#22 = LINE ( 'NONE', #636, #234 ) ;
#23 = DIRECTION ( 'NONE',  ( 0.8660254037844378194, 0.5000000000000014433, 0.000000000000000000 ) ) ;
#24 = PRODUCT_DEFINITION ( 'UNKNOWN', '', #263, #555 ) ;
#25 = DIRECTION ( 'NONE',  ( 0.8660254037844378194, 0.5000000000000015543, 0.000000000000000000 ) ) ;
#26 = DIRECTION ( 'NONE',  ( 0.000000000000000000, 0.000000000000000000, -1.000000000000000000 ) ) ;
#27 = VECTOR ( 'NONE', #4, 1000.000000000000000 ) ;
#28 = CARTESIAN_POINT ( 'NONE',  ( -1.220944442333532498, 22.77499999999999858, 4.077215301490078048E-06 ) ) ;
#29 = ADVANCED_FACE ( 'NONE', ( #114 ), #467, .F. ) ;
#30 = DIRECTION ( 'NONE',  ( -0.000000000000000000, 1.000000000000000000, -0.000000000000000000 ) ) ;
#31 = AXIS2_PLACEMENT_3D ( 'NONE', #427, #94, #153 ) ;
#32 = CARTESIAN_POINT ( 'NONE',  ( -20.52735090288298636, 22.77499999999999858, 2.999999999998933742 ) ) ;
#33 = VECTOR ( 'NONE', #324, 1000.000000000000000 ) ;
#34 = APPLICATION_CONTEXT ( 'configuration controlled 3d designs of mechanical parts and assemblies' ) ;
#35 = CARTESIAN_POINT ( 'NONE',  ( -15.46966045648260568, 7.775000000000000355, -15.00000000000028777 ) ) ;
#36 = CARTESIAN_POINT ( 'NONE',  ( 0.000000000000000000, 22.77499999999999858, 0.000000000000000000 ) ) ;
#37 = AXIS2_PLACEMENT_3D ( 'NONE', #395, #344, #443 ) ;
#38 = PERSON_AND_ORGANIZATION_ROLE ( 'design_supplier' ) ;
#39 = DIRECTION ( 'NONE',  ( 0.5000000000000015543, -0.8660254037844377084, -0.000000000000000000 ) ) ;
#40 = EDGE_CURVE ( 'NONE', #512, #576, #330, .T. ) ;
#41 = APPROVAL_ROLE ( '' ) ;
#42 = DIRECTION ( 'NONE',  ( 0.000000000000000000, 0.000000000000000000, -1.000000000000000000 ) ) ;
#43 = APPROVAL_DATE_TIME ( #304, #49 ) ;
#44 = EDGE_LOOP ( 'NONE', ( #210, #5, #374, #618 ) ) ;
#45 = ADVANCED_FACE ( 'NONE', ( #462, #510 ), #247, .T. ) ;
#46 = ORIENTED_EDGE ( 'NONE', *, *, #274, .F. ) ;
#47 = LINE ( 'NONE', #585, #537 ) ;
#48 = COORDINATED_UNIVERSAL_TIME_OFFSET ( 3, 0, .BEHIND. ) ;
#49 = APPROVAL ( #458, 'UNSPECIFIED' ) ;
#50 = EDGE_LOOP ( 'NONE', ( #484, #414 ) ) ;
#51 = ORIENTED_EDGE ( 'NONE', *, *, #391, .T. ) ;
#52 = CARTESIAN_POINT ( 'NONE',  ( 3.128516771171228950, 33.24150403784440044, 15.00000000000000000 ) ) ;
#53 = VECTOR ( 'NONE', #545, 1000.000000000000000 ) ;
#54 = ORIENTED_EDGE ( 'NONE', *, *, #535, .F. ) ;
#55 = VERTEX_POINT ( 'NONE', #652 ) ;
#56 = DIRECTION ( 'NONE',  ( 0.000000000000000000, -1.000000000000000000, 0.000000000000000000 ) ) ;
#57 = LOCAL_TIME ( 13, 9, 48.00000000000000000, #559 ) ;
#58 = LINE ( 'NONE', #639, #468 ) ;
#59 = ORIENTED_EDGE ( 'NONE', *, *, #611, .T. ) ;
#60 = EDGE_CURVE ( 'NONE', #212, #477, #396, .T. ) ;
#61 = ORIENTED_EDGE ( 'NONE', *, *, #97, .F. ) ;
#62 = ORIENTED_EDGE ( 'NONE', *, *, #450, .T. ) ;
#63 = CARTESIAN_POINT ( 'NONE',  ( -12.99038105676658361, 1.160254037844387742, 15.00000000000000000 ) ) ;
#64 = CARTESIAN_POINT ( 'NONE',  ( -1.220944442333533386, 22.77499999999999858, 12.00000407721530316 ) ) ;
#65 = EDGE_LOOP ( 'NONE', ( #74, #121, #521, #569 ) ) ;
#66 = CARTESIAN_POINT ( 'NONE',  ( -3.420796813810014214, 6.685256076548181881, 4.077215301973813482E-06 ) ) ;
#67 = EDGE_CURVE ( 'NONE', #568, #290, #197, .T. ) ;
#68 = AXIS2_PLACEMENT_3D ( 'NONE', #52, #307, #369 ) ;
#69 = DIRECTION ( 'NONE',  ( 0.000000000000000000, 0.000000000000000000, -1.000000000000000000 ) ) ;
#70 = ORIENTED_EDGE ( 'NONE', *, *, #587, .F. ) ;
#71 = DIRECTION ( 'NONE',  ( 0.000000000000000000, 0.000000000000000000, -1.000000000000000000 ) ) ;
#72 = DIRECTION ( 'NONE',  ( 0.5000000000000013323, -0.8660254037844379305, 0.000000000000000000 ) ) ;
#73 = APPROVAL ( #102, 'UNSPECIFIED' ) ;
#74 = ORIENTED_EDGE ( 'NONE', *, *, #429, .T. ) ;
#75 = CARTESIAN_POINT ( 'NONE',  ( -38.65545054398578628, 28.69811014715808639, 15.00000000000000000 ) ) ;
#76 = LINE ( 'NONE', #542, #420 ) ;
#77 = CARTESIAN_POINT ( 'NONE',  ( -20.52735090288298636, 22.77499999999999858, 0.000000000000000000 ) ) ;
#78 = APPROVAL_PERSON_ORGANIZATION ( #296, #293, #261 ) ;
#79 = AXIS2_PLACEMENT_3D ( 'NONE', #553, #294, #507 ) ;
#80 = CIRCLE ( 'NONE', #497, 3.949999999999999734 ) ;
#81 = APPLICATION_CONTEXT ( 'configuration controlled 3d designs of mechanical parts and assemblies' ) ;
#82 = CARTESIAN_POINT ( 'NONE',  ( -0.5791961239129620465, 17.56345930682369527, 4.077215301490078048E-06 ) ) ;
#83 = EDGE_LOOP ( 'NONE', ( #415, #525, #345, #354 ) ) ;
#84 = CARTESIAN_POINT ( 'NONE',  ( -12.99038105676658539, 1.160254037844387298, -15.00000000000000000 ) ) ;
#85 = ORIENTED_EDGE ( 'NONE', *, *, #40, .T. ) ;
#86 =( BOUNDED_CURVE ( )  B_SPLINE_CURVE ( 3, ( #203, #615, #147, #607 ),
 .UNSPECIFIED., .F., .T. ) 
 B_SPLINE_CURVE_WITH_KNOTS ( ( 4, 4 ),
 ( 3.141592653589793116, 6.283185307179586232 ),
 .UNSPECIFIED. ) 
 CURVE ( )  GEOMETRIC_REPRESENTATION_ITEM ( )  RATIONAL_B_SPLINE_CURVE ( ( 1.000000000000000000, 0.3333333333333333703, 0.3333333333333333703, 1.000000000000000000 ) ) 
 REPRESENTATION_ITEM ( '' )  );
#87 = CARTESIAN_POINT ( 'NONE',  ( -22.85224534236190053, 18.24150403784435071, 15.00000000000000000 ) ) ;
#88 = VECTOR ( 'NONE', #283, 1000.000000000000000 ) ;
#89 = CC_DESIGN_APPROVAL ( #49, ( #263 ) ) ;
#90 = FACE_BOUND ( 'NONE', #255, .T. ) ;
#91 = CARTESIAN_POINT ( 'NONE',  ( -20.52735090288298636, 11.27500000000000036, 0.000000000000000000 ) ) ;
#92 = AXIS2_PLACEMENT_3D ( 'NONE', #77, #30, #26 ) ;
#93 = PERSON_AND_ORGANIZATION_ROLE ( 'design_owner' ) ;
#94 = DIRECTION ( 'NONE',  ( -0.5000000000000013323, 0.8660254037844379305, -0.000000000000000000 ) ) ;
#95 = PERSON_AND_ORGANIZATION_ROLE ( 'creator' ) ;
#96 = AXIS2_PLACEMENT_3D ( 'NONE', #480, #256, #105 ) ;
#97 = EDGE_CURVE ( 'NONE', #568, #285, #455, .T. ) ;
#98 = EDGE_CURVE ( 'NONE', #136, #651, #399, .T. ) ;
#99 = EDGE_LOOP ( 'NONE', ( #393, #584, #360, #10 ) ) ;
#100 = ORIENTED_EDGE ( 'NONE', *, *, #273, .F. ) ;
#101 = PLANE ( 'NONE',  #355 ) ;
#102 = APPROVAL_STATUS ( 'not_yet_approved' ) ;
#103 = ORIENTED_EDGE ( 'NONE', *, *, #500, .T. ) ;
#104 = EDGE_LOOP ( 'NONE', ( #268, #241 ) ) ;
#105 = DIRECTION ( 'NONE',  ( 0.000000000000000000, 0.000000000000000000, -1.000000000000000000 ) ) ;
#106 = COORDINATED_UNIVERSAL_TIME_OFFSET ( 3, 0, .BEHIND. ) ;
#107 = EDGE_LOOP ( 'NONE', ( #325, #11, #269, #478, #258, #194, #157 ) ) ;
#108 = ORIENTED_EDGE ( 'NONE', *, *, #509, .T. ) ;
#109 = ORIENTED_EDGE ( 'NONE', *, *, #407, .T. ) ;
#110 = LINE ( 'NONE', #318, #460 ) ;
#111 = LINE ( 'NONE', #435, #217 ) ;
#112 = ADVANCED_FACE ( 'NONE', ( #200 ), #606, .F. ) ;
#113 = ORIENTED_EDGE ( 'NONE', *, *, #391, .F. ) ;
#114 = FACE_OUTER_BOUND ( 'NONE', #309, .T. ) ;
#115 = DIRECTION ( 'NONE',  ( 0.000000000000000000, 0.000000000000000000, -1.000000000000000000 ) ) ;
#116 = LOCAL_TIME ( 13, 9, 48.00000000000000000, #48 ) ;
#117 = DIRECTION ( 'NONE',  ( 0.8660254037844374864, 0.5000000000000018874, 0.000000000000000000 ) ) ;
#118 = ORIENTED_EDGE ( 'NONE', *, *, #19, .T. ) ;
#119 = EDGE_CURVE ( 'NONE', #55, #397, #659, .T. ) ;
#120 = ORIENTED_EDGE ( 'NONE', *, *, #343, .T. ) ;
#121 = ORIENTED_EDGE ( 'NONE', *, *, #588, .T. ) ;
#122 = CARTESIAN_POINT ( 'NONE',  ( -38.65545054398578628, 28.69811014715808639, -46.46617726287428241 ) ) ;
#123 = DIRECTION ( 'NONE',  ( 0.5000000000000013323, -0.8660254037844379305, 0.000000000000000000 ) ) ;
#124 = AXIS2_PLACEMENT_3D ( 'NONE', #193, #295, #299 ) ;
#125 = ADVANCED_FACE ( 'NONE', ( #398 ), #349, .F. ) ;
#126 = AXIS2_PLACEMENT_3D ( 'NONE', #8, #14, #224 ) ;
#127 = CC_DESIGN_DATE_AND_TIME_ASSIGNMENT ( #363, #610, ( #472 ) ) ;
#128 = DIRECTION ( 'NONE',  ( 0.5000000000000013323, -0.8660254037844379305, 0.000000000000000000 ) ) ;
#129 = ORIENTED_EDGE ( 'NONE', *, *, #343, .F. ) ;
#130 = DIRECTION ( 'NONE',  ( 0.8660254037844380415, 0.5000000000000012212, 0.000000000000000000 ) ) ;
#131 = CARTESIAN_POINT ( 'NONE',  ( -28.87735090288161288, 11.76194476729466132, 15.00000000000000355 ) ) ;
#132 = VECTOR ( 'NONE', #387, 1000.000000000000000 ) ;
#133 = CARTESIAN_POINT ( 'NONE',  ( -15.07735090288456981, 22.77499999999999858, 4.077215302224865577E-06 ) ) ;
#134 = FACE_OUTER_BOUND ( 'NONE', #104, .T. ) ;
#135 = FACE_BOUND ( 'NONE', #170, .T. ) ;
#136 = VERTEX_POINT ( 'NONE', #658 ) ;
#137 = AXIS2_PLACEMENT_3D ( 'NONE', #452, #145, #457 ) ;
#138 = ADVANCED_FACE ( 'NONE', ( #558 ), #662, .F. ) ;
#139 = PLANE ( 'NONE',  #561 ) ;
#140 = ADVANCED_BREP_SHAPE_REPRESENTATION ( '12121212', ( #416, #383 ), #410 ) ;
#141 = DIRECTION ( 'NONE',  ( 1.000000000000000000, 0.000000000000000000, -0.000000000000000000 ) ) ;
#142 = DIRECTION ( 'NONE',  ( 0.000000000000000000, -1.000000000000000000, 0.000000000000000000 ) ) ;
#143 = CIRCLE ( 'NONE', #642, 2.999999999998933742 ) ;
#144 = CC_DESIGN_APPROVAL ( #73, ( #472 ) ) ;
#145 = DIRECTION ( 'NONE',  ( 0.000000000000000000, 1.000000000000000000, 0.000000000000000000 ) ) ;
#146 = CARTESIAN_POINT ( 'NONE',  ( 0.000000000000000000, 0.000000000000000000, 0.000000000000000000 ) ) ;
#147 = CARTESIAN_POINT ( 'NONE',  ( -1.220944442333533386, 22.77499999999999858, -11.99999592278469862 ) ) ;
#148 = DATE_AND_TIME ( #161, #116 ) ;
#149 = EDGE_CURVE ( 'NONE', #411, #574, #86, .T. ) ;
#150 = EDGE_CURVE ( 'NONE', #397, #55, #175, .T. ) ;
#151 = CLOSED_SHELL ( 'NONE', ( #350, #16, #496, #600, #634, #138, #29, #178, #228, #239, #669, #425, #511, #614, #45, #112, #125, #482, #333 ) ) ;
#152 = ORIENTED_EDGE ( 'NONE', *, *, #534, .T. ) ;
#153 = DIRECTION ( 'NONE',  ( 0.8660254037844378194, 0.5000000000000015543, 0.000000000000000000 ) ) ;
#154 = CARTESIAN_POINT ( 'NONE',  ( -20.52735090288298636, -2.224999999999999645, -5.349999999998930278 ) ) ;
#155 = CALENDAR_DATE ( 2025, 11, 7 ) ;
#156 = CIRCLE ( 'NONE', #648, 2.999999999998933742 ) ;
#157 = ORIENTED_EDGE ( 'NONE', *, *, #407, .F. ) ;
#158 = CARTESIAN_POINT ( 'NONE',  ( -20.52735090288298636, -2.224999999999999645, 0.000000000000000000 ) ) ;
#159 = EDGE_LOOP ( 'NONE', ( #120, #166, #552, #327 ) ) ;
#160 = CARTESIAN_POINT ( 'NONE',  ( -20.52735090288298636, 11.27500000000000036, 0.000000000000000000 ) ) ;
#161 = CALENDAR_DATE ( 2025, 11, 7 ) ;
#162 = ORIENTED_EDGE ( 'NONE', *, *, #253, .F. ) ;
#163 = ORIENTED_EDGE ( 'NONE', *, *, #150, .F. ) ;
#164 = CARTESIAN_POINT ( 'NONE',  ( -3.999996468861495291, 15.58845930682369385, 4.077215301490078048E-06 ) ) ;
#165 = ORIENTED_EDGE ( 'NONE', *, *, #227, .F. ) ;
#166 = ORIENTED_EDGE ( 'NONE', *, *, #500, .F. ) ;
#167 = DIRECTION ( 'NONE',  ( 0.000000000000000000, -1.000000000000000000, 0.000000000000000000 ) ) ;
#168 = CYLINDRICAL_SURFACE ( 'NONE', #126, 3.950000000000001510 ) ;
#169 = EDGE_CURVE ( 'NONE', #264, #651, #351, .T. ) ;
#170 = EDGE_LOOP ( 'NONE', ( #628, #211 ) ) ;
#171 = ORIENTED_EDGE ( 'NONE', *, *, #60, .F. ) ;
#172 = ORIENTED_EDGE ( 'NONE', *, *, #371, .F. ) ;
#173 = CARTESIAN_POINT ( 'NONE',  ( -9.196148891568123318, 12.58845930682368497, 4.077215302224865577E-06 ) ) ;
#174 = LINE ( 'NONE', #329, #33 ) ;
#175 = CIRCLE ( 'NONE', #548, 5.349999999998930278 ) ;
#176 = CARTESIAN_POINT ( 'NONE',  ( -3.999996468861495291, 15.58845930682369207, 4.077215301490078048E-06 ) ) ;
#177 = CARTESIAN_POINT ( 'NONE',  ( -26.57548726823986840, 7.774999999999998579, -15.00000000000000000 ) ) ;
#178 = ADVANCED_FACE ( 'NONE', ( #90, #560, #557 ), #505, .F. ) ;
#179 = CC_DESIGN_PERSON_AND_ORGANIZATION_ASSIGNMENT ( #251, #209, ( #263 ) ) ;
#180 = LINE ( 'NONE', #594, #53 ) ;
#181 = CARTESIAN_POINT ( 'NONE',  ( -22.85224534236190053, 18.24150403784435071, 15.00000000000000000 ) ) ;
#182 = AXIS2_PLACEMENT_3D ( 'NONE', #176, #541, #25 ) ;
#183 = CARTESIAN_POINT ( 'NONE',  ( -16.80940641863813312, 7.775000000000000355, -3.846997376144390302 ) ) ;
#184 = DIRECTION ( 'NONE',  ( 0.5000000000000013323, -0.8660254037844379305, 0.000000000000000000 ) ) ;
#185 = CARTESIAN_POINT ( 'NONE',  ( -3.999996468861495291, 15.58845930682369385, 4.077215301490078048E-06 ) ) ;
#186 = CARTESIAN_POINT ( 'NONE',  ( 12.99038105676654453, 16.16025403784442105, 15.00000000000000000 ) ) ;
#187 = EDGE_CURVE ( 'NONE', #583, #531, #578, .T. ) ;
#188 = CARTESIAN_POINT ( 'NONE',  ( -7.420796813810024872, 13.61345930682368710, 4.077215301973813482E-06 ) ) ;
#189 = AXIS2_PLACEMENT_3D ( 'NONE', #498, #438, #601 ) ;
#190 = EDGE_CURVE ( 'NONE', #375, #264, #47, .T. ) ;
#191 = CIRCLE ( 'NONE', #96, 2.999999999998933742 ) ;
#192 = CARTESIAN_POINT ( 'NONE',  ( -12.47927586857744053, 30.27500203870378925, 4.077215301490078048E-06 ) ) ;
#193 = CARTESIAN_POINT ( 'NONE',  ( -20.52735090288298636, 11.27500000000000036, 0.000000000000000000 ) ) ;
#194 = ORIENTED_EDGE ( 'NONE', *, *, #187, .T. ) ;
#195 = DIRECTION ( 'NONE',  ( 0.5000000000000002220, -0.8660254037844384856, 0.000000000000000000 ) ) ;
#196 = UNCERTAINTY_MEASURE_WITH_UNIT (LENGTH_MEASURE( 1.000000000000000082E-05 ), #218, 'distance_accuracy_value', 'NONE');
#197 = LINE ( 'NONE', #302, #617 ) ;
#198 = COORDINATED_UNIVERSAL_TIME_OFFSET ( 3, 0, .BEHIND. ) ;
#199 = CIRCLE ( 'NONE', #377, 3.949999999999999734 ) ;
#200 = FACE_OUTER_BOUND ( 'NONE', #464, .T. ) ;
#201 = APPROVAL_ROLE ( '' ) ;
#202 = EDGE_CURVE ( 'NONE', #527, #212, #191, .T. ) ;
#203 = CARTESIAN_POINT ( 'NONE',  ( -15.07735090288456981, 22.77499999999999858, 4.077215302224865577E-06 ) ) ;
#204 = DIRECTION ( 'NONE',  ( 0.000000000000000000, -1.000000000000000000, 0.000000000000000000 ) ) ;
#205 = DIRECTION ( 'NONE',  ( 1.000000000000000000, 0.000000000000000000, 0.000000000000000000 ) ) ;
#206 = ORIENTED_EDGE ( 'NONE', *, *, #604, .T. ) ;
#207 = FACE_OUTER_BOUND ( 'NONE', #225, .T. ) ;
#208 = CARTESIAN_POINT ( 'NONE',  ( -16.80940641863812957, 7.774999999999996803, -15.00000000000028066 ) ) ;
#209 = PERSON_AND_ORGANIZATION_ROLE ( 'creator' ) ;
#210 = ORIENTED_EDGE ( 'NONE', *, *, #303, .F. ) ;
#211 = ORIENTED_EDGE ( 'NONE', *, *, #40, .F. ) ;
#212 = VERTEX_POINT ( 'NONE', #630 ) ;
#213 = CARTESIAN_POINT ( 'NONE',  ( 3.531138515269760525E-06, 8.660256076548190407, 4.077215301490078048E-06 ) ) ;
#214 = ORIENTED_EDGE ( 'NONE', *, *, #649, .F. ) ;
#215 = VERTEX_POINT ( 'NONE', #616 ) ;
#216 = FACE_OUTER_BOUND ( 'NONE', #159, .T. ) ;
#217 = VECTOR ( 'NONE', #540, 1000.000000000000000 ) ;
#218 =( LENGTH_UNIT ( ) NAMED_UNIT ( * ) SI_UNIT ( .MILLI., .METRE. ) );
#219 = AXIS2_PLACEMENT_3D ( 'NONE', #641, #502, #23 ) ;
#220 = ORIENTED_EDGE ( 'NONE', *, *, #544, .F. ) ;
#221 = EDGE_LOOP ( 'NONE', ( #469, #430, #317, #368, #70, #54, #526, #473 ) ) ;
#222 = VERTEX_POINT ( 'NONE', #277 ) ;
#223 = DIRECTION ( 'NONE',  ( -0.000000000000000000, 0.000000000000000000, 1.000000000000000000 ) ) ;
#224 = DIRECTION ( 'NONE',  ( 0.8660254037844374864, 0.5000000000000018874, 0.000000000000000000 ) ) ;
#225 = EDGE_LOOP ( 'NONE', ( #622, #619, #163, #214 ) ) ;
#226 = DIRECTION ( 'NONE',  ( 0.000000000000000000, -1.000000000000000000, 0.000000000000000000 ) ) ;
#227 = EDGE_CURVE ( 'NONE', #631, #55, #528, .T. ) ;
#228 = ADVANCED_FACE ( 'NONE', ( #312, #620 ), #101, .F. ) ;
#229 = PLANE ( 'NONE',  #1 ) ;
#230 = CARTESIAN_POINT ( 'NONE',  ( -20.52735090288298636, 11.27500000000000036, 0.000000000000000000 ) ) ;
#231 = CARTESIAN_POINT ( 'NONE',  ( -15.07735090288456981, 22.77499999999999858, 4.077215302224865577E-06 ) ) ;
#232 = DIRECTION ( 'NONE',  ( -0.5000000000000003331, 0.8660254037844384856, -0.000000000000000000 ) ) ;
#233 = CARTESIAN_POINT ( 'NONE',  ( -20.52735090288298636, 7.775000000000000355, 0.000000000000000000 ) ) ;
#234 = VECTOR ( 'NONE', #69, 1000.000000000000000 ) ;
#235 = CC_DESIGN_PERSON_AND_ORGANIZATION_ASSIGNMENT ( #456, #93, ( #419 ) ) ;
#236 = CARTESIAN_POINT ( 'NONE',  ( -20.52735090288298636, 11.27500000000000036, 5.349999999998930278 ) ) ;
#237 = CARTESIAN_POINT ( 'NONE',  ( -16.80940641863813312, 7.775000000000000355, 14.99999999999985434 ) ) ;
#238 = CARTESIAN_POINT ( 'NONE',  ( 12.99038105676654453, 16.16025403784443526, -15.00000000000000000 ) ) ;
#239 = ADVANCED_FACE ( 'NONE', ( #362 ), #667, .T. ) ;
#240 = CYLINDRICAL_SURFACE ( 'NONE', #219, 6.000000000000002665 ) ;
#241 = ORIENTED_EDGE ( 'NONE', *, *, #244, .F. ) ;
#242 = AXIS2_PLACEMENT_3D ( 'NONE', #158, #629, #409 ) ;
#243 = LINE ( 'NONE', #131, #599 ) ;
#244 = EDGE_CURVE ( 'NONE', #310, #215, #562, .T. ) ;
#245 = VERTEX_POINT ( 'NONE', #356 ) ;
#246 = DIRECTION ( 'NONE',  ( -1.000000000000000000, -0.000000000000000000, 4.002214183576174738E-15 ) ) ;
#247 = PLANE ( 'NONE',  #124 ) ;
#248 = DIRECTION ( 'NONE',  ( 0.000000000000000000, 0.000000000000000000, 1.000000000000000000 ) ) ;
#249 = CARTESIAN_POINT ( 'NONE',  ( -15.00000000000000000, 22.77499999999999858, -15.00000000000000000 ) ) ;
#250 = EDGE_CURVE ( 'NONE', #245, #477, #156, .T. ) ;
#251 = PERSON_AND_ORGANIZATION ( #445, #372 ) ;
#252 = VECTOR ( 'NONE', #246, 1000.000000000000000 ) ;
#253 = EDGE_CURVE ( 'NONE', #222, #583, #378, .T. ) ;
#254 = ORIENTED_EDGE ( 'NONE', *, *, #358, .T. ) ;
#255 = EDGE_LOOP ( 'NONE', ( #306, #448 ) ) ;
#256 = DIRECTION ( 'NONE',  ( -0.000000000000000000, 1.000000000000000000, -0.000000000000000000 ) ) ;
#257 = CALENDAR_DATE ( 2025, 11, 7 ) ;
#258 = ORIENTED_EDGE ( 'NONE', *, *, #253, .T. ) ;
#259 = CARTESIAN_POINT ( 'NONE',  ( -14.49444985229604299, 3.765377609780321322, 1.609699256195029404 ) ) ;
#260 = LINE ( 'NONE', #323, #322 ) ;
#261 = APPROVAL_ROLE ( '' ) ;
#262 = CIRCLE ( 'NONE', #483, 6.000000000000001776 ) ;
#263 = PRODUCT_DEFINITION_FORMATION_WITH_SPECIFIED_SOURCE ( 'ANY', '', #419, .NOT_KNOWN. ) ;
#264 = VERTEX_POINT ( 'NONE', #208 ) ;
#265 = ORIENTED_EDGE ( 'NONE', *, *, #119, .T. ) ;
#266 = DIRECTION ( 'NONE',  ( 0.5000000000000015543, -0.8660254037844377084, -0.000000000000000000 ) ) ;
#267 = CARTESIAN_POINT ( 'NONE',  ( -15.07735090288456448, 22.77499999999999858, 12.00000407721530316 ) ) ;
#268 = ORIENTED_EDGE ( 'NONE', *, *, #461, .F. ) ;
#269 = ORIENTED_EDGE ( 'NONE', *, *, #604, .F. ) ;
#270 = CARTESIAN_POINT ( 'NONE',  ( -16.80940641863813312, 7.775000000000000355, -3.846997376144390302 ) ) ;
#271 = LINE ( 'NONE', #412, #27 ) ;
#272 = LINE ( 'NONE', #21, #503 ) ;
#273 = EDGE_CURVE ( 'NONE', #353, #305, #80, .T. ) ;
#274 = EDGE_CURVE ( 'NONE', #623, #520, #260, .T. ) ;
#275 = VECTOR ( 'NONE', #339, 1000.000000000000000 ) ;
#276 = EDGE_LOOP ( 'NONE', ( #440, #85, #59, #359 ) ) ;
#277 = CARTESIAN_POINT ( 'NONE',  ( 9.171355694895023447, 22.77499999999999858, -15.00000000000000000 ) ) ;
#278 =( NAMED_UNIT ( * ) SI_UNIT ( $, .STERADIAN. ) SOLID_ANGLE_UNIT ( ) );
#279 = AXIS2_PLACEMENT_3D ( 'NONE', #164, #465, #570 ) ;
#280 = DIRECTION ( 'NONE',  ( 0.000000000000000000, 0.000000000000000000, -1.000000000000000000 ) ) ;
#281 = CARTESIAN_POINT ( 'NONE',  ( -15.00000000000000000, 0.000000000000000000, 15.00000000000000000 ) ) ;
#282 = EDGE_LOOP ( 'NONE', ( #373, #665, #254, #367 ) ) ;
#283 = DIRECTION ( 'NONE',  ( -0.8660254037844379305, -0.5000000000000013323, -0.000000000000000000 ) ) ;
#284 = CARTESIAN_POINT ( 'NONE',  ( -20.52735090288298636, 7.775000000000000355, 5.349999999998930278 ) ) ;
#285 = VERTEX_POINT ( 'NONE', #63 ) ;
#286 = CARTESIAN_POINT ( 'NONE',  ( -16.80940641863813312, 7.775000000000000355, 3.846997376144390302 ) ) ;
#287 = APPROVAL_PERSON_ORGANIZATION ( #668, #73, #201 ) ;
#288 = AXIS2_PLACEMENT_3D ( 'NONE', #122, #532, #405 ) ;
#289 = CARTESIAN_POINT ( 'NONE',  ( -15.00000000000000000, 22.77499999999999858, 15.00000000000000000 ) ) ;
#290 = VERTEX_POINT ( 'NONE', #470 ) ;
#291 = EDGE_CURVE ( 'NONE', #574, #215, #271, .T. ) ;
#292 = DIRECTION ( 'NONE',  ( -0.000000000000000000, -0.000000000000000000, 1.000000000000000000 ) ) ;
#293 = APPROVAL ( #571, 'UNSPECIFIED' ) ;
#294 = DIRECTION ( 'NONE',  ( 1.000000000000000000, -0.000000000000000000, 1.156482317317860632E-16 ) ) ;
#295 = DIRECTION ( 'NONE',  ( 0.000000000000000000, -1.000000000000000000, 0.000000000000000000 ) ) ;
#296 = PERSON_AND_ORGANIZATION ( #445, #372 ) ;
#297 = VECTOR ( 'NONE', #72, 1000.000000000000000 ) ;
#298 = EDGE_CURVE ( 'NONE', #222, #623, #522, .T. ) ;
#299 = DIRECTION ( 'NONE',  ( 0.000000000000000000, -0.000000000000000000, -1.000000000000000000 ) ) ;
#300 = DATE_AND_TIME ( #155, #657 ) ;
#301 = VECTOR ( 'NONE', #292, 1000.000000000000000 ) ;
#302 = CARTESIAN_POINT ( 'NONE',  ( -15.46966045648248667, 7.775000000000000355, 14.99999999999984901 ) ) ;
#303 = EDGE_CURVE ( 'NONE', #527, #245, #110, .T. ) ;
#304 = DATE_AND_TIME ( #257, #57 ) ;
#305 = VERTEX_POINT ( 'NONE', #66 ) ;
#306 = ORIENTED_EDGE ( 'NONE', *, *, #661, .T. ) ;
#307 = DIRECTION ( 'NONE',  ( 0.8660254037844378194, 0.5000000000000016653, 0.000000000000000000 ) ) ;
#308 = SECURITY_CLASSIFICATION_LEVEL ( 'unclassified' ) ;
#309 = EDGE_LOOP ( 'NONE', ( #564, #129, #582, #572, #113, #46, #220 ) ) ;
#310 = VERTEX_POINT ( 'NONE', #173 ) ;
#311 = ORIENTED_EDGE ( 'NONE', *, *, #187, .F. ) ;
#312 = FACE_BOUND ( 'NONE', #6, .T. ) ;
#313 = DATE_AND_TIME ( #357, #608 ) ;
#314 = CC_DESIGN_DATE_AND_TIME_ASSIGNMENT ( #300, #406, ( #24 ) ) ;
#315 = VERTEX_POINT ( 'NONE', #475 ) ;
#316 = ORIENTED_EDGE ( 'NONE', *, *, #303, .T. ) ;
#317 = ORIENTED_EDGE ( 'NONE', *, *, #169, .F. ) ;
#318 = CARTESIAN_POINT ( 'NONE',  ( -20.52735090288298636, 33.94728714274446446, 2.999999999998933742 ) ) ;
#319 = CARTESIAN_POINT ( 'NONE',  ( -28.87735090288161288, 22.77499999999999858, 15.00000000000000000 ) ) ;
#320 = ORIENTED_EDGE ( 'NONE', *, *, #587, .T. ) ;
#321 = CARTESIAN_POINT ( 'NONE',  ( -14.49444985229604299, 3.765377609780320878, -1.609699256195028294 ) ) ;
#322 = VECTOR ( 'NONE', #366, 1000.000000000000227 ) ;
#323 = CARTESIAN_POINT ( 'NONE',  ( 3.128516771171228950, 33.24150403784440044, 15.00000000000000000 ) ) ;
#324 = DIRECTION ( 'NONE',  ( 0.000000000000000000, 1.000000000000000000, 0.000000000000000000 ) ) ;
#325 = ORIENTED_EDGE ( 'NONE', *, *, #169, .T. ) ;
#326 = ORIENTED_EDGE ( 'NONE', *, *, #488, .T. ) ;
#327 = ORIENTED_EDGE ( 'NONE', *, *, #654, .F. ) ;
#328 = DIRECTION ( 'NONE',  ( 0.000000000000000000, 1.000000000000000000, 0.000000000000000000 ) ) ;
#329 = CARTESIAN_POINT ( 'NONE',  ( -20.52735090288298636, -2.224999999999999645, 5.349999999998930278 ) ) ;
#330 = CIRCLE ( 'NONE', #31, 3.950000000000000622 ) ;
#331 = FACE_OUTER_BOUND ( 'NONE', #474, .T. ) ;
#332 = DIRECTION ( 'NONE',  ( 0.5000000000000015543, -0.8660254037844377084, 0.000000000000000000 ) ) ;
#333 = ADVANCED_FACE ( 'NONE', ( #216 ), #423, .F. ) ;
#334 = LINE ( 'NONE', #281, #88 ) ;
#335 = CARTESIAN_POINT ( 'NONE',  ( 3.420803876087046724, 10.63525607654819360, 4.077215301490078048E-06 ) ) ;
#336 = DIRECTION ( 'NONE',  ( 1.000000000000000000, 0.000000000000000000, 0.000000000000000000 ) ) ;
#337 = CIRCLE ( 'NONE', #37, 5.349999999998930278 ) ;
#338 = DIRECTION ( 'NONE',  ( 0.000000000000000000, -1.000000000000000000, 0.000000000000000000 ) ) ;
#339 = DIRECTION ( 'NONE',  ( 0.000000000000000000, 0.000000000000000000, -1.000000000000000000 ) ) ;
#340 = CARTESIAN_POINT ( 'NONE',  ( -28.87735090288160933, 22.77499999999999858, -15.00000000000028066 ) ) ;
#341 = ORIENTED_EDGE ( 'NONE', *, *, #534, .F. ) ;
#342 = VECTOR ( 'NONE', #39, 1000.000000000000227 ) ;
#343 = EDGE_CURVE ( 'NONE', #290, #315, #384, .T. ) ;
#344 = DIRECTION ( 'NONE',  ( -0.000000000000000000, -1.000000000000000000, -0.000000000000000000 ) ) ;
#345 = ORIENTED_EDGE ( 'NONE', *, *, #244, .T. ) ;
#346 = CARTESIAN_POINT ( 'NONE',  ( -20.52735090288298636, 11.27500000000000036, 0.000000000000000000 ) ) ;
#347 = DIRECTION ( 'NONE',  ( -1.000000000000000000, -0.000000000000000000, 4.002214183576174738E-15 ) ) ;
#348 = CC_DESIGN_SECURITY_CLASSIFICATION ( #472, ( #263 ) ) ;
#349 = PLANE ( 'NONE',  #79 ) ;
#350 = ADVANCED_FACE ( 'NONE', ( #331 ), #494, .F. ) ;
#351 = LINE ( 'NONE', #35, #252 ) ;
#352 = PERSON_AND_ORGANIZATION ( #445, #372 ) ;
#353 = VERTEX_POINT ( 'NONE', #335 ) ;
#354 = ORIENTED_EDGE ( 'NONE', *, *, #291, .F. ) ;
#355 = AXIS2_PLACEMENT_3D ( 'NONE', #13, #7, #625 ) ;
#356 = CARTESIAN_POINT ( 'NONE',  ( -20.52735090288298636, 11.27500000000000036, 2.999999999998933742 ) ) ;
#357 = CALENDAR_DATE ( 2025, 11, 7 ) ;
#358 = EDGE_CURVE ( 'NONE', #305, #353, #199, .T. ) ;
#359 = ORIENTED_EDGE ( 'NONE', *, *, #273, .T. ) ;
#360 = ORIENTED_EDGE ( 'NONE', *, *, #291, .T. ) ;
#361 = ORIENTED_EDGE ( 'NONE', *, *, #119, .F. ) ;
#362 = FACE_OUTER_BOUND ( 'NONE', #426, .T. ) ;
#363 = DATE_AND_TIME ( #400, #580 ) ;
#364 = ORIENTED_EDGE ( 'NONE', *, *, #358, .F. ) ;
#365 = EDGE_LOOP ( 'NONE', ( #326, #51, #152, #311 ) ) ;
#366 = DIRECTION ( 'NONE',  ( 0.5000000000000015543, -0.8660254037844377084, -0.000000000000000000 ) ) ;
#367 = ORIENTED_EDGE ( 'NONE', *, *, #611, .F. ) ;
#368 = ORIENTED_EDGE ( 'NONE', *, *, #190, .F. ) ;
#369 = DIRECTION ( 'NONE',  ( -0.5000000000000015543, 0.8660254037844377084, 0.000000000000000000 ) ) ;
#370 = DIRECTION ( 'NONE',  ( 0.000000000000000000, 1.000000000000000000, 0.000000000000000000 ) ) ;
#371 = EDGE_CURVE ( 'NONE', #477, #245, #143, .T. ) ;
#372 = ORGANIZATION ( 'UNSPECIFIED', 'UNSPECIFIED', '' ) ;
#373 = ORIENTED_EDGE ( 'NONE', *, *, #392, .T. ) ;
#374 = ORIENTED_EDGE ( 'NONE', *, *, #60, .T. ) ;
#375 = VERTEX_POINT ( 'NONE', #183 ) ;
#376 = AXIS2_PLACEMENT_3D ( 'NONE', #91, #504, #42 ) ;
#377 = AXIS2_PLACEMENT_3D ( 'NONE', #591, #128, #130 ) ;
#378 = LINE ( 'NONE', #633, #449 ) ;
#379 = EDGE_CURVE ( 'NONE', #512, #305, #180, .T. ) ;
#380 = DIRECTION ( 'NONE',  ( 0.5000000000000013323, -0.8660254037844379305, -0.000000000000000000 ) ) ;
#381 = LINE ( 'NONE', #593, #297 ) ;
#382 = FACE_OUTER_BOUND ( 'NONE', #99, .T. ) ;
#383 = AXIS2_PLACEMENT_3D ( 'NONE', #146, #248, #205 ) ;
#384 = LINE ( 'NONE', #75, #401 ) ;
#385 = DIRECTION ( 'NONE',  ( -0.000000000000000000, -1.000000000000000000, -0.000000000000000000 ) ) ;
#386 = FACE_OUTER_BOUND ( 'NONE', #44, .T. ) ;
#387 = DIRECTION ( 'NONE',  ( -1.156482317317860632E-16, 0.000000000000000000, 1.000000000000000000 ) ) ;
#388 = VECTOR ( 'NONE', #336, 1000.000000000000000 ) ;
#389 = CIRCLE ( 'NONE', #189, 5.349999999998930278 ) ;
#390 = LINE ( 'NONE', #551, #301 ) ;
#391 = EDGE_CURVE ( 'NONE', #520, #285, #334, .T. ) ;
#392 = EDGE_CURVE ( 'NONE', #576, #512, #471, .T. ) ;
#393 = ORIENTED_EDGE ( 'NONE', *, *, #650, .F. ) ;
#394 = VECTOR ( 'NONE', #518, 1000.000000000000000 ) ;
#395 = CARTESIAN_POINT ( 'NONE',  ( -20.52735090288298636, 7.775000000000000355, 0.000000000000000000 ) ) ;
#396 = LINE ( 'NONE', #402, #501 ) ;
#397 = VERTEX_POINT ( 'NONE', #236 ) ;
#398 = FACE_OUTER_BOUND ( 'NONE', #408, .T. ) ;
#399 = LINE ( 'NONE', #609, #431 ) ;
#400 = CALENDAR_DATE ( 2025, 11, 7 ) ;
#401 = VECTOR ( 'NONE', #232, 1000.000000000000114 ) ;
#402 = CARTESIAN_POINT ( 'NONE',  ( -20.52735090288298636, 33.94728714274446446, -2.999999999998933742 ) ) ;
#403 = APPROVAL_DATE_TIME ( #313, #73 ) ;
#404 = DIRECTION ( 'NONE',  ( 0.000000000000000000, 0.000000000000000000, 1.000000000000000000 ) ) ;
#405 = DIRECTION ( 'NONE',  ( -0.5000000000000002220, 0.8660254037844384856, 0.000000000000000000 ) ) ;
#406 = DATE_TIME_ROLE ( 'creation_date' ) ;
#407 = EDGE_CURVE ( 'NONE', #264, #531, #442, .T. ) ;
#408 = EDGE_LOOP ( 'NONE', ( #206, #103, #493, #550 ) ) ;
#409 = DIRECTION ( 'NONE',  ( 0.000000000000000000, 0.000000000000000000, 1.000000000000000000 ) ) ;
#410 =( GEOMETRIC_REPRESENTATION_CONTEXT ( 3 ) GLOBAL_UNCERTAINTY_ASSIGNED_CONTEXT ( ( #196 ) ) GLOBAL_UNIT_ASSIGNED_CONTEXT ( ( #218, #538, #278 ) ) REPRESENTATION_CONTEXT ( 'NONE', 'WORKASPACE' ) );
#411 = VERTEX_POINT ( 'NONE', #133 ) ;
#412 = CARTESIAN_POINT ( 'NONE',  ( -11.30384404615490013, 40.23909440143465588, 4.077215301490078048E-06 ) ) ;
#413 = APPLICATION_PROTOCOL_DEFINITION ( 'international standard', 'config_control_design', 1994, #34 ) ;
#414 = ORIENTED_EDGE ( 'NONE', *, *, #202, .F. ) ;
#415 = ORIENTED_EDGE ( 'NONE', *, *, #149, .F. ) ;
#416 = MANIFOLD_SOLID_BREP ( 'Corte-extrus\X2\00e3\X0\o10', #151 ) ;
#417 = DIRECTION ( 'NONE',  ( 0.000000000000000000, 0.000000000000000000, -1.000000000000000000 ) ) ;
#418 = DIRECTION ( 'NONE',  ( 0.5000000000000013323, -0.8660254037844379305, 0.000000000000000000 ) ) ;
#419 = PRODUCT ( '12121212', '12121212', '', ( #519 ) ) ;
#420 = VECTOR ( 'NONE', #546, 1000.000000000000000 ) ;
#421 = ORIENTED_EDGE ( 'NONE', *, *, #488, .F. ) ;
#422 = ORIENTED_EDGE ( 'NONE', *, *, #19, .F. ) ;
#423 = PLANE ( 'NONE',  #288 ) ;
#424 = CARTESIAN_POINT ( 'NONE',  ( -20.52735090288298636, 7.775000000000000355, -5.349999999998930278 ) ) ;
#425 = ADVANCED_FACE ( 'NONE', ( #382 ), #597, .F. ) ;
#426 = EDGE_LOOP ( 'NONE', ( #664, #466, #421, #162 ) ) ;
#427 = CARTESIAN_POINT ( 'NONE',  ( -3.999996468861495291, 15.58845930682369207, 4.077215301490078048E-06 ) ) ;
#428 = DIRECTION ( 'NONE',  ( 0.000000000000000000, -0.000000000000000000, -1.000000000000000000 ) ) ;
#429 = EDGE_CURVE ( 'NONE', #222, #573, #536, .T. ) ;
#430 = ORIENTED_EDGE ( 'NONE', *, *, #654, .T. ) ;
#431 = VECTOR ( 'NONE', #195, 1000.000000000000114 ) ;
#432 = DIRECTION ( 'NONE',  ( 0.000000000000000000, -1.000000000000000000, 0.000000000000000000 ) ) ;
#433 = DIRECTION ( 'NONE',  ( 0.000000000000000000, -0.000000000000000000, 1.000000000000000000 ) ) ;
#434 = CARTESIAN_POINT ( 'NONE',  ( -16.49999646886152860, 37.23909440143464167, 4.077215301490078048E-06 ) ) ;
#435 = CARTESIAN_POINT ( 'NONE',  ( -28.87735090288160933, 31.27499999999999858, -15.00000000000028066 ) ) ;
#436 = CC_DESIGN_PERSON_AND_ORGANIZATION_ASSIGNMENT ( #508, #95, ( #24 ) ) ;
#437 = CARTESIAN_POINT ( 'NONE',  ( -20.52735090288298636, 33.94728714274446446, 0.000000000000000000 ) ) ;
#438 = DIRECTION ( 'NONE',  ( -0.000000000000000000, -1.000000000000000000, -0.000000000000000000 ) ) ;
#439 = AXIS2_PLACEMENT_3D ( 'NONE', #434, #380, #643 ) ;
#440 = ORIENTED_EDGE ( 'NONE', *, *, #379, .F. ) ;
#441 = APPROVAL_PERSON_ORGANIZATION ( #352, #49, #41 ) ;
#442 = LINE ( 'NONE', #487, #554 ) ;
#443 = DIRECTION ( 'NONE',  ( 0.000000000000000000, 0.000000000000000000, 1.000000000000000000 ) ) ;
#444 = CARTESIAN_POINT ( 'NONE',  ( -28.87735090288161288, 22.77499999999999858, -3.339614569016554140E-15 ) ) ;
#445 = PERSON ( 'UNSPECIFIED', 'UNSPECIFIED', 'UNSPECIFIED', ('UNSPECIFIED'), ('UNSPECIFIED'), ('UNSPECIFIED') ) ;
#446 = AXIS2_PLACEMENT_3D ( 'NONE', #479, #624, #12 ) ;
#447 = CARTESIAN_POINT ( 'NONE',  ( -12.99038105676658361, 1.160254037844387742, 15.00000000000000000 ) ) ;
#448 = ORIENTED_EDGE ( 'NONE', *, *, #149, .T. ) ;
#449 = VECTOR ( 'NONE', #266, 1000.000000000000227 ) ;
#450 = EDGE_CURVE ( 'NONE', #568, #517, #22, .T. ) ;
#451 = FACE_OUTER_BOUND ( 'NONE', #83, .T. ) ;
#452 = CARTESIAN_POINT ( 'NONE',  ( -20.52735090288298636, -2.224999999999999645, 0.000000000000000000 ) ) ;
#453 =( BOUNDED_CURVE ( )  B_SPLINE_CURVE ( 3, ( #577, #259, #321, #270 ),
 .UNSPECIFIED., .F., .T. ) 
 B_SPLINE_CURVE_WITH_KNOTS ( ( 4, 4 ),
 ( 2.339136807868586576, 3.944048499310999656 ),
 .UNSPECIFIED. ) 
 CURVE ( )  GEOMETRIC_REPRESENTATION_ITEM ( )  RATIONAL_B_SPLINE_CURVE ( ( 1.000000000000000000, 0.7966285961676755623, 0.7966285961676755623, 1.000000000000000000 ) ) 
 REPRESENTATION_ITEM ( '' )  );
#454 = CC_DESIGN_PERSON_AND_ORGANIZATION_ASSIGNMENT ( #506, #38, ( #263 ) ) ;
#455 = LINE ( 'NONE', #87, #342 ) ;
#456 = PERSON_AND_ORGANIZATION ( #445, #372 ) ;
#457 = DIRECTION ( 'NONE',  ( 0.000000000000000000, 0.000000000000000000, 1.000000000000000000 ) ) ;
#458 = APPROVAL_STATUS ( 'not_yet_approved' ) ;
#459 = AXIS2_PLACEMENT_3D ( 'NONE', #249, #404, #141 ) ;
#460 = VECTOR ( 'NONE', #56, 1000.000000000000000 ) ;
#461 = EDGE_CURVE ( 'NONE', #215, #310, #262, .T. ) ;
#462 = FACE_OUTER_BOUND ( 'NONE', #603, .T. ) ;
#463 = ORIENTED_EDGE ( 'NONE', *, *, #250, .F. ) ;
#464 = EDGE_LOOP ( 'NONE', ( #165, #320, #422, #108, #530, #361 ) ) ;
#465 = DIRECTION ( 'NONE',  ( 0.5000000000000013323, -0.8660254037844379305, 0.000000000000000000 ) ) ;
#466 = ORIENTED_EDGE ( 'NONE', *, *, #274, .T. ) ;
#467 = PLANE ( 'NONE',  #446 ) ;
#468 = VECTOR ( 'NONE', #529, 1000.000000000000000 ) ;
#469 = ORIENTED_EDGE ( 'NONE', *, *, #67, .T. ) ;
#470 = CARTESIAN_POINT ( 'NONE',  ( -26.57548726823986485, 7.774999999999998579, 15.00000000000000000 ) ) ;
#471 = CIRCLE ( 'NONE', #182, 3.950000000000000622 ) ;
#472 = SECURITY_CLASSIFICATION ( '', '', #308 ) ;
#473 = ORIENTED_EDGE ( 'NONE', *, *, #450, .F. ) ;
#474 = EDGE_LOOP ( 'NONE', ( #543, #316, #17, #171 ) ) ;
#475 = CARTESIAN_POINT ( 'NONE',  ( -28.87735090288161288, 11.76194476729466487, 15.00000000000000000 ) ) ;
#476 = FACE_OUTER_BOUND ( 'NONE', #276, .T. ) ;
#477 = VERTEX_POINT ( 'NONE', #491 ) ;
#478 = ORIENTED_EDGE ( 'NONE', *, *, #429, .F. ) ;
#479 = CARTESIAN_POINT ( 'NONE',  ( -15.00000000000000000, 22.77499999999999858, 15.00000000000000000 ) ) ;
#480 = CARTESIAN_POINT ( 'NONE',  ( -20.52735090288298636, 22.77499999999999858, 0.000000000000000000 ) ) ;
#481 = DIRECTION ( 'NONE',  ( 0.5000000000000013323, -0.8660254037844379305, -0.000000000000000000 ) ) ;
#482 = ADVANCED_FACE ( 'NONE', ( #386 ), #638, .F. ) ;
#483 = AXIS2_PLACEMENT_3D ( 'NONE', #185, #123, #20 ) ;
#484 = ORIENTED_EDGE ( 'NONE', *, *, #565, .F. ) ;
#485 = CARTESIAN_POINT ( 'NONE',  ( -15.00000000000000000, 0.000000000000000000, -15.00000000000000000 ) ) ;
#486 = VECTOR ( 'NONE', #328, 1000.000000000000000 ) ;
#487 = CARTESIAN_POINT ( 'NONE',  ( -22.85224534236190053, 18.24150403784435071, -15.00000000000000000 ) ) ;
#488 = EDGE_CURVE ( 'NONE', #583, #520, #390, .T. ) ;
#489 = FACE_OUTER_BOUND ( 'NONE', #221, .T. ) ;
#490 = PRODUCT_RELATED_PRODUCT_CATEGORY ( 'detail', '', ( #419 ) ) ;
#491 = CARTESIAN_POINT ( 'NONE',  ( -20.52735090288298636, 11.27500000000000036, -2.999999999998933742 ) ) ;
#492 = LINE ( 'NONE', #447, #275 ) ;
#493 = ORIENTED_EDGE ( 'NONE', *, *, #547, .F. ) ;
#494 = CYLINDRICAL_SURFACE ( 'NONE', #660, 2.999999999998933742 ) ;
#495 = DIRECTION ( 'NONE',  ( -1.156482317317860632E-16, 2.003086131649525736E-16, 1.000000000000000000 ) ) ;
#496 = ADVANCED_FACE ( 'NONE', ( #451 ), #240, .F. ) ;
#497 = AXIS2_PLACEMENT_3D ( 'NONE', #213, #418, #566 ) ;
#498 = CARTESIAN_POINT ( 'NONE',  ( -20.52735090288298636, 7.775000000000000355, 0.000000000000000000 ) ) ;
#499 = CARTESIAN_POINT ( 'NONE',  ( -3.999996468861495291, 15.58845930682369385, 4.077215301490078048E-06 ) ) ;
#500 = EDGE_CURVE ( 'NONE', #136, #315, #243, .T. ) ;
#501 = VECTOR ( 'NONE', #653, 1000.000000000000000 ) ;
#502 = DIRECTION ( 'NONE',  ( 0.5000000000000013323, -0.8660254037844379305, -0.000000000000000000 ) ) ;
#503 = VECTOR ( 'NONE', #481, 1000.000000000000000 ) ;
#504 = DIRECTION ( 'NONE',  ( 0.000000000000000000, -1.000000000000000000, 0.000000000000000000 ) ) ;
#505 = PLANE ( 'NONE',  #635 ) ;
#506 = PERSON_AND_ORGANIZATION ( #445, #372 ) ;
#507 = DIRECTION ( 'NONE',  ( 1.156482317317860632E-16, 0.000000000000000000, -1.000000000000000000 ) ) ;
#508 = PERSON_AND_ORGANIZATION ( #445, #372 ) ;
#509 = EDGE_CURVE ( 'NONE', #517, #563, #389, .T. ) ;
#510 = FACE_BOUND ( 'NONE', #513, .T. ) ;
#511 = ADVANCED_FACE ( 'NONE', ( #134, #135 ), #139, .F. ) ;
#512 = VERTEX_POINT ( 'NONE', #188 ) ;
#513 = EDGE_LOOP ( 'NONE', ( #172, #463 ) ) ;
#514 = DIRECTION ( 'NONE',  ( 0.000000000000000000, 0.000000000000000000, -1.000000000000000000 ) ) ;
#515 = APPROVAL_DATE_TIME ( #148, #293 ) ;
#516 = EDGE_LOOP ( 'NONE', ( #62, #118, #2, #109, #341, #61 ) ) ;
#517 = VERTEX_POINT ( 'NONE', #286 ) ;
#518 = DIRECTION ( 'NONE',  ( -0.8660254037844379305, -0.5000000000000013323, -0.000000000000000000 ) ) ;
#519 = MECHANICAL_CONTEXT ( 'NONE', #34, 'mechanical' ) ;
#520 = VERTEX_POINT ( 'NONE', #186 ) ;
#521 = ORIENTED_EDGE ( 'NONE', *, *, #544, .T. ) ;
#522 = LINE ( 'NONE', #575, #581 ) ;
#523 = VECTOR ( 'NONE', #18, 1000.000000000000000 ) ;
#524 = CARTESIAN_POINT ( 'NONE',  ( -1.220944442333532498, 22.77499999999999858, 4.077215301490078048E-06 ) ) ;
#525 = ORIENTED_EDGE ( 'NONE', *, *, #650, .T. ) ;
#526 = ORIENTED_EDGE ( 'NONE', *, *, #509, .F. ) ;
#527 = VERTEX_POINT ( 'NONE', #32 ) ;
#528 = LINE ( 'NONE', #154, #486 ) ;
#529 = DIRECTION ( 'NONE',  ( 0.000000000000000000, 0.000000000000000000, -1.000000000000000000 ) ) ;
#530 = ORIENTED_EDGE ( 'NONE', *, *, #649, .T. ) ;
#531 = VERTEX_POINT ( 'NONE', #84 ) ;
#532 = DIRECTION ( 'NONE',  ( 0.8660254037844385966, 0.5000000000000003331, 0.000000000000000000 ) ) ;
#533 = FACE_OUTER_BOUND ( 'NONE', #516, .T. ) ;
#534 = EDGE_CURVE ( 'NONE', #285, #531, #492, .T. ) ;
#535 = EDGE_CURVE ( 'NONE', #563, #631, #646, .T. ) ;
#536 = LINE ( 'NONE', #589, #523 ) ;
#537 = VECTOR ( 'NONE', #514, 1000.000000000000000 ) ;
#538 =( NAMED_UNIT ( * ) PLANE_ANGLE_UNIT ( ) SI_UNIT ( $, .RADIAN. ) );
#539 = DIRECTION ( 'NONE',  ( 0.5000000000000015543, -0.8660254037844377084, -0.000000000000000000 ) ) ;
#540 = DIRECTION ( 'NONE',  ( -0.000000000000000000, -1.000000000000000000, -0.000000000000000000 ) ) ;
#541 = DIRECTION ( 'NONE',  ( -0.5000000000000013323, 0.8660254037844379305, -0.000000000000000000 ) ) ;
#542 = CARTESIAN_POINT ( 'NONE',  ( -28.87735090288161288, 31.27499999999999858, 15.00000000000000000 ) ) ;
#543 = ORIENTED_EDGE ( 'NONE', *, *, #565, .T. ) ;
#544 = EDGE_CURVE ( 'NONE', #632, #623, #644, .T. ) ;
#545 = DIRECTION ( 'NONE',  ( 0.5000000000000013323, -0.8660254037844379305, 0.000000000000000000 ) ) ;
#546 = DIRECTION ( 'NONE',  ( -0.000000000000000000, -1.000000000000000000, -0.000000000000000000 ) ) ;
#547 = EDGE_CURVE ( 'NONE', #632, #315, #76, .T. ) ;
#548 = AXIS2_PLACEMENT_3D ( 'NONE', #346, #142, #612 ) ;
#549 = FACE_OUTER_BOUND ( 'NONE', #282, .T. ) ;
#550 = ORIENTED_EDGE ( 'NONE', *, *, #588, .F. ) ;
#551 = CARTESIAN_POINT ( 'NONE',  ( 12.99038105676654453, 16.16025403784443526, 15.00000000000000000 ) ) ;
#552 = ORIENTED_EDGE ( 'NONE', *, *, #98, .T. ) ;
#553 = CARTESIAN_POINT ( 'NONE',  ( -28.87735090288161288, 31.27499999999999858, 15.00000000000000000 ) ) ;
#554 = VECTOR ( 'NONE', #539, 1000.000000000000227 ) ;
#555 = DESIGN_CONTEXT ( 'detailed design', #81, 'design' ) ;
#556 = CC_DESIGN_APPROVAL ( #293, ( #24 ) ) ;
#557 = FACE_BOUND ( 'NONE', #50, .T. ) ;
#558 = FACE_OUTER_BOUND ( 'NONE', #107, .T. ) ;
#559 = COORDINATED_UNIVERSAL_TIME_OFFSET ( 3, 0, .BEHIND. ) ;
#560 = FACE_OUTER_BOUND ( 'NONE', #65, .T. ) ;
#561 = AXIS2_PLACEMENT_3D ( 'NONE', #499, #184, #598 ) ;
#562 = CIRCLE ( 'NONE', #279, 6.000000000000001776 ) ;
#563 = VERTEX_POINT ( 'NONE', #284 ) ;
#564 = ORIENTED_EDGE ( 'NONE', *, *, #547, .T. ) ;
#565 = EDGE_CURVE ( 'NONE', #212, #527, #627, .T. ) ;
#566 = DIRECTION ( 'NONE',  ( 0.8660254037844380415, 0.5000000000000012212, 0.000000000000000000 ) ) ;
#567 = COORDINATED_UNIVERSAL_TIME_OFFSET ( 3, 0, .BEHIND. ) ;
#568 = VERTEX_POINT ( 'NONE', #237 ) ;
#569 = ORIENTED_EDGE ( 'NONE', *, *, #298, .F. ) ;
#570 = DIRECTION ( 'NONE',  ( 0.8660254037844378194, 0.5000000000000014433, 0.000000000000000000 ) ) ;
#571 = APPROVAL_STATUS ( 'not_yet_approved' ) ;
#572 = ORIENTED_EDGE ( 'NONE', *, *, #97, .T. ) ;
#573 = VERTEX_POINT ( 'NONE', #340 ) ;
#574 = VERTEX_POINT ( 'NONE', #28 ) ;
#575 = CARTESIAN_POINT ( 'NONE',  ( 9.171355694895023447, 22.77499999999999858, 0.000000000000000000 ) ) ;
#576 = VERTEX_POINT ( 'NONE', #82 ) ;
#577 = CARTESIAN_POINT ( 'NONE',  ( -16.80940641863813312, 7.775000000000000355, 3.846997376144390302 ) ) ;
#578 = LINE ( 'NONE', #485, #394 ) ;
#579 = PLANE ( 'NONE',  #592 ) ;
#580 = LOCAL_TIME ( 13, 9, 48.00000000000000000, #198 ) ;
#581 = VECTOR ( 'NONE', #223, 1000.000000000000000 ) ;
#582 = ORIENTED_EDGE ( 'NONE', *, *, #67, .F. ) ;
#583 = VERTEX_POINT ( 'NONE', #238 ) ;
#584 = ORIENTED_EDGE ( 'NONE', *, *, #661, .F. ) ;
#585 = CARTESIAN_POINT ( 'NONE',  ( -16.80940641863813312, 7.775000000000000355, 15.00000000000000000 ) ) ;
#586 = CARTESIAN_POINT ( 'NONE',  ( -15.46966045648248667, 7.775000000000000355, 14.99999999999984901 ) ) ;
#587 = EDGE_CURVE ( 'NONE', #631, #375, #337, .T. ) ;
#588 = EDGE_CURVE ( 'NONE', #573, #632, #647, .T. ) ;
#589 = CARTESIAN_POINT ( 'NONE',  ( -15.00000000000000000, 22.77499999999999858, -15.00000000000000000 ) ) ;
#590 = CARTESIAN_POINT ( 'NONE',  ( 9.171355694895023447, 22.77499999999999858, 15.00000000000000000 ) ) ;
#591 = CARTESIAN_POINT ( 'NONE',  ( 3.531138515269760525E-06, 8.660256076548190407, 4.077215301490078048E-06 ) ) ;
#592 = AXIS2_PLACEMENT_3D ( 'NONE', #181, #637, #332 ) ;
#593 = CARTESIAN_POINT ( 'NONE',  ( -9.058475523628910508, 32.25000203870379778, 4.077215301490078048E-06 ) ) ;
#594 = CARTESIAN_POINT ( 'NONE',  ( -15.90007621352597056, 28.30000203870378428, 4.077215301973813482E-06 ) ) ;
#595 = DIRECTION ( 'NONE',  ( 0.000000000000000000, 0.000000000000000000, 1.000000000000000000 ) ) ;
#596 = AXIS2_PLACEMENT_3D ( 'NONE', #192, #602, #117 ) ;
#597 = CYLINDRICAL_SURFACE ( 'NONE', #439, 6.000000000000002665 ) ;
#598 = DIRECTION ( 'NONE',  ( 0.8660254037844379305, 0.5000000000000013323, 0.000000000000000000 ) ) ;
#599 = VECTOR ( 'NONE', #495, 1000.000000000000000 ) ;
#600 = ADVANCED_FACE ( 'NONE', ( #549 ), #645, .F. ) ;
#601 = DIRECTION ( 'NONE',  ( -2.593979029498548116E-15, 0.000000000000000000, 1.000000000000000000 ) ) ;
#602 = DIRECTION ( 'NONE',  ( 0.5000000000000013323, -0.8660254037844379305, 0.000000000000000000 ) ) ;
#603 = EDGE_LOOP ( 'NONE', ( #666, #265 ) ) ;
#604 = EDGE_CURVE ( 'NONE', #573, #136, #111, .T. ) ;
#605 = CC_DESIGN_PERSON_AND_ORGANIZATION_ASSIGNMENT ( #663, #655, ( #472 ) ) ;
#606 = CYLINDRICAL_SURFACE ( 'NONE', #137, 5.349999999998930278 ) ;
#607 = CARTESIAN_POINT ( 'NONE',  ( -1.220944442333532498, 22.77499999999999858, 4.077215301490078048E-06 ) ) ;
#608 = LOCAL_TIME ( 13, 9, 48.00000000000000000, #567 ) ;
#609 = CARTESIAN_POINT ( 'NONE',  ( -38.65545054398578628, 28.69811014715808639, -15.00000000000000000 ) ) ;
#610 = DATE_TIME_ROLE ( 'classification_date' ) ;
#611 = EDGE_CURVE ( 'NONE', #576, #353, #381, .T. ) ;
#612 = DIRECTION ( 'NONE',  ( 0.000000000000000000, 0.000000000000000000, -1.000000000000000000 ) ) ;
#613 = SHAPE_DEFINITION_REPRESENTATION ( #626, #140 ) ;
#614 = ADVANCED_FACE ( 'NONE', ( #489 ), #229, .F. ) ;
#615 = CARTESIAN_POINT ( 'NONE',  ( -15.07735090288456803, 22.77499999999999858, -11.99999592278469862 ) ) ;
#616 = CARTESIAN_POINT ( 'NONE',  ( 1.196155953845135622, 18.58845930682370096, 4.077215301490078048E-06 ) ) ;
#617 = VECTOR ( 'NONE', #347, 1000.000000000000000 ) ;
#618 = ORIENTED_EDGE ( 'NONE', *, *, #371, .T. ) ;
#619 = ORIENTED_EDGE ( 'NONE', *, *, #227, .T. ) ;
#620 = FACE_OUTER_BOUND ( 'NONE', #365, .T. ) ;
#621 = APPLICATION_PROTOCOL_DEFINITION ( 'international standard', 'config_control_design', 1994, #81 ) ;
#622 = ORIENTED_EDGE ( 'NONE', *, *, #535, .T. ) ;
#623 = VERTEX_POINT ( 'NONE', #590 ) ;
#624 = DIRECTION ( 'NONE',  ( 0.000000000000000000, 0.000000000000000000, -1.000000000000000000 ) ) ;
#625 = DIRECTION ( 'NONE',  ( -0.8660254037844379305, -0.5000000000000013323, 0.000000000000000000 ) ) ;
#626 = PRODUCT_DEFINITION_SHAPE ( 'NONE', 'NONE',  #24 ) ;
#627 = CIRCLE ( 'NONE', #92, 2.999999999998933742 ) ;
#628 = ORIENTED_EDGE ( 'NONE', *, *, #392, .F. ) ;
#629 = DIRECTION ( 'NONE',  ( 0.000000000000000000, 1.000000000000000000, 0.000000000000000000 ) ) ;
#630 = CARTESIAN_POINT ( 'NONE',  ( -20.52735090288298636, 22.77499999999999858, -2.999999999998933742 ) ) ;
#631 = VERTEX_POINT ( 'NONE', #424 ) ;
#632 = VERTEX_POINT ( 'NONE', #319 ) ;
#633 = CARTESIAN_POINT ( 'NONE',  ( 3.128516771171228950, 33.24150403784440044, -15.00000000000000000 ) ) ;
#634 = ADVANCED_FACE ( 'NONE', ( #533 ), #579, .T. ) ;
#635 = AXIS2_PLACEMENT_3D ( 'NONE', #36, #167, #428 ) ;
#636 = CARTESIAN_POINT ( 'NONE',  ( -16.80940641863813312, 7.775000000000000355, 15.00000000000000000 ) ) ;
#637 = DIRECTION ( 'NONE',  ( -0.8660254037844378194, -0.5000000000000016653, 0.000000000000000000 ) ) ;
#638 = CYLINDRICAL_SURFACE ( 'NONE', #15, 2.999999999998933742 ) ;
#639 = CARTESIAN_POINT ( 'NONE',  ( -26.57548726823986840, 7.775000000000000355, 14.99999999999984901 ) ) ;
#640 = CARTESIAN_POINT ( 'NONE',  ( -20.52735090288298636, 33.94728714274446446, 0.000000000000000000 ) ) ;
#641 = CARTESIAN_POINT ( 'NONE',  ( -16.49999646886152860, 37.23909440143464167, 4.077215301490078048E-06 ) ) ;
#642 = AXIS2_PLACEMENT_3D ( 'NONE', #230, #226, #71 ) ;
#643 = DIRECTION ( 'NONE',  ( 0.8660254037844378194, 0.5000000000000014433, 0.000000000000000000 ) ) ;
#644 = LINE ( 'NONE', #289, #388 ) ;
#645 = CYLINDRICAL_SURFACE ( 'NONE', #596, 3.950000000000001510 ) ;
#646 = CIRCLE ( 'NONE', #9, 5.349999999998930278 ) ;
#647 = LINE ( 'NONE', #444, #132 ) ;
#648 = AXIS2_PLACEMENT_3D ( 'NONE', #160, #204, #115 ) ;
#649 = EDGE_CURVE ( 'NONE', #563, #397, #174, .T. ) ;
#650 = EDGE_CURVE ( 'NONE', #411, #310, #272, .T. ) ;
#651 = VERTEX_POINT ( 'NONE', #177 ) ;
#652 = CARTESIAN_POINT ( 'NONE',  ( -20.52735090288298636, 11.27500000000000036, -5.349999999998930278 ) ) ;
#653 = DIRECTION ( 'NONE',  ( 0.000000000000000000, -1.000000000000000000, 0.000000000000000000 ) ) ;
#654 = EDGE_CURVE ( 'NONE', #290, #651, #58, .T. ) ;
#655 = PERSON_AND_ORGANIZATION_ROLE ( 'classification_officer' ) ;
#656 =( BOUNDED_CURVE ( )  B_SPLINE_CURVE ( 3, ( #524, #64, #267, #231 ),
 .UNSPECIFIED., .F., .T. ) 
 B_SPLINE_CURVE_WITH_KNOTS ( ( 4, 4 ),
 ( 0.000000000000000000, 3.141592653589793116 ),
 .UNSPECIFIED. ) 
 CURVE ( )  GEOMETRIC_REPRESENTATION_ITEM ( )  RATIONAL_B_SPLINE_CURVE ( ( 1.000000000000000000, 0.3333333333333333703, 0.3333333333333333703, 1.000000000000000000 ) ) 
 REPRESENTATION_ITEM ( '' )  );
#657 = LOCAL_TIME ( 13, 9, 48.00000000000000000, #106 ) ;
#658 = CARTESIAN_POINT ( 'NONE',  ( -28.87735090288160578, 11.76194476729465066, -15.00000000000000000 ) ) ;
#659 = CIRCLE ( 'NONE', #376, 5.349999999998930278 ) ;
#660 = AXIS2_PLACEMENT_3D ( 'NONE', #640, #432, #280 ) ;
#661 = EDGE_CURVE ( 'NONE', #574, #411, #656, .T. ) ;
#662 = PLANE ( 'NONE',  #459 ) ;
#663 = PERSON_AND_ORGANIZATION ( #445, #372 ) ;
#664 = ORIENTED_EDGE ( 'NONE', *, *, #298, .T. ) ;
#665 = ORIENTED_EDGE ( 'NONE', *, *, #379, .T. ) ;
#666 = ORIENTED_EDGE ( 'NONE', *, *, #150, .T. ) ;
#667 = PLANE ( 'NONE',  #68 ) ;
#668 = PERSON_AND_ORGANIZATION ( #445, #372 ) ;
#669 = ADVANCED_FACE ( 'NONE', ( #476 ), #168, .F. ) ;
ENDSEC;
END-ISO-10303-21;
