ISO-10303-21;
HEADER;
FILE_DESCRIPTION (( 'STEP AP203' ),
    '1' );
FILE_NAME ('1313133.STEP',
    '2025-07-11T16:10:09',
    ( '' ),
    ( '' ),
    'SwSTEP 2.0',
    'SolidWorks 2024',
    '' );
FILE_SCHEMA (( 'CONFIG_CONTROL_DESIGN' ));
ENDSEC;

DATA;
#1 = DIRECTION ( 'NONE',  ( 0.5000000000000013323, -0.8660254037844379305, 0.000000000000000000 ) ) ;
#2 = VERTEX_POINT ( 'NONE', #516 ) ;
#3 = CARTESIAN_POINT ( 'NONE',  ( 23.80707608561449007, 22.77499999999999858, 0.000000000000000000 ) ) ;
#4 = VECTOR ( 'NONE', #326, 1000.000000000000000 ) ;
#5 = ORIENTED_EDGE ( 'NONE', *, *, #82, .T. ) ;
#6 = CARTESIAN_POINT ( 'NONE',  ( 5.221968449243830079, -3.225000000000002309, 14.99845991764480679 ) ) ;
#7 = ORIENTED_EDGE ( 'NONE', *, *, #493, .T. ) ;
#8 = FACE_OUTER_BOUND ( 'NONE', #468, .T. ) ;
#9 = EDGE_CURVE ( 'NONE', #527, #609, #281, .T. ) ;
#10 = FACE_BOUND ( 'NONE', #266, .T. ) ;
#11 = ORIENTED_EDGE ( 'NONE', *, *, #383, .T. ) ;
#12 = CIRCLE ( 'NONE', #456, 3.950000000000000622 ) ;
#13 = ADVANCED_FACE ( 'NONE', ( #219 ), #321, .F. ) ;
#14 = EDGE_CURVE ( 'NONE', #458, #290, #156, .T. ) ;
#15 = DIRECTION ( 'NONE',  ( 1.000000000000000000, 0.000000000000000000, 0.000000000000000000 ) ) ;
#16 = EDGE_CURVE ( 'NONE', #471, #582, #557, .T. ) ;
#17 = CARTESIAN_POINT ( 'NONE',  ( -24.47499957288086492, 21.05219681330052239, -15.00000000000000000 ) ) ;
#18 = ORIENTED_EDGE ( 'NONE', *, *, #83, .T. ) ;
#19 = FACE_OUTER_BOUND ( 'NONE', #336, .T. ) ;
#20 = LINE ( 'NONE', #118, #286 ) ;
#21 = CARTESIAN_POINT ( 'NONE',  ( -15.07735090288456981, 22.77499999999999858, 4.077215302224865577E-06 ) ) ;
#22 = EDGE_LOOP ( 'NONE', ( #479, #323, #11, #197 ) ) ;
#23 = APPROVAL_PERSON_ORGANIZATION ( #395, #385, #346 ) ;
#24 = CARTESIAN_POINT ( 'NONE',  ( 30.15707608561450215, 15.27500000000000036, -37.28565593195450845 ) ) ;
#25 = CIRCLE ( 'NONE', #276, 2.999999999999993783 ) ;
#26 = DIRECTION ( 'NONE',  ( 2.309522458705388000E-16, -1.000000000000000000, -0.000000000000000000 ) ) ;
#27 = ORIENTED_EDGE ( 'NONE', *, *, #572, .T. ) ;
#28 = CARTESIAN_POINT ( 'NONE',  ( 27.15707608561450215, 18.77500000000000568, 0.000000000000000000 ) ) ;
#29 = EDGE_LOOP ( 'NONE', ( #359, #332 ) ) ;
#30 = CLOSED_SHELL ( 'NONE', ( #147, #612, #13, #247, #307, #311, #201, #452, #544, #55, #248, #126, #607, #426, #85, #264, #152, #132, #427 ) ) ;
#31 = DIRECTION ( 'NONE',  ( 1.000000000000000000, 0.000000000000000000, -0.000000000000000000 ) ) ;
#32 = FACE_OUTER_BOUND ( 'NONE', #215, .T. ) ;
#33 = VECTOR ( 'NONE', #523, 1000.000000000000000 ) ;
#34 = EDGE_CURVE ( 'NONE', #284, #408, #529, .T. ) ;
#35 = LINE ( 'NONE', #431, #488 ) ;
#36 = CC_DESIGN_PERSON_AND_ORGANIZATION_ASSIGNMENT ( #145, #187, ( #639 ) ) ;
#37 = PERSON_AND_ORGANIZATION_ROLE ( 'classification_officer' ) ;
#38 = CARTESIAN_POINT ( 'NONE',  ( 30.15707608561450215, 22.77499999999999858, -15.00000000000000000 ) ) ;
#39 = CIRCLE ( 'NONE', #405, 6.350000000000001421 ) ;
#40 = DATE_AND_TIME ( #190, #301 ) ;
#41 = CARTESIAN_POINT ( 'NONE',  ( 20.80707608561449717, 22.77499999999999858, 0.000000000000000000 ) ) ;
#42 = ORIENTED_EDGE ( 'NONE', *, *, #545, .T. ) ;
#43 = APPROVAL_DATE_TIME ( #634, #567 ) ;
#44 = PRODUCT_DEFINITION_SHAPE ( 'NONE', 'NONE',  #223 ) ;
#45 = UNCERTAINTY_MEASURE_WITH_UNIT (LENGTH_MEASURE( 1.000000000000000082E-05 ), #432, 'distance_accuracy_value', 'NONE');
#46 = LINE ( 'NONE', #100, #193 ) ;
#47 = AXIS2_PLACEMENT_3D ( 'NONE', #443, #341, #96 ) ;
#48 = PLANE ( 'NONE',  #47 ) ;
#49 = DIRECTION ( 'NONE',  ( 2.309522458705388000E-16, -1.000000000000000000, 0.000000000000000000 ) ) ;
#50 = ORIENTED_EDGE ( 'NONE', *, *, #78, .F. ) ;
#51 = CARTESIAN_POINT ( 'NONE',  ( 20.80707608561449362, 44.77500000000000568, 0.000000000000000000 ) ) ;
#52 = EDGE_LOOP ( 'NONE', ( #124, #425 ) ) ;
#53 = CARTESIAN_POINT ( 'NONE',  ( 30.15707608561450215, 15.27500000000000036, 15.00000000000000000 ) ) ;
#54 = ORIENTED_EDGE ( 'NONE', *, *, #587, .T. ) ;
#55 = ADVANCED_FACE ( 'NONE', ( #19 ), #629, .F. ) ;
#56 = LINE ( 'NONE', #113, #422 ) ;
#57 = PERSON ( 'UNSPECIFIED', 'UNSPECIFIED', 'UNSPECIFIED', ('UNSPECIFIED'), ('UNSPECIFIED'), ('UNSPECIFIED') ) ;
#58 = DIRECTION ( 'NONE',  ( 0.000000000000000000, -1.000000000000000000, 0.000000000000000000 ) ) ;
#59 = VECTOR ( 'NONE', #501, 1000.000000000000000 ) ;
#60 = ORIENTED_EDGE ( 'NONE', *, *, #14, .F. ) ;
#61 = EDGE_CURVE ( 'NONE', #148, #258, #115, .T. ) ;
#62 = LINE ( 'NONE', #412, #642 ) ;
#63 = DIRECTION ( 'NONE',  ( 2.309522458705388000E-16, -1.000000000000000000, 0.000000000000000000 ) ) ;
#64 = AXIS2_PLACEMENT_3D ( 'NONE', #419, #31, #565 ) ;
#65 = ORIENTED_EDGE ( 'NONE', *, *, #61, .F. ) ;
#66 = DIRECTION ( 'NONE',  ( 1.000000000000000000, 2.309522458705388000E-16, 0.000000000000000000 ) ) ;
#67 = LINE ( 'NONE', #467, #119 ) ;
#68 = ORIENTED_EDGE ( 'NONE', *, *, #493, .F. ) ;
#69 = DIRECTION ( 'NONE',  ( 1.000000000000000000, 2.731847993664262725E-16, 0.000000000000000000 ) ) ;
#70 = VECTOR ( 'NONE', #322, 1000.000000000000000 ) ;
#71 = ORIENTED_EDGE ( 'NONE', *, *, #177, .F. ) ;
#72 = VERTEX_POINT ( 'NONE', #165 ) ;
#73 = CARTESIAN_POINT ( 'NONE',  ( 20.80707608561449717, 22.77499999999999858, 0.000000000000000000 ) ) ;
#74 = ORIENTED_EDGE ( 'NONE', *, *, #128, .T. ) ;
#75 = CARTESIAN_POINT ( 'NONE',  ( -12.99038105676658361, 1.160254037844387742, 15.00000000000000000 ) ) ;
#76 = ORIENTED_EDGE ( 'NONE', *, *, #465, .T. ) ;
#77 = CARTESIAN_POINT ( 'NONE',  ( 30.15707608561450215, 22.77499999999999858, 15.00000000000000000 ) ) ;
#78 = EDGE_CURVE ( 'NONE', #527, #350, #512, .T. ) ;
#79 = AXIS2_PLACEMENT_3D ( 'NONE', #390, #478, #288 ) ;
#80 = CARTESIAN_POINT ( 'NONE',  ( -3.999996468861495291, 15.58845930682369207, 4.077215301490078048E-06 ) ) ;
#81 = FACE_OUTER_BOUND ( 'NONE', #510, .T. ) ;
#82 = EDGE_CURVE ( 'NONE', #514, #258, #56, .T. ) ;
#83 = EDGE_CURVE ( 'NONE', #72, #640, #451, .T. ) ;
#84 = VERTEX_POINT ( 'NONE', #216 ) ;
#85 = ADVANCED_FACE ( 'NONE', ( #8 ), #131, .F. ) ;
#86 = VECTOR ( 'NONE', #259, 1000.000000000000000 ) ;
#87 = COORDINATED_UNIVERSAL_TIME_OFFSET ( 3, 0, .BEHIND. ) ;
#88 = DIRECTION ( 'NONE',  ( -0.8660254037844379305, -0.5000000000000013323, -0.000000000000000000 ) ) ;
#89 = CALENDAR_DATE ( 2025, 11, 7 ) ;
#90 = CARTESIAN_POINT ( 'NONE',  ( 17.80707608561450428, 18.77500000000000568, 3.673940397442054938E-16 ) ) ;
#91 = ORIENTED_EDGE ( 'NONE', *, *, #361, .F. ) ;
#92 =( GEOMETRIC_REPRESENTATION_CONTEXT ( 3 ) GLOBAL_UNCERTAINTY_ASSIGNED_CONTEXT ( ( #45 ) ) GLOBAL_UNIT_ASSIGNED_CONTEXT ( ( #432, #141, #535 ) ) REPRESENTATION_CONTEXT ( 'NONE', 'WORKASPACE' ) );
#93 = PERSON_AND_ORGANIZATION ( #57, #207 ) ;
#94 = LINE ( 'NONE', #331, #560 ) ;
#95 = ORIENTED_EDGE ( 'NONE', *, *, #406, .F. ) ;
#96 = DIRECTION ( 'NONE',  ( 0.000000000000000000, -0.000000000000000000, -1.000000000000000000 ) ) ;
#97 = ORIENTED_EDGE ( 'NONE', *, *, #421, .T. ) ;
#98 = COORDINATED_UNIVERSAL_TIME_OFFSET ( 3, 0, .BEHIND. ) ;
#99 = VECTOR ( 'NONE', #401, 1000.000000000000000 ) ;
#100 = CARTESIAN_POINT ( 'NONE',  ( 14.45707608561450108, 18.77500000000000568, 7.776507174585695121E-16 ) ) ;
#101 = CARTESIAN_POINT ( 'NONE',  ( 5.221968449243830079, 11.67515892771508490, 14.99999999999999645 ) ) ;
#102 = ORIENTED_EDGE ( 'NONE', *, *, #383, .F. ) ;
#103 = FACE_BOUND ( 'NONE', #52, .T. ) ;
#104 = CC_DESIGN_PERSON_AND_ORGANIZATION_ASSIGNMENT ( #93, #628, ( #223 ) ) ;
#105 = ORIENTED_EDGE ( 'NONE', *, *, #591, .T. ) ;
#106 = DIRECTION ( 'NONE',  ( 2.309522458705388000E-16, -1.000000000000000000, -0.000000000000000000 ) ) ;
#107 = EDGE_LOOP ( 'NONE', ( #550, #5, #76, #343 ) ) ;
#108 = LOCAL_TIME ( 13, 10, 9.000000000000000000, #195 ) ;
#109 = CARTESIAN_POINT ( 'NONE',  ( 20.80707608561450073, 15.27500000000000568, 0.000000000000000000 ) ) ;
#110 = CARTESIAN_POINT ( 'NONE',  ( 5.221968449243830079, 22.77499999999999858, 14.99845991764480679 ) ) ;
#111 = AXIS2_PLACEMENT_3D ( 'NONE', #492, #635, #546 ) ;
#112 = VERTEX_POINT ( 'NONE', #77 ) ;
#113 = CARTESIAN_POINT ( 'NONE',  ( 17.80707608561450073, 44.77500000000000568, 3.673940397442052472E-16 ) ) ;
#114 = DIRECTION ( 'NONE',  ( 0.000000000000000000, -0.000000000000000000, -1.000000000000000000 ) ) ;
#115 = CIRCLE ( 'NONE', #344, 2.999999999999992450 ) ;
#116 = ORIENTED_EDGE ( 'NONE', *, *, #342, .T. ) ;
#117 = CARTESIAN_POINT ( 'NONE',  ( 14.45707608561449931, 18.77500000000000568, 7.776507174585697093E-16 ) ) ;
#118 = CARTESIAN_POINT ( 'NONE',  ( 30.15707608561450215, 22.77499999999999858, -37.28565593195450845 ) ) ;
#119 = VECTOR ( 'NONE', #568, 1000.000000000000000 ) ;
#120 = CARTESIAN_POINT ( 'NONE',  ( 20.80707608561449362, 44.77500000000000568, 0.000000000000000000 ) ) ;
#121 = DIRECTION ( 'NONE',  ( 0.5000000000000013323, -0.8660254037844379305, 0.000000000000000000 ) ) ;
#122 = ORIENTED_EDGE ( 'NONE', *, *, #540, .F. ) ;
#123 = DIRECTION ( 'NONE',  ( 0.000000000000000000, 0.000000000000000000, 1.000000000000000000 ) ) ;
#124 = ORIENTED_EDGE ( 'NONE', *, *, #34, .F. ) ;
#125 = CARTESIAN_POINT ( 'NONE',  ( 17.80707608561450073, 22.77499999999999858, 3.673940397442054938E-16 ) ) ;
#126 = ADVANCED_FACE ( 'NONE', ( #32, #504 ), #308, .F. ) ;
#127 = VERTEX_POINT ( 'NONE', #117 ) ;
#128 = EDGE_CURVE ( 'NONE', #626, #112, #508, .T. ) ;
#129 = CARTESIAN_POINT ( 'NONE',  ( 5.221968449243493460, 11.67515892771489128, -15.00000000000030198 ) ) ;
#130 = EDGE_LOOP ( 'NONE', ( #95, #171 ) ) ;
#131 = PLANE ( 'NONE',  #200 ) ;
#132 = ADVANCED_FACE ( 'NONE', ( #469, #81 ), #424, .T. ) ;
#133 = AXIS2_PLACEMENT_3D ( 'NONE', #437, #246, #533 ) ;
#134 = FACE_OUTER_BOUND ( 'NONE', #416, .T. ) ;
#135 = ORIENTED_EDGE ( 'NONE', *, *, #613, .T. ) ;
#136 = DIRECTION ( 'NONE',  ( 0.000000000000000000, 0.000000000000000000, 1.000000000000000000 ) ) ;
#137 = DIRECTION ( 'NONE',  ( 0.000000000000000000, 0.000000000000000000, 1.000000000000000000 ) ) ;
#138 = ORIENTED_EDGE ( 'NONE', *, *, #572, .F. ) ;
#139 = PLANE ( 'NONE',  #111 ) ;
#140 = VERTEX_POINT ( 'NONE', #28 ) ;
#141 =( NAMED_UNIT ( * ) PLANE_ANGLE_UNIT ( ) SI_UNIT ( $, .RADIAN. ) );
#142 = DIRECTION ( 'NONE',  ( 0.5000000000000013323, -0.8660254037844379305, 0.000000000000000000 ) ) ;
#143 = CARTESIAN_POINT ( 'NONE',  ( -7.741943840170796953, 4.190440677670830283, 12.72151107542524251 ) ) ;
#144 = AXIS2_PLACEMENT_3D ( 'NONE', #280, #314, #183 ) ;
#145 = PERSON_AND_ORGANIZATION ( #57, #207 ) ;
#146 = DIRECTION ( 'NONE',  ( 0.000000000000000000, 0.000000000000000000, 1.000000000000000000 ) ) ;
#147 = ADVANCED_FACE ( 'NONE', ( #579 ), #606, .F. ) ;
#148 = VERTEX_POINT ( 'NONE', #360 ) ;
#149 = CIRCLE ( 'NONE', #348, 2.999999999999993783 ) ;
#150 = CARTESIAN_POINT ( 'NONE',  ( -1.220944442333533386, 22.77499999999999858, 12.00000407721530316 ) ) ;
#151 = ORIENTED_EDGE ( 'NONE', *, *, #470, .T. ) ;
#152 = ADVANCED_FACE ( 'NONE', ( #162 ), #566, .F. ) ;
#153 = PRODUCT_RELATED_PRODUCT_CATEGORY ( 'detail', '', ( #584 ) ) ;
#154 = DIRECTION ( 'NONE',  ( 2.309522458705388000E-16, -1.000000000000000000, -0.000000000000000000 ) ) ;
#155 = ORIENTED_EDGE ( 'NONE', *, *, #364, .T. ) ;
#156 = LINE ( 'NONE', #300, #59 ) ;
#157 = AXIS2_PLACEMENT_3D ( 'NONE', #457, #449, #209 ) ;
#158 = CARTESIAN_POINT ( 'NONE',  ( -1.220944442333532498, 22.77499999999999858, 4.077215301490078048E-06 ) ) ;
#159 = ORIENTED_EDGE ( 'NONE', *, *, #78, .T. ) ;
#160 = FACE_OUTER_BOUND ( 'NONE', #262, .T. ) ;
#161 = ORIENTED_EDGE ( 'NONE', *, *, #83, .F. ) ;
#162 = FACE_OUTER_BOUND ( 'NONE', #22, .T. ) ;
#163 = CARTESIAN_POINT ( 'NONE',  ( 20.80707608561449717, 18.77500000000000568, 0.000000000000000000 ) ) ;
#164 = ORIENTED_EDGE ( 'NONE', *, *, #310, .T. ) ;
#165 = CARTESIAN_POINT ( 'NONE',  ( -15.07735090288456981, 22.77499999999999858, 4.077215302224865577E-06 ) ) ;
#166 = AXIS2_PLACEMENT_3D ( 'NONE', #455, #180, #525 ) ;
#167 = DIRECTION ( 'NONE',  ( 1.000000000000000000, 2.731847993664262725E-16, 0.000000000000000000 ) ) ;
#168 = LINE ( 'NONE', #75, #70 ) ;
#169 = ORIENTED_EDGE ( 'NONE', *, *, #406, .T. ) ;
#170 = DIRECTION ( 'NONE',  ( 2.309522458705388000E-16, -1.000000000000000000, 0.000000000000000000 ) ) ;
#171 = ORIENTED_EDGE ( 'NONE', *, *, #9, .F. ) ;
#172 = AXIS2_PLACEMENT_3D ( 'NONE', #515, #526, #278 ) ;
#173 = EDGE_CURVE ( 'NONE', #370, #489, #275, .T. ) ;
#174 = CARTESIAN_POINT ( 'NONE',  ( -0.5791961239129620465, 17.56345930682369527, 4.077215301490078048E-06 ) ) ;
#175 = ORIENTED_EDGE ( 'NONE', *, *, #313, .T. ) ;
#176 = EDGE_CURVE ( 'NONE', #402, #84, #466, .T. ) ;
#177 = EDGE_CURVE ( 'NONE', #225, #498, #62, .T. ) ;
#178 = PLANE ( 'NONE',  #236 ) ;
#179 = EDGE_LOOP ( 'NONE', ( #169, #159, #454, #122 ) ) ;
#180 = DIRECTION ( 'NONE',  ( 0.5000000000000013323, -0.8660254037844379305, 0.000000000000000000 ) ) ;
#181 = VECTOR ( 'NONE', #358, 1000.000000000000000 ) ;
#182 = CARTESIAN_POINT ( 'NONE',  ( 0.000000000000000000, 0.000000000000000000, 0.000000000000000000 ) ) ;
#183 = DIRECTION ( 'NONE',  ( 0.8660254037844379305, 0.5000000000000013323, 0.000000000000000000 ) ) ;
#184 = PERSON_AND_ORGANIZATION ( #57, #207 ) ;
#185 = CARTESIAN_POINT ( 'NONE',  ( -3.420796813810014214, 6.685256076548181881, 4.077215301973813482E-06 ) ) ;
#186 = ORIENTED_EDGE ( 'NONE', *, *, #376, .F. ) ;
#187 = PERSON_AND_ORGANIZATION_ROLE ( 'design_supplier' ) ;
#188 = CARTESIAN_POINT ( 'NONE',  ( -15.00000000000000000, 0.000000000000000000, -15.00000000000000000 ) ) ;
#189 = ORIENTED_EDGE ( 'NONE', *, *, #9, .T. ) ;
#190 = CALENDAR_DATE ( 2025, 11, 7 ) ;
#191 = CC_DESIGN_APPROVAL ( #567, ( #223 ) ) ;
#192 = CARTESIAN_POINT ( 'NONE',  ( -15.00000000000000000, 0.000000000000000000, 15.00000000000000000 ) ) ;
#193 = VECTOR ( 'NONE', #441, 1000.000000000000000 ) ;
#194 = EDGE_CURVE ( 'NONE', #399, #489, #366, .T. ) ;
#195 = COORDINATED_UNIVERSAL_TIME_OFFSET ( 3, 0, .BEHIND. ) ;
#196 = CARTESIAN_POINT ( 'NONE',  ( 27.15707608561450215, 15.27500000000000746, 0.000000000000000000 ) ) ;
#197 = ORIENTED_EDGE ( 'NONE', *, *, #34, .T. ) ;
#198 = EDGE_CURVE ( 'NONE', #127, #408, #46, .T. ) ;
#199 = EDGE_CURVE ( 'NONE', #370, #402, #94, .T. ) ;
#200 = AXIS2_PLACEMENT_3D ( 'NONE', #564, #211, #263 ) ;
#201 = ADVANCED_FACE ( 'NONE', ( #483, #202, #393 ), #48, .F. ) ;
#202 = FACE_BOUND ( 'NONE', #644, .T. ) ;
#203 = ORIENTED_EDGE ( 'NONE', *, *, #244, .F. ) ;
#204 = DIRECTION ( 'NONE',  ( 0.8660254037844378194, 0.5000000000000014433, 0.000000000000000000 ) ) ;
#205 = ORIENTED_EDGE ( 'NONE', *, *, #591, .F. ) ;
#206 = CARTESIAN_POINT ( 'NONE',  ( -16.49999646886152860, 37.23909440143464167, 4.077215301490078048E-06 ) ) ;
#207 = ORGANIZATION ( 'UNSPECIFIED', 'UNSPECIFIED', '' ) ;
#208 = CARTESIAN_POINT ( 'NONE',  ( -15.07735090288456981, 22.77499999999999858, 4.077215302224865577E-06 ) ) ;
#209 = DIRECTION ( 'NONE',  ( -0.8660254037844379305, -0.5000000000000013323, 0.000000000000000000 ) ) ;
#210 = ORIENTED_EDGE ( 'NONE', *, *, #472, .T. ) ;
#211 = DIRECTION ( 'NONE',  ( 1.000000000000000000, 0.000000000000000000, -1.121696530518871266E-14 ) ) ;
#212 = APPROVAL_DATE_TIME ( #588, #267 ) ;
#213 = PLANE ( 'NONE',  #157 ) ;
#214 = VECTOR ( 'NONE', #154, 1000.000000000000000 ) ;
#215 = EDGE_LOOP ( 'NONE', ( #205, #68 ) ) ;
#216 = CARTESIAN_POINT ( 'NONE',  ( -24.47499957288086492, 22.77499999999999858, -15.00000000000000178 ) ) ;
#217 = CARTESIAN_POINT ( 'NONE',  ( -3.999996468861495291, 15.58845930682369207, 4.077215301490078048E-06 ) ) ;
#218 = VECTOR ( 'NONE', #414, 1000.000000000000000 ) ;
#219 = FACE_OUTER_BOUND ( 'NONE', #339, .T. ) ;
#220 = DIRECTION ( 'NONE',  ( 1.000000000000000000, 0.000000000000000000, 0.000000000000000000 ) ) ;
#221 = LINE ( 'NONE', #129, #353 ) ;
#222 = ORIENTED_EDGE ( 'NONE', *, *, #470, .F. ) ;
#223 = PRODUCT_DEFINITION ( 'UNKNOWN', '', #639, #440 ) ;
#224 = PLANE ( 'NONE',  #64 ) ;
#225 = VERTEX_POINT ( 'NONE', #347 ) ;
#226 = APPROVAL_PERSON_ORGANIZATION ( #532, #267, #436 ) ;
#227 = FACE_OUTER_BOUND ( 'NONE', #624, .T. ) ;
#228 = ORIENTED_EDGE ( 'NONE', *, *, #490, .F. ) ;
#229 = AXIS2_PLACEMENT_3D ( 'NONE', #238, #142, #585 ) ;
#230 = ORIENTED_EDGE ( 'NONE', *, *, #16, .T. ) ;
#231 = CARTESIAN_POINT ( 'NONE',  ( 30.15707608561450215, 15.27500000000000036, 15.00000000000000000 ) ) ;
#232 = DIRECTION ( 'NONE',  ( -0.5000000000000013323, 0.8660254037844379305, -0.000000000000000000 ) ) ;
#233 = DIRECTION ( 'NONE',  ( 2.309522458705388000E-16, -1.000000000000000000, -0.000000000000000000 ) ) ;
#234 = ORIENTED_EDGE ( 'NONE', *, *, #356, .T. ) ;
#235 = CARTESIAN_POINT ( 'NONE',  ( 30.15707608561450215, 22.77499999999999858, 15.00000000000000000 ) ) ;
#236 = AXIS2_PLACEMENT_3D ( 'NONE', #274, #316, #618 ) ;
#237 = MECHANICAL_CONTEXT ( 'NONE', #597, 'mechanical' ) ;
#238 = CARTESIAN_POINT ( 'NONE',  ( 3.531138515269760525E-06, 8.660256076548190407, 4.077215301490078048E-06 ) ) ;
#239 = APPROVAL_STATUS ( 'not_yet_approved' ) ;
#240 = CARTESIAN_POINT ( 'NONE',  ( 11.45707608561451174, 15.27500000000000036, -37.28565593195450845 ) ) ;
#241 = CIRCLE ( 'NONE', #601, 3.949999999999999734 ) ;
#242 = PERSON_AND_ORGANIZATION_ROLE ( 'creator' ) ;
#243 = PLANE ( 'NONE',  #394 ) ;
#244 = EDGE_CURVE ( 'NONE', #377, #514, #25, .T. ) ;
#245 = APPROVAL_DATE_TIME ( #40, #385 ) ;
#246 = DIRECTION ( 'NONE',  ( 0.5000000000000013323, -0.8660254037844379305, -0.000000000000000000 ) ) ;
#247 = ADVANCED_FACE ( 'NONE', ( #646 ), #593, .F. ) ;
#248 = ADVANCED_FACE ( 'NONE', ( #134 ), #590, .F. ) ;
#249 = LINE ( 'NONE', #188, #378 ) ;
#250 = AXIS2_PLACEMENT_3D ( 'NONE', #428, #409, #66 ) ;
#251 = DIRECTION ( 'NONE',  ( 1.000000000000000000, 0.000000000000000000, 0.000000000000000000 ) ) ;
#252 = EDGE_LOOP ( 'NONE', ( #27, #554, #297, #97, #365 ) ) ;
#253 = FACE_OUTER_BOUND ( 'NONE', #446, .T. ) ;
#254 = ORIENTED_EDGE ( 'NONE', *, *, #313, .F. ) ;
#255 = ORIENTED_EDGE ( 'NONE', *, *, #521, .F. ) ;
#256 = DIRECTION ( 'NONE',  ( 2.309522458705388000E-16, -1.000000000000000000, 0.000000000000000000 ) ) ;
#257 = CARTESIAN_POINT ( 'NONE',  ( -15.00000000000000000, 22.77499999999999858, 15.00000000000000000 ) ) ;
#258 = VERTEX_POINT ( 'NONE', #90 ) ;
#259 = DIRECTION ( 'NONE',  ( -0.000000000000000000, 1.000000000000000000, -0.000000000000000000 ) ) ;
#260 = EDGE_CURVE ( 'NONE', #350, #503, #442, .T. ) ;
#261 = DIRECTION ( 'NONE',  ( 0.5000000000000013323, -0.8660254037844379305, 0.000000000000000000 ) ) ;
#262 = EDGE_LOOP ( 'NONE', ( #450, #203, #234, #312 ) ) ;
#263 = DIRECTION ( 'NONE',  ( -1.121696530518871266E-14, 0.000000000000000000, -1.000000000000000000 ) ) ;
#264 = ADVANCED_FACE ( 'NONE', ( #434 ), #537, .T. ) ;
#265 = LINE ( 'NONE', #614, #4 ) ;
#266 = EDGE_LOOP ( 'NONE', ( #534, #270 ) ) ;
#267 = APPROVAL ( #239, 'UNSPECIFIED' ) ;
#268 = CIRCLE ( 'NONE', #632, 6.000000000000001776 ) ;
#269 = LINE ( 'NONE', #417, #33 ) ;
#270 = ORIENTED_EDGE ( 'NONE', *, *, #260, .F. ) ;
#271 = DIRECTION ( 'NONE',  ( 0.000000000000000000, 0.000000000000000000, -1.000000000000000000 ) ) ;
#272 = ORIENTED_EDGE ( 'NONE', *, *, #199, .T. ) ;
#273 = LOCAL_TIME ( 13, 10, 9.000000000000000000, #282 ) ;
#274 = CARTESIAN_POINT ( 'NONE',  ( -22.85224534236190053, 18.24150403784435071, 15.00000000000000000 ) ) ;
#275 = LINE ( 'NONE', #324, #218 ) ;
#276 = AXIS2_PLACEMENT_3D ( 'NONE', #41, #283, #338 ) ;
#277 = ORIENTED_EDGE ( 'NONE', *, *, #421, .F. ) ;
#278 = DIRECTION ( 'NONE',  ( 1.000000000000000000, 0.000000000000000000, 0.000000000000000000 ) ) ;
#279 = ORIENTED_EDGE ( 'NONE', *, *, #587, .F. ) ;
#280 = CARTESIAN_POINT ( 'NONE',  ( -3.999996468861495291, 15.58845930682369385, 4.077215301490078048E-06 ) ) ;
#281 = CIRCLE ( 'NONE', #645, 3.950000000000000622 ) ;
#282 = COORDINATED_UNIVERSAL_TIME_OFFSET ( 3, 0, .BEHIND. ) ;
#283 = DIRECTION ( 'NONE',  ( 0.000000000000000000, -1.000000000000000000, 0.000000000000000000 ) ) ;
#284 = VERTEX_POINT ( 'NONE', #196 ) ;
#285 = LINE ( 'NONE', #38, #610 ) ;
#286 = VECTOR ( 'NONE', #123, 1000.000000000000000 ) ;
#287 = APPROVAL_STATUS ( 'not_yet_approved' ) ;
#288 = DIRECTION ( 'NONE',  ( 0.8660254037844374864, 0.5000000000000018874, 0.000000000000000000 ) ) ;
#289 = EDGE_CURVE ( 'NONE', #2, #631, #285, .T. ) ;
#290 = VERTEX_POINT ( 'NONE', #396 ) ;
#291 = APPROVAL_STATUS ( 'not_yet_approved' ) ;
#292 = CC_DESIGN_PERSON_AND_ORGANIZATION_ASSIGNMENT ( #480, #340, ( #584 ) ) ;
#293 = DIRECTION ( 'NONE',  ( 0.000000000000000000, -1.000000000000000000, 0.000000000000000000 ) ) ;
#294 = VECTOR ( 'NONE', #309, 1000.000000000000000 ) ;
#295 = DIRECTION ( 'NONE',  ( 0.000000000000000000, 0.000000000000000000, 1.000000000000000000 ) ) ;
#296 = LINE ( 'NONE', #257, #181 ) ;
#297 = ORIENTED_EDGE ( 'NONE', *, *, #199, .F. ) ;
#298 = CARTESIAN_POINT ( 'NONE',  ( 23.80707608561448296, 44.77500000000000568, 0.000000000000000000 ) ) ;
#299 = ORIENTED_EDGE ( 'NONE', *, *, #176, .T. ) ;
#300 = CARTESIAN_POINT ( 'NONE',  ( -11.30384404615490013, 40.23909440143465588, 4.077215301490078048E-06 ) ) ;
#301 = LOCAL_TIME ( 13, 10, 9.000000000000000000, #87 ) ;
#302 = DIRECTION ( 'NONE',  ( 1.000000000000000000, -0.000000000000000000, -0.000000000000000000 ) ) ;
#303 = EDGE_LOOP ( 'NONE', ( #541, #54, #91, #620 ) ) ;
#304 = DIRECTION ( 'NONE',  ( 0.5000000000000013323, -0.8660254037844379305, 0.000000000000000000 ) ) ;
#305 = AXIS2_PLACEMENT_3D ( 'NONE', #120, #233, #15 ) ;
#306 = CARTESIAN_POINT ( 'NONE',  ( -20.37104955572153386, 13.94394687185743287, 2.815307447474037605 ) ) ;
#307 = ADVANCED_FACE ( 'NONE', ( #581 ), #243, .F. ) ;
#308 = PLANE ( 'NONE',  #144 ) ;
#309 = DIRECTION ( 'NONE',  ( -0.000000000000000000, 1.000000000000000000, -0.000000000000000000 ) ) ;
#310 = EDGE_CURVE ( 'NONE', #518, #399, #531, .T. ) ;
#311 = ADVANCED_FACE ( 'NONE', ( #397 ), #139, .F. ) ;
#312 = ORIENTED_EDGE ( 'NONE', *, *, #61, .T. ) ;
#313 = EDGE_CURVE ( 'NONE', #518, #498, #249, .T. ) ;
#314 = DIRECTION ( 'NONE',  ( 0.5000000000000013323, -0.8660254037844379305, 0.000000000000000000 ) ) ;
#315 = AXIS2_PLACEMENT_3D ( 'NONE', #474, #121, #463 ) ;
#316 = DIRECTION ( 'NONE',  ( -0.8660254037844378194, -0.5000000000000016653, 0.000000000000000000 ) ) ;
#317 = EDGE_LOOP ( 'NONE', ( #228, #391, #596, #102 ) ) ;
#318 = CYLINDRICAL_SURFACE ( 'NONE', #371, 6.350000000000001421 ) ;
#319 = AXIS2_PLACEMENT_3D ( 'NONE', #51, #106, #453 ) ;
#320 = FACE_OUTER_BOUND ( 'NONE', #420, .T. ) ;
#321 = CYLINDRICAL_SURFACE ( 'NONE', #622, 6.000000000000002665 ) ;
#322 = DIRECTION ( 'NONE',  ( 0.000000000000000000, 0.000000000000000000, -1.000000000000000000 ) ) ;
#323 = ORIENTED_EDGE ( 'NONE', *, *, #637, .F. ) ;
#324 = CARTESIAN_POINT ( 'NONE',  ( 5.221968449243830079, 22.77499999999999858, 15.00000000000000000 ) ) ;
#325 = ORIENTED_EDGE ( 'NONE', *, *, #177, .T. ) ;
#326 = DIRECTION ( 'NONE',  ( -0.000000000000000000, 1.000000000000000000, -0.000000000000000000 ) ) ;
#327 = ORIENTED_EDGE ( 'NONE', *, *, #496, .T. ) ;
#328 = CARTESIAN_POINT ( 'NONE',  ( -15.90007621352597056, 28.30000203870378428, 4.077215301973813482E-06 ) ) ;
#329 = AXIS2_PLACEMENT_3D ( 'NONE', #616, #379, #576 ) ;
#330 = DATE_AND_TIME ( #486, #108 ) ;
#331 = CARTESIAN_POINT ( 'NONE',  ( 5.221968449243830079, 22.77499999999999858, 14.99845991764480679 ) ) ;
#332 = ORIENTED_EDGE ( 'NONE', *, *, #548, .T. ) ;
#333 = DATE_TIME_ROLE ( 'classification_date' ) ;
#334 = CC_DESIGN_PERSON_AND_ORGANIZATION_ASSIGNMENT ( #184, #37, ( #392 ) ) ;
#335 = DIRECTION ( 'NONE',  ( 1.000000000000000000, 0.000000000000000000, -0.000000000000000000 ) ) ;
#336 = EDGE_LOOP ( 'NONE', ( #50, #189, #573, #210 ) ) ;
#337 = APPLICATION_PROTOCOL_DEFINITION ( 'international standard', 'config_control_design', 1994, #597 ) ;
#338 = DIRECTION ( 'NONE',  ( 0.000000000000000000, 0.000000000000000000, -1.000000000000000000 ) ) ;
#339 = EDGE_LOOP ( 'NONE', ( #559, #18, #7, #60 ) ) ;
#340 = PERSON_AND_ORGANIZATION_ROLE ( 'design_owner' ) ;
#341 = DIRECTION ( 'NONE',  ( 0.000000000000000000, -1.000000000000000000, 0.000000000000000000 ) ) ;
#342 = EDGE_CURVE ( 'NONE', #631, #518, #35, .T. ) ;
#343 = ORIENTED_EDGE ( 'NONE', *, *, #356, .F. ) ;
#344 = AXIS2_PLACEMENT_3D ( 'NONE', #382, #256, #475 ) ;
#345 = CARTESIAN_POINT ( 'NONE',  ( -12.99038105676658361, 1.160254037844387742, 8.604664723264669135 ) ) ;
#346 = APPROVAL_ROLE ( '' ) ;
#347 = CARTESIAN_POINT ( 'NONE',  ( -24.47499957288086492, 21.05219681330052239, -15.00000000000000000 ) ) ;
#348 = AXIS2_PLACEMENT_3D ( 'NONE', #73, #513, #271 ) ;
#349 = DIRECTION ( 'NONE',  ( 0.8660254037844380415, 0.5000000000000012212, 0.000000000000000000 ) ) ;
#350 = VERTEX_POINT ( 'NONE', #185 ) ;
#351 = CARTESIAN_POINT ( 'NONE',  ( 11.45707608561451174, 15.27500000000000036, 15.00000000000000000 ) ) ;
#352 = ORIENTED_EDGE ( 'NONE', *, *, #194, .F. ) ;
#353 = VECTOR ( 'NONE', #369, 1000.000000000000000 ) ;
#354 = DIRECTION ( 'NONE',  ( 0.8660254037844378194, 0.5000000000000015543, 0.000000000000000000 ) ) ;
#355 =( BOUNDED_CURVE ( )  B_SPLINE_CURVE ( 3, ( #17, #407, #306, #363 ),
 .UNSPECIFIED., .F., .F. ) 
 B_SPLINE_CURVE_WITH_KNOTS ( ( 4, 4 ),
 ( 3.190106838991559520E-07, 0.9056435059677784283 ),
 .UNSPECIFIED. ) 
 CURVE ( )  GEOMETRIC_REPRESENTATION_ITEM ( )  RATIONAL_B_SPLINE_CURVE ( ( 1.000000000000000000, 0.9328108157759605890, 0.9328108157759605890, 1.000000000000000000 ) ) 
 REPRESENTATION_ITEM ( '' )  );
#356 = EDGE_CURVE ( 'NONE', #377, #148, #387, .T. ) ;
#357 = LOCAL_TIME ( 13, 10, 9.000000000000000000, #389 ) ;
#358 = DIRECTION ( 'NONE',  ( 1.000000000000000000, 0.000000000000000000, 0.000000000000000000 ) ) ;
#359 = ORIENTED_EDGE ( 'NONE', *, *, #244, .T. ) ;
#360 = CARTESIAN_POINT ( 'NONE',  ( 23.80707608561449007, 18.77500000000000568, 0.000000000000000000 ) ) ;
#361 = EDGE_CURVE ( 'NONE', #399, #626, #595, .T. ) ;
#362 = AXIS2_PLACEMENT_3D ( 'NONE', #561, #459, #220 ) ;
#363 = CARTESIAN_POINT ( 'NONE',  ( -12.99038105676658361, 1.160254037844387742, 8.604664723264669135 ) ) ;
#364 = EDGE_CURVE ( 'NONE', #471, #402, #558, .T. ) ;
#365 = ORIENTED_EDGE ( 'NONE', *, *, #613, .F. ) ;
#366 = LINE ( 'NONE', #192, #577 ) ;
#367 = CARTESIAN_POINT ( 'NONE',  ( -1.220944442333532498, 22.77499999999999858, 4.077215301490078048E-06 ) ) ;
#368 = CARTESIAN_POINT ( 'NONE',  ( -21.69614889156815707, 34.23909440143463456, 4.077215302224865577E-06 ) ) ;
#369 = DIRECTION ( 'NONE',  ( -1.121696530518871266E-14, -6.476117938441417910E-15, -1.000000000000000000 ) ) ;
#370 = VERTEX_POINT ( 'NONE', #505 ) ;
#371 = AXIS2_PLACEMENT_3D ( 'NONE', #373, #26, #571 ) ;
#372 = CARTESIAN_POINT ( 'NONE',  ( -1.220944442333533386, 22.77499999999999858, -11.99999592278469862 ) ) ;
#373 = CARTESIAN_POINT ( 'NONE',  ( 20.80707608561450073, 18.77500000000000568, 0.000000000000000000 ) ) ;
#374 = ORIENTED_EDGE ( 'NONE', *, *, #173, .F. ) ;
#375 = DIRECTION ( 'NONE',  ( 0.000000000000000000, 0.000000000000000000, 1.000000000000000000 ) ) ;
#376 = EDGE_CURVE ( 'NONE', #458, #72, #444, .T. ) ;
#377 = VERTEX_POINT ( 'NONE', #3 ) ;
#378 = VECTOR ( 'NONE', #88, 1000.000000000000000 ) ;
#379 = DIRECTION ( 'NONE',  ( -0.000000000000000000, -1.000000000000000000, -0.000000000000000000 ) ) ;
#380 = ORIENTED_EDGE ( 'NONE', *, *, #615, .T. ) ;
#381 = APPLICATION_PROTOCOL_DEFINITION ( 'international standard', 'config_control_design', 1994, #484 ) ;
#382 = CARTESIAN_POINT ( 'NONE',  ( 20.80707608561449717, 18.77500000000000568, 0.000000000000000000 ) ) ;
#383 = EDGE_CURVE ( 'NONE', #140, #284, #502, .T. ) ;
#384 = ORIENTED_EDGE ( 'NONE', *, *, #173, .T. ) ;
#385 = APPROVAL ( #287, 'UNSPECIFIED' ) ;
#386 = DATE_AND_TIME ( #477, #273 ) ;
#387 = LINE ( 'NONE', #298, #99 ) ;
#388 = ORIENTED_EDGE ( 'NONE', *, *, #521, .T. ) ;
#389 = COORDINATED_UNIVERSAL_TIME_OFFSET ( 3, 0, .BEHIND. ) ;
#390 = CARTESIAN_POINT ( 'NONE',  ( -12.47927586857744053, 30.27500203870378925, 4.077215301490078048E-06 ) ) ;
#391 = ORIENTED_EDGE ( 'NONE', *, *, #198, .T. ) ;
#392 = SECURITY_CLASSIFICATION ( '', '', #543 ) ;
#393 = FACE_OUTER_BOUND ( 'NONE', #252, .T. ) ;
#394 = AXIS2_PLACEMENT_3D ( 'NONE', #487, #146, #335 ) ;
#395 = PERSON_AND_ORGANIZATION ( #57, #207 ) ;
#396 = CARTESIAN_POINT ( 'NONE',  ( 1.196155953845135622, 18.58845930682370096, 4.077215301490078048E-06 ) ) ;
#397 = FACE_OUTER_BOUND ( 'NONE', #605, .T. ) ;
#398 = AXIS2_PLACEMENT_3D ( 'NONE', #623, #170, #69 ) ;
#399 = VERTEX_POINT ( 'NONE', #351 ) ;
#400 = CC_DESIGN_SECURITY_CLASSIFICATION ( #392, ( #639 ) ) ;
#401 = DIRECTION ( 'NONE',  ( 2.309522458705388000E-16, -1.000000000000000000, -0.000000000000000000 ) ) ;
#402 = VERTEX_POINT ( 'NONE', #110 ) ;
#403 = CARTESIAN_POINT ( 'NONE',  ( 30.15707608561450215, 15.27500000000000036, -37.28565593195450845 ) ) ;
#404 = EDGE_LOOP ( 'NONE', ( #71, #380, #138, #506, #116, #175 ) ) ;
#405 = AXIS2_PLACEMENT_3D ( 'NONE', #497, #49, #251 ) ;
#406 = EDGE_CURVE ( 'NONE', #609, #527, #12, .T. ) ;
#407 = CARTESIAN_POINT ( 'NONE',  ( -24.47499658044985438, 21.05219163025798323, -5.619652183516480548 ) ) ;
#408 = VERTEX_POINT ( 'NONE', #604 ) ;
#409 = DIRECTION ( 'NONE',  ( 2.309522458705388000E-16, -1.000000000000000000, 0.000000000000000000 ) ) ;
#410 = ADVANCED_BREP_SHAPE_REPRESENTATION ( '1313133', ( #429, #481 ), #92 ) ;
#411 = CARTESIAN_POINT ( 'NONE',  ( -1.220944442333532498, 22.77499999999999858, 4.077215301490078048E-06 ) ) ;
#412 = CARTESIAN_POINT ( 'NONE',  ( -22.85224534236190053, 18.24150403784435071, -15.00000000000000000 ) ) ;
#413 = CARTESIAN_POINT ( 'NONE',  ( -9.196148891568123318, 12.58845930682368497, 4.077215302224865577E-06 ) ) ;
#414 = DIRECTION ( 'NONE',  ( 0.000000000000000000, -1.000000000000000000, 0.000000000000000000 ) ) ;
#415 = CARTESIAN_POINT ( 'NONE',  ( 3.420803876087046724, 10.63525607654819360, 4.077215301490078048E-06 ) ) ;
#416 = EDGE_LOOP ( 'NONE', ( #161, #186, #524, #105 ) ) ;
#417 = CARTESIAN_POINT ( 'NONE',  ( -9.058475523628910508, 32.25000203870379778, 4.077215301490078048E-06 ) ) ;
#418 = ORIENTED_EDGE ( 'NONE', *, *, #128, .F. ) ;
#419 = CARTESIAN_POINT ( 'NONE',  ( 30.15707608561450215, 22.77499999999999858, -37.28565593195450845 ) ) ;
#420 = EDGE_LOOP ( 'NONE', ( #222, #325, #255 ) ) ;
#421 = EDGE_CURVE ( 'NONE', #370, #112, #296, .T. ) ;
#422 = VECTOR ( 'NONE', #625, 1000.000000000000000 ) ;
#423 = CARTESIAN_POINT ( 'NONE',  ( -12.99038105676658539, 1.160254037844387298, -15.00000000000000000 ) ) ;
#424 = PLANE ( 'NONE',  #250 ) ;
#425 = ORIENTED_EDGE ( 'NONE', *, *, #522, .F. ) ;
#426 = ADVANCED_FACE ( 'NONE', ( #103, #499 ), #553, .T. ) ;
#427 = ADVANCED_FACE ( 'NONE', ( #160 ), #608, .F. ) ;
#428 = CARTESIAN_POINT ( 'NONE',  ( 20.80707608561450073, 18.77500000000000568, 0.000000000000000000 ) ) ;
#429 = MANIFOLD_SOLID_BREP ( 'Corte-extrus\X2\00e3\X0\o13', #30 ) ;
#430 = APPROVAL_ROLE ( '' ) ;
#431 = CARTESIAN_POINT ( 'NONE',  ( 30.15707608561450215, 15.27500000000000036, -15.00000000000000000 ) ) ;
#432 =( LENGTH_UNIT ( ) NAMED_UNIT ( * ) SI_UNIT ( .MILLI., .METRE. ) );
#433 = CIRCLE ( 'NONE', #519, 2.999999999999992450 ) ;
#434 = FACE_OUTER_BOUND ( 'NONE', #563, .T. ) ;
#435 = ORIENTED_EDGE ( 'NONE', *, *, #496, .F. ) ;
#436 = APPROVAL_ROLE ( '' ) ;
#437 = CARTESIAN_POINT ( 'NONE',  ( -16.49999646886152860, 37.23909440143464167, 4.077215301490078048E-06 ) ) ;
#438 = ORIENTED_EDGE ( 'NONE', *, *, #465, .F. ) ;
#439 = CARTESIAN_POINT ( 'NONE',  ( -1.448112304394776118, 7.824186009085282834, 14.93108155475310994 ) ) ;
#440 = DESIGN_CONTEXT ( 'detailed design', #484, 'design' ) ;
#441 = DIRECTION ( 'NONE',  ( 2.309522458705388000E-16, -1.000000000000000000, -0.000000000000000000 ) ) ;
#442 = CIRCLE ( 'NONE', #229, 3.949999999999999734 ) ;
#443 = CARTESIAN_POINT ( 'NONE',  ( 0.000000000000000000, 22.77499999999999858, 0.000000000000000000 ) ) ;
#444 =( BOUNDED_CURVE ( )  B_SPLINE_CURVE ( 3, ( #158, #150, #509, #208 ),
 .UNSPECIFIED., .F., .T. ) 
 B_SPLINE_CURVE_WITH_KNOTS ( ( 4, 4 ),
 ( 0.000000000000000000, 3.141592653589793116 ),
 .UNSPECIFIED. ) 
 CURVE ( )  GEOMETRIC_REPRESENTATION_ITEM ( )  RATIONAL_B_SPLINE_CURVE ( ( 1.000000000000000000, 0.3333333333333333703, 0.3333333333333333703, 1.000000000000000000 ) ) 
 REPRESENTATION_ITEM ( '' )  );
#445 = CARTESIAN_POINT ( 'NONE',  ( -3.999996468861495291, 15.58845930682369385, 4.077215301490078048E-06 ) ) ;
#446 = EDGE_LOOP ( 'NONE', ( #327, #230, #388, #254, #164, #448 ) ) ;
#447 = CC_DESIGN_PERSON_AND_ORGANIZATION_ASSIGNMENT ( #491, #242, ( #639 ) ) ;
#448 = ORIENTED_EDGE ( 'NONE', *, *, #194, .T. ) ;
#449 = DIRECTION ( 'NONE',  ( -0.5000000000000013323, 0.8660254037844379305, 0.000000000000000000 ) ) ;
#450 = ORIENTED_EDGE ( 'NONE', *, *, #82, .F. ) ;
#451 = LINE ( 'NONE', #368, #473 ) ;
#452 = ADVANCED_FACE ( 'NONE', ( #10, #253 ), #213, .F. ) ;
#453 = DIRECTION ( 'NONE',  ( 1.000000000000000000, 0.000000000000000000, 0.000000000000000000 ) ) ;
#454 = ORIENTED_EDGE ( 'NONE', *, *, #260, .T. ) ;
#455 = CARTESIAN_POINT ( 'NONE',  ( -12.47927586857744053, 30.27500203870378925, 4.077215301490078048E-06 ) ) ;
#456 = AXIS2_PLACEMENT_3D ( 'NONE', #217, #551, #354 ) ;
#457 = CARTESIAN_POINT ( 'NONE',  ( -15.00000000000000000, 0.000000000000000000, -15.00000000000000000 ) ) ;
#458 = VERTEX_POINT ( 'NONE', #411 ) ;
#459 = DIRECTION ( 'NONE',  ( 2.309522458705388000E-16, -1.000000000000000000, -0.000000000000000000 ) ) ;
#460 = CARTESIAN_POINT ( 'NONE',  ( 11.45707608561451529, 15.27500000000000036, -15.00000000000000000 ) ) ;
#461 = ORIENTED_EDGE ( 'NONE', *, *, #615, .F. ) ;
#462 = CARTESIAN_POINT ( 'NONE',  ( -12.99038105676658361, 1.160254037844387742, 8.604664723264669135 ) ) ;
#463 = DIRECTION ( 'NONE',  ( 0.8660254037844378194, 0.5000000000000014433, 0.000000000000000000 ) ) ;
#464 = LOCAL_TIME ( 13, 10, 9.000000000000000000, #98 ) ;
#465 = EDGE_CURVE ( 'NONE', #258, #148, #433, .T. ) ;
#466 = CIRCLE ( 'NONE', #329, 29.99999999999985434 ) ;
#467 = CARTESIAN_POINT ( 'NONE',  ( -15.00000000000000000, 22.77499999999999858, -15.00000000000000000 ) ) ;
#468 = EDGE_LOOP ( 'NONE', ( #272, #485, #435, #374 ) ) ;
#469 = FACE_BOUND ( 'NONE', #552, .T. ) ;
#470 = EDGE_CURVE ( 'NONE', #225, #582, #355, .T. ) ;
#471 = VERTEX_POINT ( 'NONE', #602 ) ;
#472 = EDGE_CURVE ( 'NONE', #503, #350, #241, .T. ) ;
#473 = VECTOR ( 'NONE', #528, 1000.000000000000000 ) ;
#474 = CARTESIAN_POINT ( 'NONE',  ( -3.999996468861495291, 15.58845930682369385, 4.077215301490078048E-06 ) ) ;
#475 = DIRECTION ( 'NONE',  ( 1.000000000000000000, 0.000000000000000000, 0.000000000000000000 ) ) ;
#476 = VECTOR ( 'NONE', #375, 1000.000000000000000 ) ;
#477 = CALENDAR_DATE ( 2025, 11, 7 ) ;
#478 = DIRECTION ( 'NONE',  ( 0.5000000000000013323, -0.8660254037844379305, 0.000000000000000000 ) ) ;
#479 = ORIENTED_EDGE ( 'NONE', *, *, #198, .F. ) ;
#480 = PERSON_AND_ORGANIZATION ( #57, #207 ) ;
#481 = AXIS2_PLACEMENT_3D ( 'NONE', #182, #136, #578 ) ;
#482 = DIRECTION ( 'NONE',  ( -0.8660254037844379305, -0.5000000000000013323, -0.000000000000000000 ) ) ;
#483 = FACE_BOUND ( 'NONE', #29, .T. ) ;
#484 = APPLICATION_CONTEXT ( 'configuration controlled 3d designs of mechanical parts and assemblies' ) ;
#485 = ORIENTED_EDGE ( 'NONE', *, *, #364, .F. ) ;
#486 = CALENDAR_DATE ( 2025, 11, 7 ) ;
#487 = CARTESIAN_POINT ( 'NONE',  ( -15.00000000000000000, 22.77499999999999858, -15.00000000000000000 ) ) ;
#488 = VECTOR ( 'NONE', #630, 1000.000000000000000 ) ;
#489 = VERTEX_POINT ( 'NONE', #101 ) ;
#490 = EDGE_CURVE ( 'NONE', #127, #140, #39, .T. ) ;
#491 = PERSON_AND_ORGANIZATION ( #57, #207 ) ;
#492 = CARTESIAN_POINT ( 'NONE',  ( -15.00000000000000000, 22.77499999999999858, 15.00000000000000000 ) ) ;
#493 = EDGE_CURVE ( 'NONE', #640, #290, #268, .T. ) ;
#494 = VECTOR ( 'NONE', #295, 1000.000000000000000 ) ;
#495 = ORIENTED_EDGE ( 'NONE', *, *, #376, .T. ) ;
#496 = EDGE_CURVE ( 'NONE', #489, #471, #221, .T. ) ;
#497 = CARTESIAN_POINT ( 'NONE',  ( 20.80707608561450073, 18.77500000000000568, 0.000000000000000000 ) ) ;
#498 = VERTEX_POINT ( 'NONE', #423 ) ;
#499 = FACE_OUTER_BOUND ( 'NONE', #303, .T. ) ;
#500 = ORIENTED_EDGE ( 'NONE', *, *, #361, .T. ) ;
#501 = DIRECTION ( 'NONE',  ( 0.5000000000000013323, -0.8660254037844379305, -0.000000000000000000 ) ) ;
#502 = LINE ( 'NONE', #598, #214 ) ;
#503 = VERTEX_POINT ( 'NONE', #415 ) ;
#504 = FACE_BOUND ( 'NONE', #130, .T. ) ;
#505 = CARTESIAN_POINT ( 'NONE',  ( 5.221968449243830079, 22.77499999999999858, 15.00000000000000000 ) ) ;
#506 = ORIENTED_EDGE ( 'NONE', *, *, #289, .T. ) ;
#507 = VECTOR ( 'NONE', #304, 1000.000000000000000 ) ;
#508 = LINE ( 'NONE', #235, #86 ) ;
#509 = CARTESIAN_POINT ( 'NONE',  ( -15.07735090288456448, 22.77499999999999858, 12.00000407721530316 ) ) ;
#510 = EDGE_LOOP ( 'NONE', ( #538, #647 ) ) ;
#511 = APPROVAL_PERSON_ORGANIZATION ( #580, #567, #430 ) ;
#512 = LINE ( 'NONE', #328, #507 ) ;
#513 = DIRECTION ( 'NONE',  ( 0.000000000000000000, -1.000000000000000000, 0.000000000000000000 ) ) ;
#514 = VERTEX_POINT ( 'NONE', #125 ) ;
#515 = CARTESIAN_POINT ( 'NONE',  ( 20.80707608561450073, 18.77500000000000568, 0.000000000000000000 ) ) ;
#516 = CARTESIAN_POINT ( 'NONE',  ( 30.15707608561450215, 22.77499999999999858, -15.00000000000000000 ) ) ;
#517 = CC_DESIGN_DATE_AND_TIME_ASSIGNMENT ( #386, #333, ( #392 ) ) ;
#518 = VERTEX_POINT ( 'NONE', #460 ) ;
#519 = AXIS2_PLACEMENT_3D ( 'NONE', #163, #63, #549 ) ;
#520 = CARTESIAN_POINT ( 'NONE',  ( -15.07735090288456803, 22.77499999999999858, -11.99999592278469862 ) ) ;
#521 = EDGE_CURVE ( 'NONE', #582, #498, #168, .T. ) ;
#522 = EDGE_CURVE ( 'NONE', #408, #284, #627, .T. ) ;
#523 = DIRECTION ( 'NONE',  ( 0.5000000000000013323, -0.8660254037844379305, 0.000000000000000000 ) ) ;
#524 = ORIENTED_EDGE ( 'NONE', *, *, #14, .T. ) ;
#525 = DIRECTION ( 'NONE',  ( 0.8660254037844374864, 0.5000000000000018874, 0.000000000000000000 ) ) ;
#526 = DIRECTION ( 'NONE',  ( 2.309522458705388000E-16, -1.000000000000000000, 0.000000000000000000 ) ) ;
#527 = VERTEX_POINT ( 'NONE', #619 ) ;
#528 = DIRECTION ( 'NONE',  ( 0.5000000000000013323, -0.8660254037844379305, -0.000000000000000000 ) ) ;
#529 = CIRCLE ( 'NONE', #592, 6.350000000000001421 ) ;
#530 = DATE_TIME_ROLE ( 'creation_date' ) ;
#531 = LINE ( 'NONE', #240, #494 ) ;
#532 = PERSON_AND_ORGANIZATION ( #57, #207 ) ;
#533 = DIRECTION ( 'NONE',  ( 0.8660254037844378194, 0.5000000000000014433, 0.000000000000000000 ) ) ;
#534 = ORIENTED_EDGE ( 'NONE', *, *, #472, .F. ) ;
#535 =( NAMED_UNIT ( * ) SI_UNIT ( $, .STERADIAN. ) SOLID_ANGLE_UNIT ( ) );
#536 = CIRCLE ( 'NONE', #172, 6.350000000000001421 ) ;
#537 = CYLINDRICAL_SURFACE ( 'NONE', #589, 29.99999999999985434 ) ;
#538 = ORIENTED_EDGE ( 'NONE', *, *, #637, .T. ) ;
#539 = CARTESIAN_POINT ( 'NONE',  ( 5.525000427117307211, -3.225000000000002309, -15.00000957032051652 ) ) ;
#540 = EDGE_CURVE ( 'NONE', #609, #503, #269, .T. ) ;
#541 = ORIENTED_EDGE ( 'NONE', *, *, #342, .F. ) ;
#542 = DIRECTION ( 'NONE',  ( 2.309522458705388000E-16, -1.000000000000000000, 0.000000000000000000 ) ) ;
#543 = SECURITY_CLASSIFICATION_LEVEL ( 'unclassified' ) ;
#544 = ADVANCED_FACE ( 'NONE', ( #320 ), #178, .T. ) ;
#545 = EDGE_CURVE ( 'NONE', #72, #458, #621, .T. ) ;
#546 = DIRECTION ( 'NONE',  ( -1.000000000000000000, 0.000000000000000000, -0.000000000000000000 ) ) ;
#547 = AXIS2_PLACEMENT_3D ( 'NONE', #403, #58, #114 ) ;
#548 = EDGE_CURVE ( 'NONE', #514, #377, #149, .T. ) ;
#549 = DIRECTION ( 'NONE',  ( 1.000000000000000000, 0.000000000000000000, 0.000000000000000000 ) ) ;
#550 = ORIENTED_EDGE ( 'NONE', *, *, #548, .F. ) ;
#551 = DIRECTION ( 'NONE',  ( -0.5000000000000013323, 0.8660254037844379305, -0.000000000000000000 ) ) ;
#552 = EDGE_LOOP ( 'NONE', ( #65, #438 ) ) ;
#553 = PLANE ( 'NONE',  #547 ) ;
#554 = ORIENTED_EDGE ( 'NONE', *, *, #176, .F. ) ;
#555 = CARTESIAN_POINT ( 'NONE',  ( 5.221968449243830079, 11.67515892771508490, 14.99845991764480679 ) ) ;
#556 = CC_DESIGN_APPROVAL ( #385, ( #639 ) ) ;
#557 =( BOUNDED_CURVE ( )  B_SPLINE_CURVE ( 3, ( #555, #439, #143, #345 ),
 .UNSPECIFIED., .F., .T. ) 
 B_SPLINE_CURVE_WITH_KNOTS ( ( 4, 4 ),
 ( 1.580897564503106922, 2.235949147622016131 ),
 .UNSPECIFIED. ) 
 CURVE ( )  GEOMETRIC_REPRESENTATION_ITEM ( )  RATIONAL_B_SPLINE_CURVE ( ( 1.000000000000000000, 0.9645607980070631804, 0.9645607980070631804, 1.000000000000000000 ) ) 
 REPRESENTATION_ITEM ( '' )  );
#558 = LINE ( 'NONE', #6, #294 ) ;
#559 = ORIENTED_EDGE ( 'NONE', *, *, #545, .F. ) ;
#560 = VECTOR ( 'NONE', #638, 1000.000000000000000 ) ;
#561 = CARTESIAN_POINT ( 'NONE',  ( 20.80707608561450073, 18.77500000000000568, 0.000000000000000000 ) ) ;
#562 = CARTESIAN_POINT ( 'NONE',  ( 3.531138515269760525E-06, 8.660256076548190407, 4.077215301490078048E-06 ) ) ;
#563 = EDGE_LOOP ( 'NONE', ( #155, #299, #461, #151, #603 ) ) ;
#564 = CARTESIAN_POINT ( 'NONE',  ( 5.221968449243830079, -3.225000000000002309, 14.99845991764480679 ) ) ;
#565 = DIRECTION ( 'NONE',  ( -0.000000000000000000, 0.000000000000000000, -1.000000000000000000 ) ) ;
#566 = CYLINDRICAL_SURFACE ( 'NONE', #362, 6.350000000000001421 ) ;
#567 = APPROVAL ( #291, 'UNSPECIFIED' ) ;
#568 = DIRECTION ( 'NONE',  ( -1.000000000000000000, -0.000000000000000000, -0.000000000000000000 ) ) ;
#569 = FACE_OUTER_BOUND ( 'NONE', #317, .T. ) ;
#570 = DIRECTION ( 'NONE',  ( 0.8660254037844378194, 0.5000000000000015543, 0.000000000000000000 ) ) ;
#571 = DIRECTION ( 'NONE',  ( 1.000000000000000000, 0.000000000000000000, 0.000000000000000000 ) ) ;
#572 = EDGE_CURVE ( 'NONE', #2, #84, #67, .T. ) ;
#573 = ORIENTED_EDGE ( 'NONE', *, *, #540, .T. ) ;
#574 = VECTOR ( 'NONE', #302, 1000.000000000000000 ) ;
#575 = LINE ( 'NONE', #24, #476 ) ;
#576 = DIRECTION ( 'NONE',  ( 0.000000000000000000, 0.000000000000000000, 1.000000000000000000 ) ) ;
#577 = VECTOR ( 'NONE', #482, 1000.000000000000000 ) ;
#578 = DIRECTION ( 'NONE',  ( 1.000000000000000000, 0.000000000000000000, 0.000000000000000000 ) ) ;
#579 = FACE_OUTER_BOUND ( 'NONE', #107, .T. ) ;
#580 = PERSON_AND_ORGANIZATION ( #57, #207 ) ;
#581 = FACE_OUTER_BOUND ( 'NONE', #404, .T. ) ;
#582 = VERTEX_POINT ( 'NONE', #462 ) ;
#583 = CALENDAR_DATE ( 2025, 11, 7 ) ;
#584 = PRODUCT ( '1313133', '1313133', '', ( #237 ) ) ;
#585 = DIRECTION ( 'NONE',  ( 0.8660254037844380415, 0.5000000000000012212, 0.000000000000000000 ) ) ;
#586 = CC_DESIGN_APPROVAL ( #267, ( #392 ) ) ;
#587 = EDGE_CURVE ( 'NONE', #631, #626, #575, .T. ) ;
#588 = DATE_AND_TIME ( #583, #357 ) ;
#589 = AXIS2_PLACEMENT_3D ( 'NONE', #539, #643, #137 ) ;
#590 = CYLINDRICAL_SURFACE ( 'NONE', #133, 6.000000000000002665 ) ;
#591 = EDGE_CURVE ( 'NONE', #290, #640, #594, .T. ) ;
#592 = AXIS2_PLACEMENT_3D ( 'NONE', #109, #542, #167 ) ;
#593 = CYLINDRICAL_SURFACE ( 'NONE', #79, 3.950000000000001510 ) ;
#594 = CIRCLE ( 'NONE', #315, 6.000000000000001776 ) ;
#595 = LINE ( 'NONE', #53, #574 ) ;
#596 = ORIENTED_EDGE ( 'NONE', *, *, #522, .T. ) ;
#597 = APPLICATION_CONTEXT ( 'configuration controlled 3d designs of mechanical parts and assemblies' ) ;
#598 = CARTESIAN_POINT ( 'NONE',  ( 27.15707608561450215, 18.77500000000000568, 0.000000000000000000 ) ) ;
#599 = DIRECTION ( 'NONE',  ( 0.8660254037844378194, 0.5000000000000014433, 0.000000000000000000 ) ) ;
#600 = SHAPE_DEFINITION_REPRESENTATION ( #44, #410 ) ;
#601 = AXIS2_PLACEMENT_3D ( 'NONE', #562, #261, #349 ) ;
#602 = CARTESIAN_POINT ( 'NONE',  ( 5.221968449243830079, 11.67515892771508490, 14.99845991764480679 ) ) ;
#603 = ORIENTED_EDGE ( 'NONE', *, *, #16, .F. ) ;
#604 = CARTESIAN_POINT ( 'NONE',  ( 14.45707608561449931, 15.27500000000000391, 7.776507174585697093E-16 ) ) ;
#605 = EDGE_LOOP ( 'NONE', ( #277, #384, #352, #500, #74 ) ) ;
#606 = CYLINDRICAL_SURFACE ( 'NONE', #305, 2.999999999999992450 ) ;
#607 = ADVANCED_FACE ( 'NONE', ( #227 ), #224, .T. ) ;
#608 = CYLINDRICAL_SURFACE ( 'NONE', #319, 2.999999999999992450 ) ;
#609 = VERTEX_POINT ( 'NONE', #174 ) ;
#610 = VECTOR ( 'NONE', #293, 1000.000000000000000 ) ;
#611 = DIRECTION ( 'NONE',  ( 0.5000000000000015543, -0.8660254037844377084, -0.000000000000000000 ) ) ;
#612 = ADVANCED_FACE ( 'NONE', ( #569 ), #318, .F. ) ;
#613 = EDGE_CURVE ( 'NONE', #2, #112, #20, .T. ) ;
#614 = CARTESIAN_POINT ( 'NONE',  ( -24.47499957288086492, -3.225000000000002309, -15.00000000000000178 ) ) ;
#615 = EDGE_CURVE ( 'NONE', #225, #84, #265, .T. ) ;
#616 = CARTESIAN_POINT ( 'NONE',  ( 5.525000427117307211, 22.77499999999999858, -15.00000957032051652 ) ) ;
#617 = CARTESIAN_POINT ( 'NONE',  ( 30.15707608561450215, 15.27500000000000036, -15.00000000000000000 ) ) ;
#618 = DIRECTION ( 'NONE',  ( 0.5000000000000015543, -0.8660254037844377084, 0.000000000000000000 ) ) ;
#619 = CARTESIAN_POINT ( 'NONE',  ( -7.420796813810024872, 13.61345930682368710, 4.077215301973813482E-06 ) ) ;
#620 = ORIENTED_EDGE ( 'NONE', *, *, #310, .F. ) ;
#621 =( BOUNDED_CURVE ( )  B_SPLINE_CURVE ( 3, ( #21, #520, #372, #367 ),
 .UNSPECIFIED., .F., .T. ) 
 B_SPLINE_CURVE_WITH_KNOTS ( ( 4, 4 ),
 ( 3.141592653589793116, 6.283185307179586232 ),
 .UNSPECIFIED. ) 
 CURVE ( )  GEOMETRIC_REPRESENTATION_ITEM ( )  RATIONAL_B_SPLINE_CURVE ( ( 1.000000000000000000, 0.3333333333333333703, 0.3333333333333333703, 1.000000000000000000 ) ) 
 REPRESENTATION_ITEM ( '' )  );
#622 = AXIS2_PLACEMENT_3D ( 'NONE', #206, #641, #599 ) ;
#623 = CARTESIAN_POINT ( 'NONE',  ( 20.80707608561450073, 15.27500000000000568, 0.000000000000000000 ) ) ;
#624 = EDGE_LOOP ( 'NONE', ( #636, #135, #418, #279 ) ) ;
#625 = DIRECTION ( 'NONE',  ( 2.309522458705388000E-16, -1.000000000000000000, -0.000000000000000000 ) ) ;
#626 = VERTEX_POINT ( 'NONE', #231 ) ;
#627 = CIRCLE ( 'NONE', #398, 6.350000000000001421 ) ;
#628 = PERSON_AND_ORGANIZATION_ROLE ( 'creator' ) ;
#629 = CYLINDRICAL_SURFACE ( 'NONE', #166, 3.950000000000001510 ) ;
#630 = DIRECTION ( 'NONE',  ( -1.000000000000000000, 0.000000000000000000, 0.000000000000000000 ) ) ;
#631 = VERTEX_POINT ( 'NONE', #617 ) ;
#632 = AXIS2_PLACEMENT_3D ( 'NONE', #445, #1, #204 ) ;
#633 = CC_DESIGN_DATE_AND_TIME_ASSIGNMENT ( #330, #530, ( #223 ) ) ;
#634 = DATE_AND_TIME ( #89, #464 ) ;
#635 = DIRECTION ( 'NONE',  ( 0.000000000000000000, 0.000000000000000000, -1.000000000000000000 ) ) ;
#636 = ORIENTED_EDGE ( 'NONE', *, *, #289, .F. ) ;
#637 = EDGE_CURVE ( 'NONE', #140, #127, #536, .T. ) ;
#638 = DIRECTION ( 'NONE',  ( -1.121696530518871266E-14, -0.000000000000000000, -1.000000000000000000 ) ) ;
#639 = PRODUCT_DEFINITION_FORMATION_WITH_SPECIFIED_SOURCE ( 'ANY', '', #584, .NOT_KNOWN. ) ;
#640 = VERTEX_POINT ( 'NONE', #413 ) ;
#641 = DIRECTION ( 'NONE',  ( 0.5000000000000013323, -0.8660254037844379305, -0.000000000000000000 ) ) ;
#642 = VECTOR ( 'NONE', #611, 1000.000000000000227 ) ;
#643 = DIRECTION ( 'NONE',  ( -0.000000000000000000, 1.000000000000000000, -0.000000000000000000 ) ) ;
#644 = EDGE_LOOP ( 'NONE', ( #495, #42 ) ) ;
#645 = AXIS2_PLACEMENT_3D ( 'NONE', #80, #232, #570 ) ;
#646 = FACE_OUTER_BOUND ( 'NONE', #179, .T. ) ;
#647 = ORIENTED_EDGE ( 'NONE', *, *, #490, .T. ) ;
ENDSEC;
END-ISO-10303-21;
