ISO-10303-21;
HEADER;
FILE_DESCRIPTION (( 'STEP AP203' ),
    '1' );
FILE_NAME ('14141414.STEP',
    '2025-07-11T16:10:36',
    ( '' ),
    ( '' ),
    'SwSTEP 2.0',
    'SolidWorks 2024',
    '' );
FILE_SCHEMA (( 'CONFIG_CONTROL_DESIGN' ));
ENDSEC;

DATA;
#1 = FACE_OUTER_BOUND ( 'NONE', #612, .T. ) ;
#2 = EDGE_LOOP ( 'NONE', ( #368, #315 ) ) ;
#3 = DATE_AND_TIME ( #500, #207 ) ;
#4 = VECTOR ( 'NONE', #198, 1000.000000000000000 ) ;
#5 = DIRECTION ( 'NONE',  ( 1.000000000000000000, -0.000000000000000000, -0.000000000000000000 ) ) ;
#6 = CIRCLE ( 'NONE', #337, 6.350000000000001421 ) ;
#7 = ORIENTED_EDGE ( 'NONE', *, *, #9, .T. ) ;
#8 = PERSON_AND_ORGANIZATION_ROLE ( 'classification_officer' ) ;
#9 = EDGE_CURVE ( 'NONE', #379, #312, #435, .T. ) ;
#10 = CARTESIAN_POINT ( 'NONE',  ( 0.000000000000000000, 22.77499999999999858, 0.000000000000000000 ) ) ;
#11 = VERTEX_POINT ( 'NONE', #124 ) ;
#12 = CARTESIAN_POINT ( 'NONE',  ( 17.80707608561450073, 22.77499999999999858, 3.673940397442054938E-16 ) ) ;
#13 = APPROVAL ( #343, 'UNSPECIFIED' ) ;
#14 = ORIENTED_EDGE ( 'NONE', *, *, #89, .T. ) ;
#15 = FACE_OUTER_BOUND ( 'NONE', #537, .T. ) ;
#16 = AXIS2_PLACEMENT_3D ( 'NONE', #406, #492, #87 ) ;
#17 = VERTEX_POINT ( 'NONE', #533 ) ;
#18 = CIRCLE ( 'NONE', #121, 6.000000000000001776 ) ;
#19 = DIRECTION ( 'NONE',  ( 0.8660254037844378194, 0.5000000000000014433, 0.000000000000000000 ) ) ;
#20 = DIRECTION ( 'NONE',  ( 2.309522458705388000E-16, -1.000000000000000000, 0.000000000000000000 ) ) ;
#21 = CC_DESIGN_PERSON_AND_ORGANIZATION_ASSIGNMENT ( #363, #8, ( #523 ) ) ;
#22 = PLANE ( 'NONE',  #327 ) ;
#23 = DIRECTION ( 'NONE',  ( 1.000000000000000000, 0.000000000000000000, 0.000000000000000000 ) ) ;
#24 = DIRECTION ( 'NONE',  ( 0.5000000000000013323, -0.8660254037844379305, 0.000000000000000000 ) ) ;
#25 = VERTEX_POINT ( 'NONE', #530 ) ;
#26 = VECTOR ( 'NONE', #532, 1000.000000000000000 ) ;
#27 = ORIENTED_EDGE ( 'NONE', *, *, #505, .T. ) ;
#28 = DIRECTION ( 'NONE',  ( 0.8660254037844378194, 0.5000000000000014433, 0.000000000000000000 ) ) ;
#29 = PLANE ( 'NONE',  #360 ) ;
#30 = APPLICATION_CONTEXT ( 'configuration controlled 3d designs of mechanical parts and assemblies' ) ;
#31 = EDGE_LOOP ( 'NONE', ( #407, #562, #609, #167, #456, #310 ) ) ;
#32 = DIRECTION ( 'NONE',  ( 1.000000000000000000, 0.000000000000000000, 0.000000000000000000 ) ) ;
#33 = LINE ( 'NONE', #621, #316 ) ;
#34 = COORDINATED_UNIVERSAL_TIME_OFFSET ( 3, 0, .BEHIND. ) ;
#35 = DIRECTION ( 'NONE',  ( 0.000000000000000000, 0.000000000000000000, -1.000000000000000000 ) ) ;
#36 = ORIENTED_EDGE ( 'NONE', *, *, #47, .F. ) ;
#37 = CIRCLE ( 'NONE', #215, 2.999999999999992450 ) ;
#38 = PRODUCT_DEFINITION_FORMATION_WITH_SPECIFIED_SOURCE ( 'ANY', '', #461, .NOT_KNOWN. ) ;
#39 = DESIGN_CONTEXT ( 'detailed design', #84, 'design' ) ;
#40 = DIRECTION ( 'NONE',  ( -1.000000000000000000, -0.000000000000000000, -0.000000000000000000 ) ) ;
#41 = ORIENTED_EDGE ( 'NONE', *, *, #487, .T. ) ;
#42 = ADVANCED_FACE ( 'NONE', ( #334, #424 ), #231, .F. ) ;
#43 = PERSON_AND_ORGANIZATION ( #157, #290 ) ;
#44 = CARTESIAN_POINT ( 'NONE',  ( 5.525016493792833217, 22.77499999999999858, 14.99998942644469224 ) ) ;
#45 = ORIENTED_EDGE ( 'NONE', *, *, #89, .F. ) ;
#46 =( NAMED_UNIT ( * ) PLANE_ANGLE_UNIT ( ) SI_UNIT ( $, .RADIAN. ) );
#47 = EDGE_CURVE ( 'NONE', #410, #379, #61, .T. ) ;
#48 = DIRECTION ( 'NONE',  ( 2.309522458705388000E-16, -1.000000000000000000, -0.000000000000000000 ) ) ;
#49 = EDGE_LOOP ( 'NONE', ( #281, #14, #355, #256 ) ) ;
#50 = AXIS2_PLACEMENT_3D ( 'NONE', #287, #384, #477 ) ;
#51 = CARTESIAN_POINT ( 'NONE',  ( -12.99038105676658361, 1.160254037844387742, 15.00000000000000000 ) ) ;
#52 = ADVANCED_FACE ( 'NONE', ( #624 ), #29, .T. ) ;
#53 = VERTEX_POINT ( 'NONE', #219 ) ;
#54 = CARTESIAN_POINT ( 'NONE',  ( 3.531138515269760525E-06, 8.660256076548190407, 4.077215301490078048E-06 ) ) ;
#55 = ORIENTED_EDGE ( 'NONE', *, *, #134, .T. ) ;
#56 = SECURITY_CLASSIFICATION_LEVEL ( 'unclassified' ) ;
#57 = CYLINDRICAL_SURFACE ( 'NONE', #428, 2.999999999999992450 ) ;
#58 = EDGE_LOOP ( 'NONE', ( #516, #193 ) ) ;
#59 = VECTOR ( 'NONE', #141, 1000.000000000000000 ) ;
#60 = DIRECTION ( 'NONE',  ( 0.8660254037844378194, 0.5000000000000015543, 0.000000000000000000 ) ) ;
#61 = CIRCLE ( 'NONE', #118, 2.999999999999993783 ) ;
#62 = EDGE_LOOP ( 'NONE', ( #229, #104 ) ) ;
#63 = EDGE_CURVE ( 'NONE', #493, #342, #325, .T. ) ;
#64 = DATE_AND_TIME ( #264, #392 ) ;
#65 = LINE ( 'NONE', #608, #273 ) ;
#66 = EDGE_LOOP ( 'NONE', ( #389, #641, #647, #468 ) ) ;
#67 = DIRECTION ( 'NONE',  ( 1.000000000000000000, 0.000000000000000000, 0.000000000000000000 ) ) ;
#68 = ORIENTED_EDGE ( 'NONE', *, *, #556, .F. ) ;
#69 = DIRECTION ( 'NONE',  ( 0.5000000000000013323, -0.8660254037844379305, 0.000000000000000000 ) ) ;
#70 = VECTOR ( 'NONE', #35, 1000.000000000000000 ) ;
#71 = EDGE_CURVE ( 'NONE', #379, #410, #318, .T. ) ;
#72 = DIRECTION ( 'NONE',  ( 1.000000000000000000, 2.731847993664262725E-16, 0.000000000000000000 ) ) ;
#73 = VECTOR ( 'NONE', #83, 1000.000000000000000 ) ;
#74 = CARTESIAN_POINT ( 'NONE',  ( -24.47498086281880347, 21.05216898500530931, 14.99999735661281441 ) ) ;
#75 = CARTESIAN_POINT ( 'NONE',  ( -1.220944442333533386, 22.77499999999999858, -11.99999592278469862 ) ) ;
#76 = CYLINDRICAL_SURFACE ( 'NONE', #390, 6.000000000000002665 ) ;
#77 = DIRECTION ( 'NONE',  ( 1.000000000000000000, 0.000000000000000000, 0.000000000000000000 ) ) ;
#78 = EDGE_CURVE ( 'NONE', #232, #404, #380, .T. ) ;
#79 = CARTESIAN_POINT ( 'NONE',  ( -12.47927586857744053, 30.27500203870378925, 4.077215301490078048E-06 ) ) ;
#80 = CARTESIAN_POINT ( 'NONE',  ( 20.80707608561449717, 22.77499999999999858, 0.000000000000000000 ) ) ;
#81 = ORIENTED_EDGE ( 'NONE', *, *, #460, .F. ) ;
#82 = CARTESIAN_POINT ( 'NONE',  ( -15.00000000000000000, 0.000000000000000000, -15.00000000000000000 ) ) ;
#83 = DIRECTION ( 'NONE',  ( 0.000000000000000000, 0.000000000000000000, -1.000000000000000000 ) ) ;
#84 = APPLICATION_CONTEXT ( 'configuration controlled 3d designs of mechanical parts and assemblies' ) ;
#85 = DIRECTION ( 'NONE',  ( 0.000000000000000000, 0.000000000000000000, 1.000000000000000000 ) ) ;
#86 = CARTESIAN_POINT ( 'NONE',  ( -16.49999646886152860, 37.23909440143464167, 4.077215301490078048E-06 ) ) ;
#87 = DIRECTION ( 'NONE',  ( 0.000000000000000000, -0.000000000000000000, -1.000000000000000000 ) ) ;
#88 = VECTOR ( 'NONE', #120, 1000.000000000000000 ) ;
#89 = EDGE_CURVE ( 'NONE', #490, #493, #571, .T. ) ;
#90 = ORIENTED_EDGE ( 'NONE', *, *, #489, .T. ) ;
#91 = AXIS2_PLACEMENT_3D ( 'NONE', #171, #69, #328 ) ;
#92 = COORDINATED_UNIVERSAL_TIME_OFFSET ( 3, 0, .BEHIND. ) ;
#93 = DIRECTION ( 'NONE',  ( -0.5000000000000013323, 0.8660254037844379305, -0.000000000000000000 ) ) ;
#94 = ORIENTED_EDGE ( 'NONE', *, *, #161, .F. ) ;
#95 = CARTESIAN_POINT ( 'NONE',  ( -15.90007621352597056, 28.30000203870378428, 4.077215301973813482E-06 ) ) ;
#96 = CARTESIAN_POINT ( 'NONE',  ( 14.45707608561449931, 15.27500000000000391, 7.776507174585697093E-16 ) ) ;
#97 = EDGE_LOOP ( 'NONE', ( #68, #100 ) ) ;
#98 = CC_DESIGN_PERSON_AND_ORGANIZATION_ASSIGNMENT ( #43, #488, ( #376 ) ) ;
#99 = LINE ( 'NONE', #138, #553 ) ;
#100 = ORIENTED_EDGE ( 'NONE', *, *, #505, .F. ) ;
#101 = FACE_OUTER_BOUND ( 'NONE', #557, .T. ) ;
#102 = VERTEX_POINT ( 'NONE', #388 ) ;
#103 = CARTESIAN_POINT ( 'NONE',  ( 17.80707608561450428, 18.77500000000000568, 3.673940397442054938E-16 ) ) ;
#104 = ORIENTED_EDGE ( 'NONE', *, *, #108, .T. ) ;
#105 = PERSON_AND_ORGANIZATION_ROLE ( 'design_supplier' ) ;
#106 = PLANE ( 'NONE',  #563 ) ;
#107 = EDGE_LOOP ( 'NONE', ( #190, #545, #425, #45 ) ) ;
#108 = EDGE_CURVE ( 'NONE', #53, #295, #322, .T. ) ;
#109 = VECTOR ( 'NONE', #520, 1000.000000000000000 ) ;
#110 = DIRECTION ( 'NONE',  ( 0.5000000000000013323, -0.8660254037844379305, 0.000000000000000000 ) ) ;
#111 = ORIENTED_EDGE ( 'NONE', *, *, #134, .F. ) ;
#112 = ADVANCED_FACE ( 'NONE', ( #580, #577 ), #330, .T. ) ;
#113 = CARTESIAN_POINT ( 'NONE',  ( -3.999996468861495291, 15.58845930682369207, 4.077215301490078048E-06 ) ) ;
#114 = EDGE_LOOP ( 'NONE', ( #503, #441 ) ) ;
#115 = ADVANCED_FACE ( 'NONE', ( #568 ), #478, .F. ) ;
#116 = LINE ( 'NONE', #279, #381 ) ;
#117 = PLANE ( 'NONE',  #183 ) ;
#118 = AXIS2_PLACEMENT_3D ( 'NONE', #222, #438, #480 ) ;
#119 = DIRECTION ( 'NONE',  ( 0.5000000000000013323, -0.8660254037844379305, 0.000000000000000000 ) ) ;
#120 = DIRECTION ( 'NONE',  ( 0.000000000000000000, 0.000000000000000000, 1.000000000000000000 ) ) ;
#121 = AXIS2_PLACEMENT_3D ( 'NONE', #177, #119, #28 ) ;
#122 = ORIENTED_EDGE ( 'NONE', *, *, #63, .T. ) ;
#123 = CARTESIAN_POINT ( 'NONE',  ( 30.15707608561450215, 15.27500000000000036, -15.00000000000000000 ) ) ;
#124 = CARTESIAN_POINT ( 'NONE',  ( 14.45707608561449931, 18.77500000000000568, 7.776507174585697093E-16 ) ) ;
#125 = EDGE_CURVE ( 'NONE', #312, #587, #510, .T. ) ;
#126 = DIRECTION ( 'NONE',  ( 1.000000000000000000, 0.000000000000000000, 0.000000000000000000 ) ) ;
#127 = DIRECTION ( 'NONE',  ( 2.309522458705388000E-16, -1.000000000000000000, -0.000000000000000000 ) ) ;
#128 = ORIENTED_EDGE ( 'NONE', *, *, #184, .F. ) ;
#129 = EDGE_CURVE ( 'NONE', #239, #102, #629, .T. ) ;
#130 = FACE_OUTER_BOUND ( 'NONE', #31, .T. ) ;
#131 = CARTESIAN_POINT ( 'NONE',  ( -22.85224534236190053, 18.24150403784435071, 15.00000000000000000 ) ) ;
#132 = AXIS2_PLACEMENT_3D ( 'NONE', #555, #153, #515 ) ;
#133 = AXIS2_PLACEMENT_3D ( 'NONE', #617, #569, #524 ) ;
#134 = EDGE_CURVE ( 'NONE', #357, #164, #33, .T. ) ;
#135 = CARTESIAN_POINT ( 'NONE',  ( -24.47498619243020812, 21.05217363768015559, 5.619651037052729947 ) ) ;
#136 = CARTESIAN_POINT ( 'NONE',  ( 23.80707608561448296, 44.77500000000000568, 0.000000000000000000 ) ) ;
#137 = ADVANCED_FACE ( 'NONE', ( #181 ), #117, .F. ) ;
#138 = CARTESIAN_POINT ( 'NONE',  ( -15.00000000000000000, 0.000000000000000000, -15.00000000000000000 ) ) ;
#139 = ORIENTED_EDGE ( 'NONE', *, *, #543, .F. ) ;
#140 = PERSON_AND_ORGANIZATION_ROLE ( 'design_owner' ) ;
#141 = DIRECTION ( 'NONE',  ( 0.5000000000000013323, -0.8660254037844379305, 0.000000000000000000 ) ) ;
#142 = EDGE_CURVE ( 'NONE', #549, #102, #99, .T. ) ;
#143 = EDGE_LOOP ( 'NONE', ( #436, #55, #633, #616, #122, #261 ) ) ;
#144 =( GEOMETRIC_REPRESENTATION_CONTEXT ( 3 ) GLOBAL_UNCERTAINTY_ASSIGNED_CONTEXT ( ( #449 ) ) GLOBAL_UNIT_ASSIGNED_CONTEXT ( ( #350, #46, #149 ) ) REPRESENTATION_CONTEXT ( 'NONE', 'WORKASPACE' ) );
#145 = CYLINDRICAL_SURFACE ( 'NONE', #182, 6.000000000000002665 ) ;
#146 = CYLINDRICAL_SURFACE ( 'NONE', #622, 3.950000000000001510 ) ;
#147 = ORIENTED_EDGE ( 'NONE', *, *, #47, .T. ) ;
#148 = EDGE_CURVE ( 'NONE', #170, #519, #285, .T. ) ;
#149 =( NAMED_UNIT ( * ) SI_UNIT ( $, .STERADIAN. ) SOLID_ANGLE_UNIT ( ) );
#150 = FACE_OUTER_BOUND ( 'NONE', #49, .T. ) ;
#151 = ORIENTED_EDGE ( 'NONE', *, *, #430, .T. ) ;
#152 = PERSON_AND_ORGANIZATION ( #157, #290 ) ;
#153 = DIRECTION ( 'NONE',  ( 2.309522458705388000E-16, -1.000000000000000000, -0.000000000000000000 ) ) ;
#154 = ORIENTED_EDGE ( 'NONE', *, *, #482, .F. ) ;
#155 = LOCAL_TIME ( 13, 10, 36.00000000000000000, #34 ) ;
#156 = CC_DESIGN_APPROVAL ( #611, ( #38 ) ) ;
#157 = PERSON ( 'UNSPECIFIED', 'UNSPECIFIED', 'UNSPECIFIED', ('UNSPECIFIED'), ('UNSPECIFIED'), ('UNSPECIFIED') ) ;
#158 = CARTESIAN_POINT ( 'NONE',  ( 5.221968286952221483, 22.77499999999999858, -14.99847989757800093 ) ) ;
#159 = ORIENTED_EDGE ( 'NONE', *, *, #595, .F. ) ;
#160 = CARTESIAN_POINT ( 'NONE',  ( -15.00000000000000000, 22.77499999999999858, 15.00000000000000000 ) ) ;
#161 = EDGE_CURVE ( 'NONE', #410, #587, #192, .T. ) ;
#162 = EDGE_LOOP ( 'NONE', ( #323, #349, #418, #542 ) ) ;
#163 = DIRECTION ( 'NONE',  ( -0.000000000000000000, 1.000000000000000000, -0.000000000000000000 ) ) ;
#164 = VERTEX_POINT ( 'NONE', #246 ) ;
#165 = VECTOR ( 'NONE', #417, 1000.000000000000000 ) ;
#166 = LINE ( 'NONE', #504, #194 ) ;
#167 = ORIENTED_EDGE ( 'NONE', *, *, #142, .F. ) ;
#168 = ADVANCED_FACE ( 'NONE', ( #637 ), #646, .T. ) ;
#169 = DIRECTION ( 'NONE',  ( -0.000000000000000000, 1.000000000000000000, -0.000000000000000000 ) ) ;
#170 = VERTEX_POINT ( 'NONE', #447 ) ;
#171 = CARTESIAN_POINT ( 'NONE',  ( -3.999996468861495291, 15.58845930682369385, 4.077215301490078048E-06 ) ) ;
#172 = DIRECTION ( 'NONE',  ( 0.8660254037844379305, 0.5000000000000013323, 0.000000000000000000 ) ) ;
#173 = ORIENTED_EDGE ( 'NONE', *, *, #595, .T. ) ;
#174 = FACE_BOUND ( 'NONE', #199, .T. ) ;
#175 = CARTESIAN_POINT ( 'NONE',  ( -15.00000000000000000, 22.77499999999999858, 15.00000000000000000 ) ) ;
#176 = VECTOR ( 'NONE', #593, 1000.000000000000000 ) ;
#177 = CARTESIAN_POINT ( 'NONE',  ( -3.999996468861495291, 15.58845930682369385, 4.077215301490078048E-06 ) ) ;
#178 = DIRECTION ( 'NONE',  ( -0.8660254037844378194, -0.5000000000000016653, 0.000000000000000000 ) ) ;
#179 = CARTESIAN_POINT ( 'NONE',  ( 5.221968286952221483, 11.67515883401597954, -14.99847989757800093 ) ) ;
#180 = CARTESIAN_POINT ( 'NONE',  ( 20.80707608561450073, 15.27500000000000568, 0.000000000000000000 ) ) ;
#181 = FACE_OUTER_BOUND ( 'NONE', #143, .T. ) ;
#182 = AXIS2_PLACEMENT_3D ( 'NONE', #86, #233, #191 ) ;
#183 = AXIS2_PLACEMENT_3D ( 'NONE', #175, #383, #455 ) ;
#184 = EDGE_CURVE ( 'NONE', #164, #197, #354, .T. ) ;
#185 = PERSON_AND_ORGANIZATION ( #157, #290 ) ;
#186 = CARTESIAN_POINT ( 'NONE',  ( -15.07735090288456448, 22.77499999999999858, 12.00000407721530316 ) ) ;
#187 = EDGE_LOOP ( 'NONE', ( #362, #607, #352, #212 ) ) ;
#188 = DIRECTION ( 'NONE',  ( 0.000000000000000000, 0.000000000000000000, 1.000000000000000000 ) ) ;
#189 = CARTESIAN_POINT ( 'NONE',  ( -1.220944442333533386, 22.77499999999999858, 12.00000407721530316 ) ) ;
#190 = ORIENTED_EDGE ( 'NONE', *, *, #487, .F. ) ;
#191 = DIRECTION ( 'NONE',  ( 0.8660254037844378194, 0.5000000000000014433, 0.000000000000000000 ) ) ;
#192 = LINE ( 'NONE', #136, #642 ) ;
#193 = ORIENTED_EDGE ( 'NONE', *, *, #78, .F. ) ;
#194 = VECTOR ( 'NONE', #265, 1000.000000000000000 ) ;
#195 = CARTESIAN_POINT ( 'NONE',  ( -7.420796813810024872, 13.61345930682368710, 4.077215301973813482E-06 ) ) ;
#196 = DIRECTION ( 'NONE',  ( 0.5000000000000013323, -0.8660254037844379305, 0.000000000000000000 ) ) ;
#197 = VERTEX_POINT ( 'NONE', #498 ) ;
#198 = DIRECTION ( 'NONE',  ( -1.000000000000000000, 0.000000000000000000, 0.000000000000000000 ) ) ;
#199 = EDGE_LOOP ( 'NONE', ( #270, #159 ) ) ;
#200 = EDGE_CURVE ( 'NONE', #11, #232, #594, .T. ) ;
#201 = CARTESIAN_POINT ( 'NONE',  ( 23.80707608561449007, 22.77499999999999858, 0.000000000000000000 ) ) ;
#202 = PRODUCT_DEFINITION_SHAPE ( 'NONE', 'NONE',  #376 ) ;
#203 = ORIENTED_EDGE ( 'NONE', *, *, #639, .F. ) ;
#204 = AXIS2_PLACEMENT_3D ( 'NONE', #80, #484, #227 ) ;
#205 = EDGE_CURVE ( 'NONE', #214, #628, #536, .T. ) ;
#206 = APPROVAL_DATE_TIME ( #3, #619 ) ;
#207 = LOCAL_TIME ( 13, 10, 36.00000000000000000, #564 ) ;
#208 = CARTESIAN_POINT ( 'NONE',  ( -15.00000000000000000, 0.000000000000000000, 15.00000000000000000 ) ) ;
#209 = ORIENTED_EDGE ( 'NONE', *, *, #442, .T. ) ;
#210 = DATE_AND_TIME ( #457, #240 ) ;
#211 = DIRECTION ( 'NONE',  ( 2.309522458705388000E-16, -1.000000000000000000, 0.000000000000000000 ) ) ;
#212 = ORIENTED_EDGE ( 'NONE', *, *, #581, .T. ) ;
#213 = CARTESIAN_POINT ( 'NONE',  ( 27.15707608561450215, 15.27500000000000746, 0.000000000000000000 ) ) ;
#214 = VERTEX_POINT ( 'NONE', #640 ) ;
#215 = AXIS2_PLACEMENT_3D ( 'NONE', #467, #211, #67 ) ;
#216 = DIRECTION ( 'NONE',  ( -0.5000000000000013323, 0.8660254037844379305, 0.000000000000000000 ) ) ;
#217 = ORIENTED_EDGE ( 'NONE', *, *, #148, .F. ) ;
#218 = DIRECTION ( 'NONE',  ( 1.000000000000000000, 2.731847993664262725E-16, 0.000000000000000000 ) ) ;
#219 = CARTESIAN_POINT ( 'NONE',  ( -15.07735090288456981, 22.77499999999999858, 4.077215302224865577E-06 ) ) ;
#220 = CARTESIAN_POINT ( 'NONE',  ( 30.15707608561450215, 22.77499999999999858, -15.00000000000000000 ) ) ;
#221 =( BOUNDED_CURVE ( )  B_SPLINE_CURVE ( 3, ( #526, #579, #374, #179 ),
 .UNSPECIFIED., .F., .T. ) 
 B_SPLINE_CURVE_WITH_KNOTS ( ( 4, 4 ),
 ( 4.047235478900869765, 4.702287201683306606 ),
 .UNSPECIFIED. ) 
 CURVE ( )  GEOMETRIC_REPRESENTATION_ITEM ( )  RATIONAL_B_SPLINE_CURVE ( ( 1.000000000000000000, 0.9645607830304140373, 0.9645607830304140373, 1.000000000000000000 ) ) 
 REPRESENTATION_ITEM ( '' )  );
#222 = CARTESIAN_POINT ( 'NONE',  ( 20.80707608561449717, 22.77499999999999858, 0.000000000000000000 ) ) ;
#223 = AXIS2_PLACEMENT_3D ( 'NONE', #527, #127, #77 ) ;
#224 = ADVANCED_FACE ( 'NONE', ( #254 ), #340, .F. ) ;
#225 = CARTESIAN_POINT ( 'NONE',  ( 5.221968286952221483, 22.77499999999999858, -14.99847989757800093 ) ) ;
#226 = VECTOR ( 'NONE', #5, 1000.000000000000000 ) ;
#227 = DIRECTION ( 'NONE',  ( 0.000000000000000000, 0.000000000000000000, -1.000000000000000000 ) ) ;
#228 = CLOSED_SHELL ( 'NONE', ( #370, #259, #634, #244, #137, #52, #224, #434, #578, #551, #574, #42, #168, #262, #525, #528, #115, #112, #304 ) ) ;
#229 = ORIENTED_EDGE ( 'NONE', *, *, #235, .T. ) ;
#230 = PLANE ( 'NONE',  #483 ) ;
#231 = PLANE ( 'NONE',  #275 ) ;
#232 = VERTEX_POINT ( 'NONE', #96 ) ;
#233 = DIRECTION ( 'NONE',  ( 0.5000000000000013323, -0.8660254037844379305, -0.000000000000000000 ) ) ;
#234 = CARTESIAN_POINT ( 'NONE',  ( -15.07735090288456981, 22.77499999999999858, 4.077215302224865577E-06 ) ) ;
#235 = EDGE_CURVE ( 'NONE', #295, #53, #535, .T. ) ;
#236 = DATE_AND_TIME ( #643, #155 ) ;
#237 = DIRECTION ( 'NONE',  ( -0.000000000000000000, 0.000000000000000000, -1.000000000000000000 ) ) ;
#238 = CIRCLE ( 'NONE', #358, 3.949999999999999734 ) ;
#239 = VERTEX_POINT ( 'NONE', #444 ) ;
#240 = LOCAL_TIME ( 13, 10, 36.00000000000000000, #313 ) ;
#241 = APPROVAL_ROLE ( '' ) ;
#242 = DIRECTION ( 'NONE',  ( 2.309522458705388000E-16, -1.000000000000000000, -0.000000000000000000 ) ) ;
#243 = EDGE_LOOP ( 'NONE', ( #301, #396, #590, #41, #508 ) ) ;
#244 = ADVANCED_FACE ( 'NONE', ( #632 ), #146, .F. ) ;
#245 = CARTESIAN_POINT ( 'NONE',  ( -12.99038105676658361, 1.160254037844387742, -8.604672264516631586 ) ) ;
#246 = CARTESIAN_POINT ( 'NONE',  ( -12.99038105676658361, 1.160254037844387742, 15.00000000000000000 ) ) ;
#247 = ORIENTED_EDGE ( 'NONE', *, *, #278, .F. ) ;
#248 = MECHANICAL_CONTEXT ( 'NONE', #30, 'mechanical' ) ;
#249 = CC_DESIGN_PERSON_AND_ORGANIZATION_ASSIGNMENT ( #635, #140, ( #461 ) ) ;
#250 = CARTESIAN_POINT ( 'NONE',  ( -1.220944442333532498, 22.77499999999999858, 4.077215301490078048E-06 ) ) ;
#251 = ORIENTED_EDGE ( 'NONE', *, *, #125, .T. ) ;
#252 = VECTOR ( 'NONE', #415, 1000.000000000000000 ) ;
#253 = DATE_TIME_ROLE ( 'classification_date' ) ;
#254 = FACE_OUTER_BOUND ( 'NONE', #243, .T. ) ;
#255 = MANIFOLD_SOLID_BREP ( 'Corte-extrus\X2\00e3\X0\o13', #228 ) ;
#256 = ORIENTED_EDGE ( 'NONE', *, *, #603, .F. ) ;
#257 = CARTESIAN_POINT ( 'NONE',  ( 20.80707608561450073, 18.77500000000000568, 0.000000000000000000 ) ) ;
#258 = ORIENTED_EDGE ( 'NONE', *, *, #71, .F. ) ;
#259 = ADVANCED_FACE ( 'NONE', ( #544 ), #300, .F. ) ;
#260 = DIRECTION ( 'NONE',  ( 2.309522458705388000E-16, -1.000000000000000000, 0.000000000000000000 ) ) ;
#261 = ORIENTED_EDGE ( 'NONE', *, *, #430, .F. ) ;
#262 = ADVANCED_FACE ( 'NONE', ( #644, #150 ), #341, .T. ) ;
#263 = CIRCLE ( 'NONE', #133, 3.949999999999999734 ) ;
#264 = CALENDAR_DATE ( 2025, 11, 7 ) ;
#265 = DIRECTION ( 'NONE',  ( 0.5000000000000013323, -0.8660254037844379305, -0.000000000000000000 ) ) ;
#266 = ORIENTED_EDGE ( 'NONE', *, *, #627, .F. ) ;
#267 = APPROVAL_STATUS ( 'not_yet_approved' ) ;
#268 = EDGE_CURVE ( 'NONE', #421, #596, #630, .T. ) ;
#269 = CARTESIAN_POINT ( 'NONE',  ( 27.15707608561450215, 18.77500000000000568, 0.000000000000000000 ) ) ;
#270 = ORIENTED_EDGE ( 'NONE', *, *, #365, .F. ) ;
#271 = LINE ( 'NONE', #471, #4 ) ;
#272 = ORIENTED_EDGE ( 'NONE', *, *, #282, .T. ) ;
#273 = VECTOR ( 'NONE', #163, 1000.000000000000000 ) ;
#274 = APPROVAL_PERSON_ORGANIZATION ( #588, #13, #241 ) ;
#275 = AXIS2_PLACEMENT_3D ( 'NONE', #378, #476, #172 ) ;
#276 = DIRECTION ( 'NONE',  ( 2.309522458705388000E-16, -1.000000000000000000, 0.000000000000000000 ) ) ;
#277 = CARTESIAN_POINT ( 'NONE',  ( 20.80707608561450073, 18.77500000000000568, 0.000000000000000000 ) ) ;
#278 = EDGE_CURVE ( 'NONE', #421, #400, #548, .T. ) ;
#279 = CARTESIAN_POINT ( 'NONE',  ( 30.15707608561450215, 22.77499999999999858, -37.28565593195450845 ) ) ;
#280 = DIRECTION ( 'NONE',  ( 1.000000000000000000, 2.309522458705388000E-16, 0.000000000000000000 ) ) ;
#281 = ORIENTED_EDGE ( 'NONE', *, *, #465, .F. ) ;
#282 = EDGE_CURVE ( 'NONE', #295, #17, #345, .T. ) ;
#283 = DIRECTION ( 'NONE',  ( 0.000000000000000000, 0.000000000000000000, 1.000000000000000000 ) ) ;
#284 = CARTESIAN_POINT ( 'NONE',  ( 30.15707608561450215, 22.77499999999999858, 15.00000000000000000 ) ) ;
#285 = CIRCLE ( 'NONE', #481, 29.99999999999998579 ) ;
#286 = AXIS2_PLACEMENT_3D ( 'NONE', #598, #93, #297 ) ;
#287 = CARTESIAN_POINT ( 'NONE',  ( 20.80707608561450073, 18.77500000000000568, 0.000000000000000000 ) ) ;
#288 = CIRCLE ( 'NONE', #91, 6.000000000000001776 ) ;
#289 = DIRECTION ( 'NONE',  ( 2.309522458705388000E-16, -1.000000000000000000, -0.000000000000000000 ) ) ;
#290 = ORGANIZATION ( 'UNSPECIFIED', 'UNSPECIFIED', '' ) ;
#291 = DIRECTION ( 'NONE',  ( 0.000000000000000000, 1.000000000000000000, 0.000000000000000000 ) ) ;
#292 = DIRECTION ( 'NONE',  ( 0.5000000000000015543, -0.8660254037844377084, -0.000000000000000000 ) ) ;
#293 = DATE_AND_TIME ( #299, #631 ) ;
#294 = DIRECTION ( 'NONE',  ( 1.000000000000000000, 0.000000000000000000, -0.000000000000000000 ) ) ;
#295 = VERTEX_POINT ( 'NONE', #561 ) ;
#296 = LINE ( 'NONE', #485, #491 ) ;
#297 = DIRECTION ( 'NONE',  ( 0.8660254037844378194, 0.5000000000000015543, 0.000000000000000000 ) ) ;
#298 = ORIENTED_EDGE ( 'NONE', *, *, #235, .F. ) ;
#299 = CALENDAR_DATE ( 2025, 11, 7 ) ;
#300 = CYLINDRICAL_SURFACE ( 'NONE', #531, 6.350000000000001421 ) ;
#301 = ORIENTED_EDGE ( 'NONE', *, *, #142, .T. ) ;
#302 = CARTESIAN_POINT ( 'NONE',  ( -15.07735090288456981, 22.77499999999999858, 4.077215302224865577E-06 ) ) ;
#303 = ORIENTED_EDGE ( 'NONE', *, *, #282, .F. ) ;
#304 = ADVANCED_FACE ( 'NONE', ( #605 ), #361, .F. ) ;
#305 = DIRECTION ( 'NONE',  ( -0.000000000000000000, -1.000000000000000000, -0.000000000000000000 ) ) ;
#306 = ORIENTED_EDGE ( 'NONE', *, *, #347, .F. ) ;
#307 = CC_DESIGN_SECURITY_CLASSIFICATION ( #523, ( #38 ) ) ;
#308 = LINE ( 'NONE', #269, #538 ) ;
#309 = EDGE_CURVE ( 'NONE', #239, #519, #65, .T. ) ;
#310 = ORIENTED_EDGE ( 'NONE', *, *, #419, .T. ) ;
#311 = CARTESIAN_POINT ( 'NONE',  ( 30.15707608561450215, 22.77499999999999858, 15.00000000000000000 ) ) ;
#312 = VERTEX_POINT ( 'NONE', #103 ) ;
#313 = COORDINATED_UNIVERSAL_TIME_OFFSET ( 3, 0, .BEHIND. ) ;
#314 = DIRECTION ( 'NONE',  ( 1.000000000000000000, 0.000000000000000000, 0.000000000000000000 ) ) ;
#315 = ORIENTED_EDGE ( 'NONE', *, *, #393, .T. ) ;
#316 = VECTOR ( 'NONE', #292, 1000.000000000000227 ) ;
#317 = EDGE_CURVE ( 'NONE', #512, #404, #308, .T. ) ;
#318 = CIRCLE ( 'NONE', #204, 2.999999999999993783 ) ;
#319 = CARTESIAN_POINT ( 'NONE',  ( 30.15707608561450215, 15.27500000000000036, 15.00000000000000000 ) ) ;
#320 = ORIENTED_EDGE ( 'NONE', *, *, #556, .T. ) ;
#321 = DIRECTION ( 'NONE',  ( -0.5000000000000013323, 0.8660254037844379305, -0.000000000000000000 ) ) ;
#322 =( BOUNDED_CURVE ( )  B_SPLINE_CURVE ( 3, ( #234, #332, #75, #427 ),
 .UNSPECIFIED., .F., .T. ) 
 B_SPLINE_CURVE_WITH_KNOTS ( ( 4, 4 ),
 ( 3.141592653589793116, 6.283185307179586232 ),
 .UNSPECIFIED. ) 
 CURVE ( )  GEOMETRIC_REPRESENTATION_ITEM ( )  RATIONAL_B_SPLINE_CURVE ( ( 1.000000000000000000, 0.3333333333333333703, 0.3333333333333333703, 1.000000000000000000 ) ) 
 REPRESENTATION_ITEM ( '' )  );
#323 = ORIENTED_EDGE ( 'NONE', *, *, #129, .F. ) ;
#324 = CARTESIAN_POINT ( 'NONE',  ( 20.80707608561450073, 15.27500000000000568, 0.000000000000000000 ) ) ;
#325 = LINE ( 'NONE', #284, #403 ) ;
#326 = CIRCLE ( 'NONE', #501, 3.950000000000000622 ) ;
#327 = AXIS2_PLACEMENT_3D ( 'NONE', #426, #126, #576 ) ;
#328 = DIRECTION ( 'NONE',  ( 0.8660254037844378194, 0.5000000000000014433, 0.000000000000000000 ) ) ;
#329 = CC_DESIGN_DATE_AND_TIME_ASSIGNMENT ( #210, #253, ( #523 ) ) ;
#330 = PLANE ( 'NONE',  #344 ) ;
#331 = CARTESIAN_POINT ( 'NONE',  ( 30.15707608561450215, 15.27500000000000036, 15.00000000000000000 ) ) ;
#332 = CARTESIAN_POINT ( 'NONE',  ( -15.07735090288456803, 22.77499999999999858, -11.99999592278469862 ) ) ;
#333 = CARTESIAN_POINT ( 'NONE',  ( 27.15707608561450215, 18.77500000000000568, 0.000000000000000000 ) ) ;
#334 = FACE_OUTER_BOUND ( 'NONE', #97, .T. ) ;
#335 = ORIENTED_EDGE ( 'NONE', *, *, #460, .T. ) ;
#336 = LINE ( 'NONE', #220, #26 ) ;
#337 = AXIS2_PLACEMENT_3D ( 'NONE', #324, #276, #218 ) ;
#338 = CARTESIAN_POINT ( 'NONE',  ( 20.80707608561449717, 18.77500000000000568, 0.000000000000000000 ) ) ;
#339 = APPLICATION_PROTOCOL_DEFINITION ( 'international standard', 'config_control_design', 1994, #30 ) ;
#340 = PLANE ( 'NONE',  #572 ) ;
#341 = PLANE ( 'NONE',  #16 ) ;
#342 = VERTEX_POINT ( 'NONE', #311 ) ;
#343 = APPROVAL_STATUS ( 'not_yet_approved' ) ;
#344 = AXIS2_PLACEMENT_3D ( 'NONE', #277, #20, #280 ) ;
#345 = LINE ( 'NONE', #541, #252 ) ;
#346 = VECTOR ( 'NONE', #367, 1000.000000000000000 ) ;
#347 = EDGE_CURVE ( 'NONE', #519, #628, #610, .T. ) ;
#348 = AXIS2_PLACEMENT_3D ( 'NONE', #79, #24, #377 ) ;
#349 = ORIENTED_EDGE ( 'NONE', *, *, #309, .T. ) ;
#350 =( LENGTH_UNIT ( ) NAMED_UNIT ( * ) SI_UNIT ( .MILLI., .METRE. ) );
#351 = DIRECTION ( 'NONE',  ( 0.8660254037844374864, 0.5000000000000018874, 0.000000000000000000 ) ) ;
#352 = ORIENTED_EDGE ( 'NONE', *, *, #317, .T. ) ;
#353 = APPLICATION_PROTOCOL_DEFINITION ( 'international standard', 'config_control_design', 1994, #84 ) ;
#354 = LINE ( 'NONE', #51, #70 ) ;
#355 = ORIENTED_EDGE ( 'NONE', *, *, #398, .F. ) ;
#356 = CARTESIAN_POINT ( 'NONE',  ( 20.80707608561449362, 44.77500000000000568, 0.000000000000000000 ) ) ;
#357 = VERTEX_POINT ( 'NONE', #469 ) ;
#358 = AXIS2_PLACEMENT_3D ( 'NONE', #54, #110, #507 ) ;
#359 = CC_DESIGN_APPROVAL ( #13, ( #376 ) ) ;
#360 = AXIS2_PLACEMENT_3D ( 'NONE', #131, #178, #385 ) ;
#361 = CYLINDRICAL_SURFACE ( 'NONE', #132, 2.999999999999992450 ) ;
#362 = ORIENTED_EDGE ( 'NONE', *, *, #200, .F. ) ;
#363 = PERSON_AND_ORGANIZATION ( #157, #290 ) ;
#364 = DIRECTION ( 'NONE',  ( 1.000000000000000000, 0.000000000000000000, 0.000000000000000000 ) ) ;
#365 = EDGE_CURVE ( 'NONE', #400, #602, #238, .T. ) ;
#366 = EDGE_LOOP ( 'NONE', ( #147, #554 ) ) ;
#367 = DIRECTION ( 'NONE',  ( 0.000000000000000000, 0.000000000000000000, -1.000000000000000000 ) ) ;
#368 = ORIENTED_EDGE ( 'NONE', *, *, #509, .T. ) ;
#369 = AXIS2_PLACEMENT_3D ( 'NONE', #502, #440, #237 ) ;
#370 = ADVANCED_FACE ( 'NONE', ( #1 ), #57, .F. ) ;
#371 = PERSON_AND_ORGANIZATION ( #157, #290 ) ;
#372 = FACE_BOUND ( 'NONE', #62, .T. ) ;
#373 = ORIENTED_EDGE ( 'NONE', *, *, #365, .T. ) ;
#374 = CARTESIAN_POINT ( 'NONE',  ( -1.448113904708208555, 7.824185085143890994, -14.93109791132298803 ) ) ;
#375 = ORIENTED_EDGE ( 'NONE', *, *, #422, .F. ) ;
#376 = PRODUCT_DEFINITION ( 'UNKNOWN', '', #38, #39 ) ;
#377 = DIRECTION ( 'NONE',  ( 0.8660254037844374864, 0.5000000000000018874, 0.000000000000000000 ) ) ;
#378 = CARTESIAN_POINT ( 'NONE',  ( -3.999996468861495291, 15.58845930682369385, 4.077215301490078048E-06 ) ) ;
#379 = VERTEX_POINT ( 'NONE', #12 ) ;
#380 = CIRCLE ( 'NONE', #570, 6.350000000000001421 ) ;
#381 = VECTOR ( 'NONE', #387, 1000.000000000000000 ) ;
#382 = CARTESIAN_POINT ( 'NONE',  ( 11.45707608561451529, 15.27500000000000036, -15.00000000000000000 ) ) ;
#383 = DIRECTION ( 'NONE',  ( 0.000000000000000000, 0.000000000000000000, -1.000000000000000000 ) ) ;
#384 = DIRECTION ( 'NONE',  ( 2.309522458705388000E-16, -1.000000000000000000, 0.000000000000000000 ) ) ;
#385 = DIRECTION ( 'NONE',  ( 0.5000000000000015543, -0.8660254037844377084, 0.000000000000000000 ) ) ;
#386 = PRODUCT_RELATED_PRODUCT_CATEGORY ( 'detail', '', ( #461 ) ) ;
#387 = DIRECTION ( 'NONE',  ( 0.000000000000000000, 0.000000000000000000, 1.000000000000000000 ) ) ;
#388 = CARTESIAN_POINT ( 'NONE',  ( 5.221968286952219707, 11.67515883401597954, -15.00000000000000000 ) ) ;
#389 = ORIENTED_EDGE ( 'NONE', *, *, #393, .F. ) ;
#390 = AXIS2_PLACEMENT_3D ( 'NONE', #475, #623, #19 ) ;
#391 = CARTESIAN_POINT ( 'NONE',  ( 14.45707608561450108, 18.77500000000000568, 7.776507174585695121E-16 ) ) ;
#392 = LOCAL_TIME ( 13, 10, 36.00000000000000000, #92 ) ;
#393 = EDGE_CURVE ( 'NONE', #11, #512, #439, .T. ) ;
#394 = APPROVAL_ROLE ( '' ) ;
#395 = DIRECTION ( 'NONE',  ( 2.309522458705388000E-16, -1.000000000000000000, -0.000000000000000000 ) ) ;
#396 = ORIENTED_EDGE ( 'NONE', *, *, #472, .T. ) ;
#397 = FACE_OUTER_BOUND ( 'NONE', #453, .T. ) ;
#398 = EDGE_CURVE ( 'NONE', #470, #493, #458, .T. ) ;
#399 = CARTESIAN_POINT ( 'NONE',  ( -9.058475523628910508, 32.25000203870379778, 4.077215301490078048E-06 ) ) ;
#400 = VERTEX_POINT ( 'NONE', #552 ) ;
#401 = DATE_TIME_ROLE ( 'creation_date' ) ;
#402 = DIRECTION ( 'NONE',  ( -0.8660254037844379305, -0.5000000000000013323, -0.000000000000000000 ) ) ;
#403 = VECTOR ( 'NONE', #521, 1000.000000000000000 ) ;
#404 = VERTEX_POINT ( 'NONE', #213 ) ;
#405 = LINE ( 'NONE', #95, #176 ) ;
#406 = CARTESIAN_POINT ( 'NONE',  ( 30.15707608561450215, 15.27500000000000036, -37.28565593195450845 ) ) ;
#407 = ORIENTED_EDGE ( 'NONE', *, *, #184, .T. ) ;
#408 =( BOUNDED_CURVE ( )  B_SPLINE_CURVE ( 3, ( #245, #446, #135, #494 ),
 .UNSPECIFIED., .F., .T. ) 
 B_SPLINE_CURVE_WITH_KNOTS ( ( 4, 4 ),
 ( 5.377542481868509583, 6.283185593546847691 ),
 .UNSPECIFIED. ) 
 CURVE ( )  GEOMETRIC_REPRESENTATION_ITEM ( )  RATIONAL_B_SPLINE_CURVE ( ( 1.000000000000000000, 0.9328108267542249976, 0.9328108267542249976, 1.000000000000000000 ) ) 
 REPRESENTATION_ITEM ( '' )  );
#409 = CARTESIAN_POINT ( 'NONE',  ( 11.45707608561451174, 15.27500000000000036, 15.00000000000000000 ) ) ;
#410 = VERTEX_POINT ( 'NONE', #201 ) ;
#411 = LINE ( 'NONE', #208, #165 ) ;
#412 = EDGE_LOOP ( 'NONE', ( #266, #209, #448, #373 ) ) ;
#413 = LINE ( 'NONE', #160, #604 ) ;
#414 = EDGE_LOOP ( 'NONE', ( #203, #128, #111 ) ) ;
#415 = DIRECTION ( 'NONE',  ( 0.5000000000000013323, -0.8660254037844379305, -0.000000000000000000 ) ) ;
#416 = EDGE_LOOP ( 'NONE', ( #81, #599 ) ) ;
#417 = DIRECTION ( 'NONE',  ( -0.8660254037844379305, -0.5000000000000013323, -0.000000000000000000 ) ) ;
#418 = ORIENTED_EDGE ( 'NONE', *, *, #347, .T. ) ;
#419 = EDGE_CURVE ( 'NONE', #470, #164, #411, .T. ) ;
#420 = DIRECTION ( 'NONE',  ( -0.8660254037844379305, -0.5000000000000013323, 0.000000000000000000 ) ) ;
#421 = VERTEX_POINT ( 'NONE', #613 ) ;
#422 = EDGE_CURVE ( 'NONE', #53, #25, #166, .T. ) ;
#423 = CARTESIAN_POINT ( 'NONE',  ( 23.80707608561449007, 18.77500000000000568, 0.000000000000000000 ) ) ;
#424 = FACE_BOUND ( 'NONE', #114, .T. ) ;
#425 = ORIENTED_EDGE ( 'NONE', *, *, #63, .F. ) ;
#426 = CARTESIAN_POINT ( 'NONE',  ( 5.221968286952221483, -3.225000000000002309, -14.99847989757800093 ) ) ;
#427 = CARTESIAN_POINT ( 'NONE',  ( -1.220944442333532498, 22.77499999999999858, 4.077215301490078048E-06 ) ) ;
#428 = AXIS2_PLACEMENT_3D ( 'NONE', #356, #601, #314 ) ;
#429 = FACE_OUTER_BOUND ( 'NONE', #645, .T. ) ;
#430 = EDGE_CURVE ( 'NONE', #170, #342, #413, .T. ) ;
#431 = DIRECTION ( 'NONE',  ( 2.309522458705388000E-16, -1.000000000000000000, 0.000000000000000000 ) ) ;
#432 = ORIENTED_EDGE ( 'NONE', *, *, #268, .T. ) ;
#433 = CARTESIAN_POINT ( 'NONE',  ( 5.525016493792833217, -3.225000000000002309, 14.99998942644469224 ) ) ;
#434 = ADVANCED_FACE ( 'NONE', ( #559, #372, #101 ), #106, .F. ) ;
#435 = LINE ( 'NONE', #626, #474 ) ;
#436 = ORIENTED_EDGE ( 'NONE', *, *, #489, .F. ) ;
#437 = CARTESIAN_POINT ( 'NONE',  ( 5.221968286952221483, 22.77499999999999858, -15.00000000000000000 ) ) ;
#438 = DIRECTION ( 'NONE',  ( 0.000000000000000000, -1.000000000000000000, 0.000000000000000000 ) ) ;
#439 = CIRCLE ( 'NONE', #451, 6.350000000000001421 ) ;
#440 = DIRECTION ( 'NONE',  ( 1.000000000000000000, 0.000000000000000000, -0.000000000000000000 ) ) ;
#441 = ORIENTED_EDGE ( 'NONE', *, *, #442, .F. ) ;
#442 = EDGE_CURVE ( 'NONE', #596, #421, #326, .T. ) ;
#443 = APPROVAL_DATE_TIME ( #293, #13 ) ;
#444 = CARTESIAN_POINT ( 'NONE',  ( 5.221968286952221483, 11.67515883401597954, -14.99847989757800093 ) ) ;
#445 = ORIENTED_EDGE ( 'NONE', *, *, #148, .T. ) ;
#446 = CARTESIAN_POINT ( 'NONE',  ( -20.37104495731369624, 13.94393890718141549, -2.815310481033835632 ) ) ;
#447 = CARTESIAN_POINT ( 'NONE',  ( -24.47498218451245222, 22.77499999999999858, 14.99999801745996031 ) ) ;
#448 = ORIENTED_EDGE ( 'NONE', *, *, #278, .T. ) ;
#449 = UNCERTAINTY_MEASURE_WITH_UNIT (LENGTH_MEASURE( 1.000000000000000082E-05 ), #350, 'distance_accuracy_value', 'NONE');
#450 = DIRECTION ( 'NONE',  ( 0.000000000000000000, 0.000000000000000000, 1.000000000000000000 ) ) ;
#451 = AXIS2_PLACEMENT_3D ( 'NONE', #257, #260, #462 ) ;
#452 = CARTESIAN_POINT ( 'NONE',  ( 20.80707608561450073, 18.77500000000000568, 0.000000000000000000 ) ) ;
#453 = EDGE_LOOP ( 'NONE', ( #566, #496, #27, #303 ) ) ;
#454 = APPROVAL_ROLE ( '' ) ;
#455 = DIRECTION ( 'NONE',  ( -1.000000000000000000, 0.000000000000000000, -0.000000000000000000 ) ) ;
#456 = ORIENTED_EDGE ( 'NONE', *, *, #603, .T. ) ;
#457 = CALENDAR_DATE ( 2025, 11, 7 ) ;
#458 = LINE ( 'NONE', #319, #226 ) ;
#459 = ORIENTED_EDGE ( 'NONE', *, *, #639, .T. ) ;
#460 = EDGE_CURVE ( 'NONE', #587, #312, #37, .T. ) ;
#461 = PRODUCT ( '14141414', '14141414', '', ( #248 ) ) ;
#462 = DIRECTION ( 'NONE',  ( 1.000000000000000000, 0.000000000000000000, 0.000000000000000000 ) ) ;
#463 = ORIENTED_EDGE ( 'NONE', *, *, #205, .T. ) ;
#464 = VECTOR ( 'NONE', #242, 1000.000000000000000 ) ;
#465 = EDGE_CURVE ( 'NONE', #490, #549, #271, .T. ) ;
#466 = PERSON_AND_ORGANIZATION ( #157, #290 ) ;
#467 = CARTESIAN_POINT ( 'NONE',  ( 20.80707608561449717, 18.77500000000000568, 0.000000000000000000 ) ) ;
#468 = ORIENTED_EDGE ( 'NONE', *, *, #317, .F. ) ;
#469 = CARTESIAN_POINT ( 'NONE',  ( -24.47498218451250906, 21.05216669576306998, 14.99999801746100836 ) ) ;
#470 = VERTEX_POINT ( 'NONE', #409 ) ;
#471 = CARTESIAN_POINT ( 'NONE',  ( 30.15707608561450215, 15.27500000000000036, -15.00000000000000000 ) ) ;
#472 = EDGE_CURVE ( 'NONE', #102, #628, #567, .T. ) ;
#473 = ORIENTED_EDGE ( 'NONE', *, *, #9, .F. ) ;
#474 = VECTOR ( 'NONE', #289, 1000.000000000000000 ) ;
#475 = CARTESIAN_POINT ( 'NONE',  ( -16.49999646886152860, 37.23909440143464167, 4.077215301490078048E-06 ) ) ;
#476 = DIRECTION ( 'NONE',  ( 0.5000000000000013323, -0.8660254037844379305, 0.000000000000000000 ) ) ;
#477 = DIRECTION ( 'NONE',  ( 1.000000000000000000, 0.000000000000000000, 0.000000000000000000 ) ) ;
#478 = CYLINDRICAL_SURFACE ( 'NONE', #223, 6.350000000000001421 ) ;
#479 = FACE_OUTER_BOUND ( 'NONE', #412, .T. ) ;
#480 = DIRECTION ( 'NONE',  ( 0.000000000000000000, 0.000000000000000000, -1.000000000000000000 ) ) ;
#481 = AXIS2_PLACEMENT_3D ( 'NONE', #44, #305, #85 ) ;
#482 = EDGE_CURVE ( 'NONE', #214, #342, #116, .T. ) ;
#483 = AXIS2_PLACEMENT_3D ( 'NONE', #82, #216, #420 ) ;
#484 = DIRECTION ( 'NONE',  ( 0.000000000000000000, -1.000000000000000000, 0.000000000000000000 ) ) ;
#485 = CARTESIAN_POINT ( 'NONE',  ( 11.45707608561451174, 15.27500000000000036, -37.28565593195450845 ) ) ;
#486 = CARTESIAN_POINT ( 'NONE',  ( 5.221968286952219707, 11.67515883401597954, -15.00000000000000000 ) ) ;
#487 = EDGE_CURVE ( 'NONE', #214, #490, #336, .T. ) ;
#488 = PERSON_AND_ORGANIZATION_ROLE ( 'creator' ) ;
#489 = EDGE_CURVE ( 'NONE', #357, #170, #625, .T. ) ;
#490 = VERTEX_POINT ( 'NONE', #123 ) ;
#491 = VECTOR ( 'NONE', #188, 1000.000000000000000 ) ;
#492 = DIRECTION ( 'NONE',  ( 0.000000000000000000, -1.000000000000000000, 0.000000000000000000 ) ) ;
#493 = VERTEX_POINT ( 'NONE', #331 ) ;
#494 = CARTESIAN_POINT ( 'NONE',  ( -24.47498218451250906, 21.05216669576306998, 14.99999801746100836 ) ) ;
#495 = DIRECTION ( 'NONE',  ( 0.000000000000000000, 0.000000000000000000, 1.000000000000000000 ) ) ;
#496 = ORIENTED_EDGE ( 'NONE', *, *, #422, .T. ) ;
#497 = CC_DESIGN_PERSON_AND_ORGANIZATION_ASSIGNMENT ( #152, #550, ( #38 ) ) ;
#498 = CARTESIAN_POINT ( 'NONE',  ( -12.99038105676658361, 1.160254037844387742, -8.604672264516631586 ) ) ;
#499 = EDGE_LOOP ( 'NONE', ( #473, #36, #506, #335 ) ) ;
#500 = CALENDAR_DATE ( 2025, 11, 7 ) ;
#501 = AXIS2_PLACEMENT_3D ( 'NONE', #113, #321, #60 ) ;
#502 = CARTESIAN_POINT ( 'NONE',  ( 30.15707608561450215, 22.77499999999999858, -37.28565593195450845 ) ) ;
#503 = ORIENTED_EDGE ( 'NONE', *, *, #268, .F. ) ;
#504 = CARTESIAN_POINT ( 'NONE',  ( -21.69614889156815707, 34.23909440143463456, 4.077215302224865577E-06 ) ) ;
#505 = EDGE_CURVE ( 'NONE', #25, #17, #288, .T. ) ;
#506 = ORIENTED_EDGE ( 'NONE', *, *, #161, .T. ) ;
#507 = DIRECTION ( 'NONE',  ( 0.8660254037844380415, 0.5000000000000012212, 0.000000000000000000 ) ) ;
#508 = ORIENTED_EDGE ( 'NONE', *, *, #465, .T. ) ;
#509 = EDGE_CURVE ( 'NONE', #512, #11, #582, .T. ) ;
#510 = CIRCLE ( 'NONE', #591, 2.999999999999992450 ) ;
#511 = DIRECTION ( 'NONE',  ( 0.000000000000000000, -1.000000000000000000, 0.000000000000000000 ) ) ;
#512 = VERTEX_POINT ( 'NONE', #333 ) ;
#513 = VECTOR ( 'NONE', #40, 1000.000000000000000 ) ;
#514 = AXIS2_PLACEMENT_3D ( 'NONE', #585, #450, #32 ) ;
#515 = DIRECTION ( 'NONE',  ( 1.000000000000000000, 0.000000000000000000, 0.000000000000000000 ) ) ;
#516 = ORIENTED_EDGE ( 'NONE', *, *, #581, .F. ) ;
#517 = CC_DESIGN_PERSON_AND_ORGANIZATION_ASSIGNMENT ( #371, #105, ( #38 ) ) ;
#518 = DIRECTION ( 'NONE',  ( 2.309522458705388000E-16, -1.000000000000000000, -0.000000000000000000 ) ) ;
#519 = VERTEX_POINT ( 'NONE', #225 ) ;
#520 = DIRECTION ( 'NONE',  ( -0.000000000000000000, 1.000000000000000000, -0.000000000000000000 ) ) ;
#521 = DIRECTION ( 'NONE',  ( -0.000000000000000000, 1.000000000000000000, -0.000000000000000000 ) ) ;
#522 = APPROVAL_PERSON_ORGANIZATION ( #185, #611, #394 ) ;
#523 = SECURITY_CLASSIFICATION ( '', '', #56 ) ;
#524 = DIRECTION ( 'NONE',  ( 0.8660254037844380415, 0.5000000000000012212, 0.000000000000000000 ) ) ;
#525 = ADVANCED_FACE ( 'NONE', ( #615 ), #22, .F. ) ;
#526 = CARTESIAN_POINT ( 'NONE',  ( -12.99038105676658361, 1.160254037844387742, -8.604672264516631586 ) ) ;
#527 = CARTESIAN_POINT ( 'NONE',  ( 20.80707608561450073, 18.77500000000000568, 0.000000000000000000 ) ) ;
#528 = ADVANCED_FACE ( 'NONE', ( #15 ), #529, .T. ) ;
#529 = CYLINDRICAL_SURFACE ( 'NONE', #540, 29.99999999999998579 ) ;
#530 = CARTESIAN_POINT ( 'NONE',  ( -9.196148891568123318, 12.58845930682368497, 4.077215302224865577E-06 ) ) ;
#531 = AXIS2_PLACEMENT_3D ( 'NONE', #452, #395, #586 ) ;
#532 = DIRECTION ( 'NONE',  ( 0.000000000000000000, -1.000000000000000000, 0.000000000000000000 ) ) ;
#533 = CARTESIAN_POINT ( 'NONE',  ( 1.196155953845135622, 18.58845930682370096, 4.077215301490078048E-06 ) ) ;
#534 = CARTESIAN_POINT ( 'NONE',  ( -15.00000000000000000, 22.77499999999999858, -15.00000000000000000 ) ) ;
#535 =( BOUNDED_CURVE ( )  B_SPLINE_CURVE ( 3, ( #250, #189, #186, #302 ),
 .UNSPECIFIED., .F., .T. ) 
 B_SPLINE_CURVE_WITH_KNOTS ( ( 4, 4 ),
 ( 0.000000000000000000, 3.141592653589793116 ),
 .UNSPECIFIED. ) 
 CURVE ( )  GEOMETRIC_REPRESENTATION_ITEM ( )  RATIONAL_B_SPLINE_CURVE ( ( 1.000000000000000000, 0.3333333333333333703, 0.3333333333333333703, 1.000000000000000000 ) ) 
 REPRESENTATION_ITEM ( '' )  );
#536 = LINE ( 'NONE', #584, #513 ) ;
#537 = EDGE_LOOP ( 'NONE', ( #459, #90, #445, #560, #139 ) ) ;
#538 = VECTOR ( 'NONE', #518, 1000.000000000000000 ) ;
#539 = COORDINATED_UNIVERSAL_TIME_OFFSET ( 3, 0, .BEHIND. ) ;
#540 = AXIS2_PLACEMENT_3D ( 'NONE', #433, #169, #283 ) ;
#541 = CARTESIAN_POINT ( 'NONE',  ( -11.30384404615490013, 40.23909440143465588, 4.077215301490078048E-06 ) ) ;
#542 = ORIENTED_EDGE ( 'NONE', *, *, #472, .F. ) ;
#543 = EDGE_CURVE ( 'NONE', #197, #239, #221, .T. ) ;
#544 = FACE_OUTER_BOUND ( 'NONE', #66, .T. ) ;
#545 = ORIENTED_EDGE ( 'NONE', *, *, #482, .T. ) ;
#546 = CC_DESIGN_DATE_AND_TIME_ASSIGNMENT ( #236, #401, ( #376 ) ) ;
#547 = CARTESIAN_POINT ( 'NONE',  ( -3.420796813810014214, 6.685256076548181881, 4.077215301973813482E-06 ) ) ;
#548 = LINE ( 'NONE', #399, #59 ) ;
#549 = VERTEX_POINT ( 'NONE', #382 ) ;
#550 = PERSON_AND_ORGANIZATION_ROLE ( 'creator' ) ;
#551 = ADVANCED_FACE ( 'NONE', ( #479 ), #620, .F. ) ;
#552 = CARTESIAN_POINT ( 'NONE',  ( 3.420803876087046724, 10.63525607654819360, 4.077215301490078048E-06 ) ) ;
#553 = VECTOR ( 'NONE', #402, 1000.000000000000000 ) ;
#554 = ORIENTED_EDGE ( 'NONE', *, *, #71, .T. ) ;
#555 = CARTESIAN_POINT ( 'NONE',  ( 20.80707608561449362, 44.77500000000000568, 0.000000000000000000 ) ) ;
#556 = EDGE_CURVE ( 'NONE', #17, #25, #18, .T. ) ;
#557 = EDGE_LOOP ( 'NONE', ( #306, #217, #151, #154, #463 ) ) ;
#558 = SHAPE_DEFINITION_REPRESENTATION ( #202, #636 ) ;
#559 = FACE_BOUND ( 'NONE', #366, .T. ) ;
#560 = ORIENTED_EDGE ( 'NONE', *, *, #309, .F. ) ;
#561 = CARTESIAN_POINT ( 'NONE',  ( -1.220944442333532498, 22.77499999999999858, 4.077215301490078048E-06 ) ) ;
#562 = ORIENTED_EDGE ( 'NONE', *, *, #543, .T. ) ;
#563 = AXIS2_PLACEMENT_3D ( 'NONE', #10, #511, #565 ) ;
#564 = COORDINATED_UNIVERSAL_TIME_OFFSET ( 3, 0, .BEHIND. ) ;
#565 = DIRECTION ( 'NONE',  ( 0.000000000000000000, -0.000000000000000000, -1.000000000000000000 ) ) ;
#566 = ORIENTED_EDGE ( 'NONE', *, *, #108, .F. ) ;
#567 = LINE ( 'NONE', #573, #592 ) ;
#568 = FACE_OUTER_BOUND ( 'NONE', #187, .T. ) ;
#569 = DIRECTION ( 'NONE',  ( 0.5000000000000013323, -0.8660254037844379305, 0.000000000000000000 ) ) ;
#570 = AXIS2_PLACEMENT_3D ( 'NONE', #180, #575, #72 ) ;
#571 = LINE ( 'NONE', #618, #88 ) ;
#572 = AXIS2_PLACEMENT_3D ( 'NONE', #534, #495, #294 ) ;
#573 = CARTESIAN_POINT ( 'NONE',  ( 5.221968286952219707, 22.77499999999999858, -15.00000000000000000 ) ) ;
#574 = ADVANCED_FACE ( 'NONE', ( #429 ), #76, .F. ) ;
#575 = DIRECTION ( 'NONE',  ( 2.309522458705388000E-16, -1.000000000000000000, 0.000000000000000000 ) ) ;
#576 = DIRECTION ( 'NONE',  ( 0.000000000000000000, 0.000000000000000000, -1.000000000000000000 ) ) ;
#577 = FACE_OUTER_BOUND ( 'NONE', #2, .T. ) ;
#578 = ADVANCED_FACE ( 'NONE', ( #174, #130 ), #230, .F. ) ;
#579 = CARTESIAN_POINT ( 'NONE',  ( -7.741945482123178124, 4.190439729689179771, -12.72152309912242885 ) ) ;
#580 = FACE_BOUND ( 'NONE', #416, .T. ) ;
#581 = EDGE_CURVE ( 'NONE', #404, #232, #6, .T. ) ;
#582 = CIRCLE ( 'NONE', #50, 6.350000000000001421 ) ;
#583 = CC_DESIGN_APPROVAL ( #619, ( #523 ) ) ;
#584 = CARTESIAN_POINT ( 'NONE',  ( -15.00000000000000000, 22.77499999999999858, -15.00000000000000000 ) ) ;
#585 = CARTESIAN_POINT ( 'NONE',  ( 0.000000000000000000, 0.000000000000000000, 0.000000000000000000 ) ) ;
#586 = DIRECTION ( 'NONE',  ( 1.000000000000000000, 0.000000000000000000, 0.000000000000000000 ) ) ;
#587 = VERTEX_POINT ( 'NONE', #423 ) ;
#588 = PERSON_AND_ORGANIZATION ( #157, #290 ) ;
#589 = CARTESIAN_POINT ( 'NONE',  ( -12.47927586857744053, 30.27500203870378925, 4.077215301490078048E-06 ) ) ;
#590 = ORIENTED_EDGE ( 'NONE', *, *, #205, .F. ) ;
#591 = AXIS2_PLACEMENT_3D ( 'NONE', #338, #431, #23 ) ;
#592 = VECTOR ( 'NONE', #291, 1000.000000000000000 ) ;
#593 = DIRECTION ( 'NONE',  ( 0.5000000000000013323, -0.8660254037844379305, 0.000000000000000000 ) ) ;
#594 = LINE ( 'NONE', #391, #464 ) ;
#595 = EDGE_CURVE ( 'NONE', #602, #400, #263, .T. ) ;
#596 = VERTEX_POINT ( 'NONE', #195 ) ;
#597 = APPROVAL_STATUS ( 'not_yet_approved' ) ;
#598 = CARTESIAN_POINT ( 'NONE',  ( -3.999996468861495291, 15.58845930682369207, 4.077215301490078048E-06 ) ) ;
#599 = ORIENTED_EDGE ( 'NONE', *, *, #125, .F. ) ;
#600 = APPROVAL_DATE_TIME ( #64, #611 ) ;
#601 = DIRECTION ( 'NONE',  ( 2.309522458705388000E-16, -1.000000000000000000, -0.000000000000000000 ) ) ;
#602 = VERTEX_POINT ( 'NONE', #547 ) ;
#603 = EDGE_CURVE ( 'NONE', #549, #470, #296, .T. ) ;
#604 = VECTOR ( 'NONE', #364, 1000.000000000000000 ) ;
#605 = FACE_OUTER_BOUND ( 'NONE', #499, .T. ) ;
#606 = APPROVAL_PERSON_ORGANIZATION ( #466, #619, #454 ) ;
#607 = ORIENTED_EDGE ( 'NONE', *, *, #509, .F. ) ;
#608 = CARTESIAN_POINT ( 'NONE',  ( 5.221968286952221483, -3.225000000000002309, -14.99847989757800093 ) ) ;
#609 = ORIENTED_EDGE ( 'NONE', *, *, #129, .T. ) ;
#610 = LINE ( 'NONE', #158, #346 ) ;
#611 = APPROVAL ( #597, 'UNSPECIFIED' ) ;
#612 = EDGE_LOOP ( 'NONE', ( #258, #7, #251, #94 ) ) ;
#613 = CARTESIAN_POINT ( 'NONE',  ( -0.5791961239129620465, 17.56345930682369527, 4.077215301490078048E-06 ) ) ;
#614 = ORIENTED_EDGE ( 'NONE', *, *, #627, .T. ) ;
#615 = FACE_OUTER_BOUND ( 'NONE', #162, .T. ) ;
#616 = ORIENTED_EDGE ( 'NONE', *, *, #398, .T. ) ;
#617 = CARTESIAN_POINT ( 'NONE',  ( 3.531138515269760525E-06, 8.660256076548190407, 4.077215301490078048E-06 ) ) ;
#618 = CARTESIAN_POINT ( 'NONE',  ( 30.15707608561450215, 15.27500000000000036, -37.28565593195450845 ) ) ;
#619 = APPROVAL ( #267, 'UNSPECIFIED' ) ;
#620 = CYLINDRICAL_SURFACE ( 'NONE', #348, 3.950000000000001510 ) ;
#621 = CARTESIAN_POINT ( 'NONE',  ( -22.85224534236190053, 18.24150403784435071, 15.00000000000000000 ) ) ;
#622 = AXIS2_PLACEMENT_3D ( 'NONE', #589, #196, #351 ) ;
#623 = DIRECTION ( 'NONE',  ( 0.5000000000000013323, -0.8660254037844379305, -0.000000000000000000 ) ) ;
#624 = FACE_OUTER_BOUND ( 'NONE', #414, .T. ) ;
#625 = LINE ( 'NONE', #74, #109 ) ;
#626 = CARTESIAN_POINT ( 'NONE',  ( 17.80707608561450073, 44.77500000000000568, 3.673940397442052472E-16 ) ) ;
#627 = EDGE_CURVE ( 'NONE', #596, #602, #405, .T. ) ;
#628 = VERTEX_POINT ( 'NONE', #437 ) ;
#629 = LINE ( 'NONE', #486, #73 ) ;
#630 = CIRCLE ( 'NONE', #286, 3.950000000000000622 ) ;
#631 = LOCAL_TIME ( 13, 10, 36.00000000000000000, #539 ) ;
#632 = FACE_OUTER_BOUND ( 'NONE', #638, .T. ) ;
#633 = ORIENTED_EDGE ( 'NONE', *, *, #419, .F. ) ;
#634 = ADVANCED_FACE ( 'NONE', ( #397 ), #145, .F. ) ;
#635 = PERSON_AND_ORGANIZATION ( #157, #290 ) ;
#636 = ADVANCED_BREP_SHAPE_REPRESENTATION ( '14141414', ( #255, #514 ), #144 ) ;
#637 = FACE_OUTER_BOUND ( 'NONE', #107, .T. ) ;
#638 = EDGE_LOOP ( 'NONE', ( #432, #614, #173, #247 ) ) ;
#639 = EDGE_CURVE ( 'NONE', #197, #357, #408, .T. ) ;
#640 = CARTESIAN_POINT ( 'NONE',  ( 30.15707608561450215, 22.77499999999999858, -15.00000000000000000 ) ) ;
#641 = ORIENTED_EDGE ( 'NONE', *, *, #200, .T. ) ;
#642 = VECTOR ( 'NONE', #48, 1000.000000000000000 ) ;
#643 = CALENDAR_DATE ( 2025, 11, 7 ) ;
#644 = FACE_BOUND ( 'NONE', #58, .T. ) ;
#645 = EDGE_LOOP ( 'NONE', ( #375, #298, #272, #320 ) ) ;
#646 = PLANE ( 'NONE',  #369 ) ;
#647 = ORIENTED_EDGE ( 'NONE', *, *, #78, .T. ) ;
ENDSEC;
END-ISO-10303-21;
